<?xml version="1.0" encoding="utf-8"?>
<!-- Generator: Adobe Illustrator 23.0.2, SVG Export Plug-In . SVG Version: 6.00 Build 0)  -->
<svg version="1.1" id="Livello_1" xmlns="http://www.w3.org/2000/svg" xmlns:xlink="http://www.w3.org/1999/xlink" x="0px" y="0px"
	 viewBox="0 0 463.01 463.01" style="enable-background:new 0 0 463.01 463.01;" xml:space="preserve">
<style type="text/css">
	.st0{fill:#08090A;}
</style>
<g>
	<g>
		<path class="st0" d="M434.98,221.91c-0.85-1.08-21.26-26.68-56.25-52.38c-46.76-34.35-97.63-52.51-147.12-52.51
			c-49.49,0-100.37,18.16-147.12,52.51c-34.99,25.7-55.4,51.31-56.25,52.38L21,231.06l7.23,9.15c0.85,1.08,21.26,26.68,56.25,52.39
			c46.76,34.35,97.63,52.51,147.12,52.51c49.49,0,100.37-18.16,147.12-52.51c34.99-25.71,55.4-51.31,56.25-52.39l7.24-9.15
			L434.98,221.91z M231.61,310.95c-44.05,0-79.89-35.84-79.89-79.89c0-6.9,0.88-13.6,2.53-19.99l-18.24-3.07
			c-1.79,7.4-2.73,15.12-2.73,23.06c0,28.46,12.16,54.12,31.54,72.1c-24.95-9.22-46.17-22.15-62.19-33.85
			c-19.84-14.49-34.71-29.15-43.19-38.25c8.48-9.1,23.35-23.76,43.19-38.25c16.01-11.7,37.23-24.63,62.19-33.85l12.24,13.79
			c14.29-13.38,33.48-21.59,54.56-21.59c44.05,0,79.89,35.84,79.89,79.89S275.66,310.95,231.61,310.95z M360.59,269.3
			c-16.02,11.7-37.23,24.63-62.19,33.85c19.38-17.97,31.54-43.64,31.54-72.1s-12.16-54.12-31.54-72.1
			c24.95,9.22,46.17,22.15,62.19,33.85c19.84,14.49,34.71,29.15,43.19,38.25C395.29,240.16,380.43,254.81,360.59,269.3z"/>
		<path class="st0" d="M180.77,215.53c-1.5,4.91-2.31,10.13-2.31,15.53c0,29.35,23.8,53.15,53.15,53.15
			c29.35,0,53.15-23.8,53.15-53.15s-23.8-53.15-53.15-53.15c-14.3,0-27.27,5.66-36.82,14.84L221,222.3L180.77,215.53z"/>
	</g>
</g>
</svg>
