<?xml version="1.0" encoding="utf-8"?>
<!-- Generator: Adobe Illustrator 23.0.2, SVG Export Plug-In . SVG Version: 6.00 Build 0)  -->
<svg version="1.1" id="Livello_1" xmlns="http://www.w3.org/2000/svg" xmlns:xlink="http://www.w3.org/1999/xlink" x="0px" y="0px"
	 viewBox="0 0 463.01 463.01" style="enable-background:new 0 0 463.01 463.01;" xml:space="preserve">
<style type="text/css">
	.st0{fill:#08090A;}
</style>
<path class="st0" d="M164.92,199.49c2.36,0.01,4.59-1.06,6.07-2.89c0.54-0.66,1.09-1.32,1.65-1.96c2.82-3.25,2.47-8.17-0.78-10.99
	c-3.25-2.82-8.17-2.47-10.99,0.78l0,0c-0.67,0.77-1.34,1.57-1.98,2.37c-2.71,3.34-2.2,8.24,1.14,10.95
	C161.4,198.88,163.13,199.49,164.92,199.49z"/>
<path class="st0" d="M194.27,177.2c38.18-20.89,86.07-6.87,106.96,31.31c6.34,11.59,9.67,24.59,9.67,37.8v24.04
	c-0.01,23.91,4.1,47.64,12.15,70.15c1.32,4.1,5.71,6.35,9.81,5.02c4.1-1.32,6.35-5.71,5.02-9.81c-0.05-0.15-0.1-0.31-0.16-0.46
	c-7.44-20.83-11.24-42.79-11.22-64.91v-24.04c-0.06-44.82-31.58-83.43-75.48-92.46l9.15-80.77c1.76-15.48-9.36-29.46-24.85-31.22
	c-15.48-1.76-29.46,9.36-31.22,24.85c-0.24,2.12-0.24,4.26,0,6.38l9.14,80.8c-9.25,1.87-18.16,5.12-26.44,9.65
	c-3.85,1.92-5.42,6.6-3.5,10.45s6.6,5.42,10.45,3.5C193.92,177.4,194.1,177.3,194.27,177.2L194.27,177.2z M219.57,71.33
	c-0.43-3.57,0.71-7.16,3.12-9.83c4.88-5.2,13.06-5.46,18.26-0.57c0.2,0.19,0.39,0.38,0.57,0.57c2.41,2.67,3.55,6.26,3.12,9.83
	l-9.11,80.78c-1.14-0.04-2.26-0.17-3.41-0.17c-1.15,0-2.28,0.07-3.42,0.11L219.57,71.33z"/>
<path class="st0" d="M363.65,362.45H131.89c14.09-28.65,21.42-60.16,21.44-92.09v-24.04c-0.01-8.34,1.3-16.63,3.9-24.56
	c1.44-4.05-0.67-8.51-4.73-9.96s-8.51,0.67-9.96,4.73c-0.04,0.13-0.09,0.25-0.12,0.38c-3.11,9.49-4.69,19.42-4.68,29.41v24.04
	c-0.03,32.17-8.09,63.83-23.45,92.09h-13.71c-4.3,0-7.79,3.49-7.79,7.79s3.49,7.79,7.79,7.79h82.83
	c4.26,26.9,29.53,45.25,56.43,40.99c21.1-3.34,37.65-19.89,40.99-40.99h82.82c4.3,0,7.79-3.49,7.79-7.79
	S367.95,362.45,363.65,362.45z M232.11,404.04c-15.66-0.02-29.26-10.78-32.89-26.01H265C261.37,393.27,247.77,404.02,232.11,404.04z
	"/>
</svg>
