<?xml version="1.0" encoding="utf-8"?>
<!-- Generator: Adobe Illustrator 23.0.2, SVG Export Plug-In . SVG Version: 6.00 Build 0)  -->
<svg version="1.1" id="Livello_1" xmlns="http://www.w3.org/2000/svg" xmlns:xlink="http://www.w3.org/1999/xlink" x="0px" y="0px"
	 viewBox="0 0 463.01 463.01" style="enable-background:new 0 0 463.01 463.01;" xml:space="preserve">
<g>
	<g>
		<path d="M125.1,174.5c5.6,0,9.73-2.16,12.39-6.46c2.65-4.3,4.01-10.1,4.07-17.42c-1.51,1.91-3.68,3.71-6.52,5.38
			c-2.83,1.67-5.97,2.51-9.41,2.51c-5.67,0-10.42-2.13-14.25-6.4c-3.83-4.27-5.74-9.94-5.74-17.01c0-7.07,2.06-12.76,6.19-17.06
			c4.13-4.3,9.34-6.45,15.61-6.45c10.13,0,17.13,5.12,20.99,15.37c2.17,5.88,3.25,12.5,3.25,19.88c0,7.38-0.69,13.52-2.08,18.44
			c-1.39,4.91-3.29,8.81-5.7,11.68c-4.71,5.6-10.48,8.4-17.33,8.4c-6.84,0-13.04-2.43-18.59-7.27l5.34-8.91
			c1.39,1.37,3.24,2.59,5.57,3.69C121.22,173.95,123.29,174.5,125.1,174.5z M127.05,147.86c3.65,0,6.69-1.14,9.14-3.43
			c2.44-2.28,3.67-5.26,3.67-8.91c0-3.65-1.18-6.79-3.53-9.42c-2.35-2.63-5.29-3.94-8.82-3.94s-6.44,1.18-8.73,3.53
			c-2.29,2.35-3.43,5.38-3.43,9.07c0,3.69,1.04,6.8,3.11,9.32C120.53,146.6,123.4,147.86,127.05,147.86z"/>
		<path d="M201.01,112.82v10.96h-26.69v17.62c2.65-1.64,5.67-2.46,9.05-2.46c5.91,0,11.01,2.01,15.29,6.04
			c4.29,4.03,6.43,9.49,6.43,16.39s-2.23,12.62-6.69,17.16c-4.47,4.54-9.95,6.82-16.47,6.82c-8.5,0-15.29-3.21-20.36-9.63l5.71-8.81
			c0.48,0.55,1.13,1.2,1.94,1.95c0.81,0.75,2.49,1.76,5.02,3.02c2.53,1.26,5.3,1.9,8.32,1.9s5.76-1.03,8.23-3.08
			c2.47-2.05,3.71-5.04,3.71-8.96c0-3.93-1.31-6.97-3.93-9.12c-2.63-2.16-5.94-3.23-9.95-3.23c-4.01,0-7.83,1.13-11.44,3.38
			l-4.53-5.53v-34.42H201.01z"/>
		<path d="M221.18,175.26c-4.28-6.73-6.42-15.73-6.42-27c0-11.27,2.14-20.27,6.42-27c4.29-6.72,10.74-10.09,19.36-10.09
			c8.62,0,15.08,3.36,19.36,10.09c4.28,6.73,6.42,15.73,6.42,27c0,11.27-2.14,20.27-6.42,27c-4.29,6.73-10.74,10.09-19.36,10.09
			C231.92,185.36,225.47,181.99,221.18,175.26z M228.83,128.9c-2.5,4.92-3.76,11.37-3.76,19.36s1.25,14.44,3.76,19.36
			c2.5,4.92,6.41,7.37,11.71,7.37c5.31,0,9.18-2.44,11.63-7.32c2.44-4.88,3.67-11.35,3.67-19.41c0-8.06-1.22-14.53-3.67-19.41
			c-2.44-4.88-6.32-7.32-11.63-7.32S231.34,123.99,228.83,128.9z"/>
		<path d="M303.7,122.45c-5.61,0-9.74,2.15-12.4,6.45c-2.65,4.3-4.01,10.11-4.06,17.42c1.5-1.91,3.67-3.7,6.51-5.38
			c2.83-1.67,5.97-2.51,9.41-2.51c5.67,0,10.42,2.13,14.25,6.4c3.83,4.27,5.74,9.94,5.74,17c0,7.07-2.07,12.76-6.2,17.06
			c-4.13,4.31-9.34,6.46-15.61,6.46c-10.13,0-17.13-5.12-20.98-15.37c-2.17-5.87-3.26-12.5-3.26-19.88c0-7.37,0.69-13.52,2.08-18.44
			c1.38-4.92,3.28-8.81,5.7-11.68c4.71-5.6,10.48-8.4,17.33-8.4c6.85,0,13.05,2.43,18.59,7.27l-5.34,8.91
			c-1.38-1.37-3.24-2.6-5.56-3.69C307.57,123,305.51,122.45,303.7,122.45z M301.76,149.09c-3.65,0-6.7,1.14-9.14,3.43
			c-2.44,2.29-3.67,5.26-3.67,8.91c0,3.66,1.18,6.8,3.53,9.42c2.36,2.63,5.31,3.94,8.87,3.94c3.56,0,6.52-1.18,8.87-3.53
			c2.35-2.35,3.53-5.36,3.53-9.01c0-3.66-1.09-6.76-3.25-9.33C308.32,150.37,305.4,149.09,301.76,149.09z"/>
		<path d="M145.01,207.84v10.96h-26.69v17.62c2.65-1.64,5.67-2.46,9.05-2.46c5.91,0,11.01,2.02,15.29,6.04
			c4.29,4.03,6.43,9.5,6.43,16.39c0,6.89-2.23,12.61-6.69,17.16c-4.47,4.54-9.95,6.81-16.47,6.81c-8.5,0-15.29-3.21-20.36-9.63
			l5.71-8.81c0.48,0.55,1.13,1.2,1.94,1.95c0.81,0.75,2.49,1.76,5.02,3.02c2.53,1.27,5.3,1.9,8.32,1.9c3.02,0,5.76-1.03,8.23-3.08
			s3.71-5.04,3.71-8.96s-1.31-6.97-3.93-9.12c-2.63-2.15-5.94-3.23-9.95-3.23s-7.83,1.13-11.44,3.38l-4.53-5.54v-34.42
			L145.01,207.84L145.01,207.84z"/>
		<path d="M202.61,207.84v10.96h-26.69v17.62c2.65-1.64,5.67-2.46,9.05-2.46c5.91,0,11.01,2.02,15.29,6.04
			c4.29,4.03,6.43,9.5,6.43,16.39c0,6.89-2.23,12.61-6.69,17.16c-4.47,4.54-9.95,6.81-16.47,6.81c-8.5,0-15.29-3.21-20.36-9.63
			l5.71-8.81c0.48,0.55,1.13,1.2,1.94,1.95c0.81,0.75,2.49,1.76,5.02,3.02c2.53,1.27,5.3,1.9,8.32,1.9s5.76-1.03,8.23-3.08
			c2.47-2.05,3.71-5.04,3.71-8.96s-1.31-6.97-3.93-9.12c-2.63-2.15-5.94-3.23-9.95-3.23c-4.01,0-7.83,1.13-11.44,3.38l-4.53-5.54
			v-34.42L202.61,207.84L202.61,207.84z"/>
		<path d="M249.58,235.91c1.81-2.79,2.71-5.64,2.71-8.5c0-2.87-0.96-5.3-2.89-7.32c-1.93-2.02-4.37-3.03-7.33-3.03
			c-5.19,0-9.5,3.01-12.94,9.02l-8.6-5.64c2.78-4.71,5.84-8.26,9.19-10.65c3.34-2.39,7.66-3.59,12.94-3.59
			c5.28,0,9.9,1.89,13.89,5.69c3.98,3.78,5.97,8.96,5.97,15.52c0,3.69-0.85,7.21-2.53,10.55c-1.69,3.35-4.79,7.65-9.32,12.91
			l-14.84,17.11h28.68v11.58h-43.24v-10.25l19.18-21.82C244.72,242.57,247.77,238.71,249.58,235.91z"/>
		<path d="M303.7,217.47c-5.61,0-9.74,2.16-12.4,6.46c-2.65,4.3-4.01,10.1-4.06,17.42c1.5-1.92,3.67-3.71,6.51-5.39
			c2.83-1.67,5.97-2.51,9.41-2.51c5.67,0,10.42,2.14,14.25,6.4c3.83,4.27,5.74,9.94,5.74,17.01c0,7.07-2.07,12.76-6.2,17.06
			c-4.13,4.3-9.34,6.45-15.61,6.45c-10.13,0-17.13-5.12-20.98-15.37c-2.17-5.87-3.26-12.5-3.26-19.88c0-7.38,0.69-13.52,2.08-18.44
			c1.38-4.91,3.28-8.8,5.7-11.67c4.71-5.6,10.48-8.4,17.33-8.4c6.85,0,13.05,2.43,18.59,7.27l-5.34,8.91
			c-1.38-1.36-3.24-2.59-5.56-3.69C307.57,218.02,305.51,217.47,303.7,217.47z M301.76,244.11c-3.65,0-6.7,1.15-9.14,3.43
			c-2.44,2.29-3.67,5.26-3.67,8.91s1.18,6.79,3.53,9.43c2.36,2.63,5.31,3.94,8.87,3.94c3.56,0,6.52-1.18,8.87-3.53
			c2.35-2.36,3.53-5.36,3.53-9.02c0-3.65-1.09-6.76-3.25-9.32C308.32,245.39,305.4,244.11,301.76,244.11z"/>
		<path d="M108,334.21v-10.76h37.01v9.42l-15.29,19.37c5.79,0.2,10.32,2.27,13.57,6.19c3.26,3.93,4.89,8.62,4.89,14.09
			c0,7.3-2.19,13.04-6.56,17.21c-4.37,4.17-10,6.25-16.88,6.25c-6.87,0-13.6-2.49-20.17-7.48l4.53-9.74
			c5.18,4.1,10.61,6.14,16.28,6.14c3.68,0,6.71-0.97,9.09-2.92c2.39-1.94,3.58-4.74,3.58-8.4c0-3.65-1.33-6.58-3.98-8.76
			c-2.65-2.18-6.33-3.28-11.04-3.28c-2.36,0-4.62,0.38-6.79,1.13v-9.22l14.66-19.26H108z"/>
		<path d="M177.4,385.02c5.6,0,9.73-2.15,12.39-6.45c2.65-4.3,4.01-10.11,4.07-17.42c-1.51,1.91-3.68,3.7-6.52,5.38
			s-5.97,2.51-9.41,2.51c-5.67,0-10.42-2.13-14.25-6.4c-3.83-4.27-5.74-9.94-5.74-17.01s2.06-12.76,6.19-17.06
			c4.13-4.3,9.34-6.45,15.61-6.45c10.13,0,17.13,5.12,20.99,15.37c2.17,5.88,3.25,12.5,3.25,19.88s-0.69,13.52-2.08,18.44
			c-1.39,4.92-3.29,8.81-5.7,11.68c-4.71,5.59-10.48,8.4-17.33,8.4c-6.84,0-13.04-2.42-18.59-7.27l5.34-8.91
			c1.39,1.37,3.24,2.59,5.57,3.69C173.52,384.47,175.58,385.02,177.4,385.02z M179.34,358.39c3.65,0,6.69-1.14,9.14-3.43
			c2.44-2.28,3.67-5.25,3.67-8.91c0-3.65-1.18-6.79-3.53-9.42c-2.35-2.63-5.29-3.94-8.82-3.94c-3.53,0-6.44,1.18-8.73,3.53
			c-2.29,2.35-3.43,5.38-3.43,9.06c0,3.69,1.04,6.79,3.11,9.32C172.82,357.12,175.69,358.39,179.34,358.39z"/>
		<path d="M222.9,327.45c4.04-3.62,9.11-5.43,15.2-5.43c6.09,0,11.16,1.81,15.2,5.43c4.04,3.62,6.06,8.18,6.06,13.67
			c0,5.5-2.26,10.37-6.78,14.6c6.09,4.38,9.14,10.52,9.14,18.44c0,6.15-2.17,11.3-6.52,15.47c-4.34,4.17-10.04,6.24-17.1,6.24
			c-7.06,0-12.76-2.08-17.1-6.24c-4.34-4.17-6.52-9.32-6.52-15.47c0-7.92,3.05-14.06,9.14-18.44c-4.53-4.23-6.79-9.1-6.79-14.6
			C216.84,335.63,218.86,331.07,222.9,327.45z M229.23,382.41c2.78,2.02,5.74,3.03,8.87,3.03c3.13,0,6.09-1.01,8.87-3.03
			c2.78-2.01,4.16-4.89,4.16-8.65c0-3.75-1.33-6.66-3.98-8.7c-2.65-2.05-5.67-3.08-9.04-3.08c-3.38,0-6.4,1.03-9.05,3.08
			c-2.66,2.04-3.98,4.95-3.98,8.7C225.07,377.51,226.46,380.4,229.23,382.41z M230.09,349.83c2.26,2.08,4.93,3.13,8.01,3.13
			c3.07,0,5.74-1.04,8-3.13c2.26-2.08,3.39-4.64,3.39-7.69c0-3.03-1.13-5.58-3.39-7.63c-2.26-2.05-4.93-3.08-8-3.08
			c-3.08,0-5.75,1.03-8.01,3.08s-3.39,4.59-3.39,7.63C226.7,345.19,227.83,347.75,230.09,349.83z"/>
		<path d="M278.63,385.79c-4.28-6.73-6.42-15.72-6.42-27c0-11.27,2.14-20.27,6.42-27c4.29-6.73,10.74-10.09,19.36-10.09
			c8.62,0,15.08,3.36,19.36,10.09c4.28,6.73,6.42,15.72,6.42,27c0,11.27-2.14,20.27-6.42,27c-4.29,6.73-10.74,10.09-19.36,10.09
			C289.37,395.88,282.92,392.52,278.63,385.79z M286.28,339.44c-2.5,4.91-3.76,11.37-3.76,19.36c0,8,1.25,14.45,3.76,19.36
			c2.5,4.92,6.41,7.38,11.71,7.38c5.31,0,9.18-2.44,11.63-7.32c2.44-4.89,3.67-11.35,3.67-19.42c0-8.05-1.22-14.53-3.67-19.42
			c-2.44-4.88-6.32-7.32-11.63-7.32C292.69,332.06,288.78,334.52,286.28,339.44z"/>
	</g>
	<rect x="334.93" y="224.15" width="32.66" height="14.91"/>
	<rect x="99.89" y="297.32" width="231.61" height="7.45"/>
	<polygon points="418.58,100.41 415.32,99.47 416.21,96.35 412.75,95.36 391.32,170.22 394.79,171.22 410.61,115.94 413.87,116.87 	
		"/>
	<path d="M358.02,341.82L358.02,341.82c-0.63,2.21-0.92,4.5-0.87,6.79l0.07,2.61c0.02,0.71,0.49,1.32,1.17,1.52
		c0.68,0.19,1.41-0.07,1.8-0.67l1.44-2.18c1.26-1.92,2.23-4.02,2.86-6.22L358.02,341.82z"/>
	<path d="M396.64,259.83l-21.54-6.16l-14.04,49.06c-0.53,1.87-1,3.76-1.34,5.68c-1.93,10.86-2.71,21.92-2.25,33.18
		c0.01,0.29,0.21,0.53,0.48,0.61l6.41,1.83c0.27,0.08,0.56-0.03,0.73-0.25c6.47-9.09,11.72-18.99,15.81-29.66
		c0.61-1.6,1.14-3.25,1.61-4.9L396.64,259.83z"/>
	<g>
		<path d="M408.3,219.1l23.23-81.15c-4.77-0.71-17.88-4.44-22.78-6.47l-22.42,81.41C394.44,215.79,399.55,217.21,408.3,219.1z"/>
		<path d="M398.42,253.62c-8.6-1.86-13.73-3.29-21.63-6.08l0.29-1.06l-1.59,5.78h0c7.89,2.8,12.97,4.21,21.58,6.07l1.61-5.63
			L398.42,253.62z"/>
		<path d="M407.77,220.94c-8.72-1.88-13.86-3.32-21.95-6.2l-1.3,4.72c8.08,2.88,13.18,4.3,21.9,6.18l-0.53,1.84
			c-8.69-1.88-13.84-3.32-21.89-6.18l0.08-0.27l-1.61,5.85l0.24-0.86c8.04,2.86,13.14,4.28,21.84,6.16l3.46-12.1L407.77,220.94z"/>
		<path d="M382.21,227.86l-1.3,4.72c8,2.84,13.1,4.26,21.78,6.13l-0.53,1.84c-8.65-1.87-13.78-3.3-21.76-6.13l-1.3,4.72
			c7.97,2.83,13.06,4.24,21.71,6.11l-0.53,1.84c-8.62-1.86-13.75-3.29-21.69-6.11l-1.3,4.72c7.93,2.81,13.01,4.23,21.65,6.09
			l5.09-17.77C395.36,232.14,390.22,230.7,382.21,227.86z"/>
	</g>
	<g>
		<path d="M431.53,137.95l15.24-53.24l-26.43,5.14l-0.74,2.23l-10.85,39.4C413.64,133.51,426.76,137.25,431.53,137.95z"/>
		<path d="M446.67,84.26c-0.77-1.88-7.28-2.07-14.53-0.41c-7.25,1.66-12.5,4.52-11.73,6.41s7.28,2.07,14.53,0.41
			C442.19,89.01,447.44,86.14,446.67,84.26z"/>
	</g>
	<path d="M441.74,85.38c-0.48-1.18-4.55-1.29-9.08-0.26c-4.53,1.03-7.81,2.83-7.33,4c0.48,1.18,4.55,1.29,9.08,0.26
		C438.94,88.35,442.23,86.56,441.74,85.38z"/>
	<path d="M431.2,69.26l-5.35,18.7l-0.36,1.27c0.73,1.05,4.57,1.14,8.93,0.15c2.77-0.63,5.05-1.55,6.31-2.43l0.54-1.9l3.42-11.93
		C445.63,69.82,432.15,65.96,431.2,69.26z"/>
	<g>
		<path d="M88.66,331.6c-6.87-8.03-13.46-11.62-23.43-11.62c-15,0-24.88,9.49-28.75,21.97c9,0.2,20.43,0.2,25.56,0.2
			c1.74,0,3.2,3.39,3.2,5.13c0,2.42-3.58,2.81-9.68,2.81H45.19c-2.42,0-4.84,0.19-8.03,0.19h-2.42c-0.1,1.55-0.19,3.19-0.19,4.74
			v0.58c9.1,0.19,21.97,0.29,27.49,0.29c1.74,0,3.2,3.39,3.2,5.13c0,2.42-3.58,2.81-9.68,2.81H45.19c-2.42,0-4.84,0.19-8.03,0.19
			h-1.94c1.64,10.55,6.78,20.42,19.26,20.42c7.94,0,15.1-5.61,15.1-13.65v-1.84c0-0.87,0.29-1.16,2.33-1.16c3.29,0,3.97,3,3.97,5.9
			c0,13.07-13.94,19.94-25.95,19.94c-20.23,0-33.79-16.85-33.79-35.53c0-26.53,25.17-46.18,50.53-46.18
			c9.97,0,19.17,3.2,26.04,11.91c0.39,0.87,0.68,1.74,0.68,2.42C93.41,328.69,91.47,331.6,88.66,331.6z"/>
	</g>
</g>
</svg>
