<?xml version="1.0" encoding="utf-8"?>
<!-- Generator: Adobe Illustrator 23.0.2, SVG Export Plug-In . SVG Version: 6.00 Build 0)  -->
<svg version="1.1" id="Livello_1" xmlns="http://www.w3.org/2000/svg" xmlns:xlink="http://www.w3.org/1999/xlink" x="0px" y="0px"
	 viewBox="0 0 463.01 463.01" style="enable-background:new 0 0 463.01 463.01;" xml:space="preserve">
<g>
	<g>
		<path d="M428.63,263.27c-8.72-8.24-17.57-11.7-19.29-12.33l-29.15-12.15l-20.42-13.47v-6.85c15.25-7.97,26.35-22.82,29.17-40.4
			c12.81-1.7,22.73-12.69,22.73-25.96c0-6.81-2.61-13.02-6.89-17.68v-25.12c0-40.41-32.88-73.29-73.29-73.29h-5.54
			c-33.27,0-62.3,22.34-70.82,54.41c-6.4-1.73-13.12-2.67-20.06-2.67h-5.84c-7.31,0-14.37,1.05-21.08,2.96
			C199.74,58.48,170.63,36,137.26,36h-5.54c-40.41,0-73.29,32.88-73.29,73.29v25.12c-4.27,4.66-6.89,10.87-6.89,17.68
			c0,13.27,9.92,24.26,22.73,25.96c2.82,17.59,13.92,32.43,29.17,40.4v6.85l-20.42,13.47l-29.15,12.15
			c-1.72,0.62-10.56,4.09-19.29,12.33c-8.76,8.27-19.2,23.14-19.2,47.02v41.5c0,3.77,3.06,6.84,6.83,6.84h85.74
			c-1.27,5.3-2.03,11.2-2.03,17.75v43.73c0,3.77,3.06,6.84,6.83,6.84h81.13h17.95h40.92h0.02h16.57h3.85c3.77,0,6.83-3.06,6.83-6.83
			s-3.06-6.83-6.83-6.83h-3.85h-10.77l-8.24-51.11l3.22-8.58l4.87,3.59c1.18,0.87,2.6,1.33,4.05,1.33c0.55,0,1.09-0.07,1.64-0.2
			c1.97-0.49,3.62-1.82,4.5-3.64l18.54-38.12l24.74,10.31c0.15,0.06,0.3,0.12,0.45,0.17c0.31,0.1,31.3,10.96,31.3,49.35v36.91
			h-28.33v-38.9c0-3.77-3.06-6.83-6.83-6.83c-3.77,0-6.83,3.06-6.83,6.83v38.9h-7.22c-3.77,0-6.83,3.06-6.83,6.83
			c0,3.77,3.06,6.83,6.83,6.83h56.03c3.77,0,6.83-3.14,6.83-6.91v-43.65c0-6.55-0.76-12.45-2.03-17.75h85.74
			c3.77,0,6.83-3.14,6.83-6.91v-41.43C447.83,286.41,437.39,271.54,428.63,263.27z M376,169.24c0,23.08-18.78,41.86-41.86,41.86
			h-10.56c-1.47,0-2.95-0.09-4.41-0.24c0.02-0.39,0.03-0.78,0.03-1.17c0-7.13-2.76-13.63-7.26-18.49v-26.61
			c0-12.15-2.84-23.64-7.88-33.86c14.98-3.62,32.55-10.55,46.14-23.84c4.22,9.01,12.11,20.75,25.81,25.94L376,169.24L376,169.24z
			 M346.12,223.45v13.96l-17.55,18.21l-17-16.56c0-0.08,0.01-0.15,0.01-0.22v-10.28c0,0,0,0,0-0.01v0c1.31-1.36,2.47-2.85,3.48-4.46
			c2.81,0.43,5.65,0.67,8.51,0.67h10.56C338.25,224.76,342.26,224.3,346.12,223.45z M305.54,209.69c0,3.45-1.3,6.58-3.42,8.98
			c-1.27,0.53-2.34,1.45-3.09,2.59c-0.95,0.58-1.96,1.06-3.04,1.4v-25.94C301.52,198.45,305.54,203.61,305.54,209.69z M398.02,152.1
			c0,5.45-3.5,10.09-8.37,11.81v-23.63C394.52,142.01,398.02,146.64,398.02,152.1z M268.19,94.41
			c6.77-26.35,30.52-44.76,57.77-44.76h5.54c32.88,0,59.64,26.75,59.64,59.64v17.22c-0.55-0.12-1.1-0.23-1.67-0.32
			c-0.59-2.49-2.54-4.5-5.13-5.08c-19.11-4.35-24.99-28.74-25.05-28.97c-0.59-2.62-2.66-4.64-5.29-5.18
			c-2.63-0.54-5.33,0.51-6.9,2.69c-12.8,17.7-34.15,25.42-50.62,28.79c-7.45-9.89-17.24-17.93-28.53-23.3
			C268.05,94.9,268.13,94.66,268.19,94.41z M229.24,101.39h5.83v0c34.85,0,63.21,28.35,63.21,63.21v18.61
			c-0.79-0.19-1.6-0.35-2.42-0.47c-0.02-0.09-0.04-0.18-0.06-0.26c-0.03-0.11-0.05-0.23-0.09-0.34c-0.03-0.11-0.07-0.22-0.11-0.33
			c-0.03-0.1-0.07-0.19-0.1-0.29c-0.05-0.12-0.1-0.23-0.15-0.34c-0.04-0.09-0.08-0.17-0.12-0.26c-0.06-0.11-0.12-0.22-0.18-0.32
			c-0.05-0.08-0.1-0.17-0.15-0.25c-0.06-0.1-0.13-0.19-0.2-0.28c-0.06-0.09-0.13-0.17-0.19-0.26c-0.07-0.08-0.13-0.16-0.2-0.24
			c-0.08-0.09-0.16-0.18-0.24-0.26c-0.07-0.07-0.14-0.13-0.21-0.2c-0.09-0.09-0.18-0.17-0.28-0.25c-0.07-0.06-0.14-0.11-0.22-0.17
			c-0.1-0.08-0.2-0.16-0.3-0.23c-0.08-0.06-0.16-0.11-0.25-0.16c-0.1-0.06-0.2-0.13-0.31-0.19c-0.1-0.06-0.2-0.11-0.3-0.16
			c-0.09-0.05-0.19-0.09-0.28-0.14c-0.12-0.05-0.25-0.1-0.38-0.15c-0.08-0.03-0.16-0.06-0.24-0.09c-0.14-0.05-0.29-0.09-0.44-0.12
			c-0.06-0.01-0.11-0.04-0.17-0.05c-20.37-4.64-26.61-30.56-26.67-30.8c-0.59-2.62-2.66-4.64-5.29-5.18
			c-2.63-0.54-5.33,0.51-6.9,2.69c-23.73,32.81-75.59,33.13-76.37,33.13c-0.01,0-0.02,0-0.03,0c-0.23,0-0.47,0.01-0.7,0.04
			c-0.05,0.01-0.1,0.02-0.16,0.02c-0.17,0.02-0.35,0.04-0.52,0.08c-0.06,0.01-0.12,0.03-0.19,0.05c-0.16,0.04-0.31,0.07-0.47,0.12
			c-0.08,0.03-0.16,0.06-0.24,0.09c-0.13,0.05-0.26,0.09-0.39,0.14c-0.1,0.04-0.2,0.09-0.29,0.14c-0.1,0.05-0.2,0.09-0.3,0.14
			c-0.1,0.05-0.19,0.12-0.29,0.18c-0.09,0.06-0.18,0.11-0.27,0.16c-0.1,0.07-0.18,0.14-0.28,0.21c-0.08,0.06-0.17,0.12-0.25,0.19
			c-0.09,0.07-0.17,0.15-0.25,0.23c-0.08,0.07-0.16,0.14-0.23,0.21c-0.08,0.08-0.15,0.16-0.22,0.24c-0.07,0.08-0.15,0.16-0.22,0.24
			c-0.07,0.08-0.13,0.17-0.19,0.26c-0.07,0.09-0.14,0.17-0.2,0.27c-0.06,0.09-0.11,0.18-0.17,0.27c-0.06,0.1-0.12,0.19-0.18,0.29
			c-0.05,0.09-0.09,0.19-0.14,0.29c-0.05,0.1-0.1,0.2-0.15,0.31c-0.04,0.1-0.07,0.2-0.11,0.3c-0.04,0.11-0.08,0.21-0.12,0.32
			c-0.03,0.1-0.06,0.21-0.08,0.32c-0.03,0.11-0.06,0.22-0.09,0.34c0,0.02-0.01,0.04-0.01,0.06c-0.91,0.13-1.81,0.31-2.69,0.53
			v-18.67C166.04,129.74,194.39,101.39,229.24,101.39z M232.01,319.29l-18.29-17.82c0.01-0.13,0.02-0.25,0.02-0.38v-10.83
			c0-0.01,0-0.01,0-0.02v-5.83c4.18,0.96,8.53,1.48,12.99,1.48h11.13c4.33,0,8.55-0.49,12.62-1.39c0.13,0,0.25-0.01,0.37-0.02v15.25
			L232.01,319.29z M242.11,345.18l-3.55,9.46h-12.72l-4.02-9.59l10.06-7.41L242.11,345.18z M140.26,289.31h-11.6l-3.2-8.51
			l9.29-6.84l9.12,6.72L140.26,289.31z M141.16,316.45c-3.94,2-9.55,5.4-15.12,10.66c-0.08,0.07-0.15,0.15-0.23,0.22l3.93-24.36
			h9.25L141.16,316.45z M134.65,255.62L117.1,237.4v-13.96c3.86,0.85,7.87,1.32,11.98,1.32h10.56c3.27,0,6.54-0.29,9.75-0.85
			c0.67,1.1,1.42,2.14,2.23,3.13v1.51c0,0.01,0,0.01,0,0.02v10.27c0,0.08,0.01,0.15,0.01,0.22L134.65,255.62z M163.22,246.84
			c1.59-1.54,2.25-3.67,2.01-5.71l6,3.96c0.65,2.08,1.43,4.11,2.3,6.08l-12.31,25.31l-16.19-11.92L163.22,246.84z M159.04,209.7
			c0-6.09,4.02-11.25,9.55-12.97v25.94C163.06,220.95,159.04,215.78,159.04,209.7z M155.19,289.01l4.53,3.33
			c1.18,0.87,2.61,1.33,4.05,1.33c0.55,0,1.09-0.07,1.63-0.2c1.97-0.49,3.62-1.82,4.5-3.64l12.13-24.93
			c4.96,5.96,11.1,10.91,18.04,14.5v7.11l-21.89,14.44c-0.3,0.08-0.59,0.17-0.88,0.29l-23.2,9.67l-2.25-13.93L155.19,289.01z
			 M200.28,302.73c-0.56,2.28,0.06,4.78,1.86,6.53l19.49,18.98l-17.76,13.07l-15.08-31L200.28,302.73z M237.86,272.24h-11.13
			c-24.53,0-44.48-19.95-44.48-44.48V190.6c14.65-1.06,49.3-6.01,72.65-29.16c4.39,9.54,12.74,22.22,27.44,27.69v38.63h0
			C282.34,252.29,262.38,272.24,237.86,272.24z M73.56,163.91c-4.87-1.73-8.37-6.36-8.37-11.81s3.5-10.09,8.37-11.81V163.91z
			 M80.57,120.94c-0.01,0-0.02,0-0.03,0c-0.03,0-0.05,0-0.08,0s-0.05,0-0.08,0c-3.23,0-5.93,2.24-6.64,5.25
			c-0.56,0.09-1.12,0.2-1.67,0.32v-17.22c0-32.88,26.75-59.64,59.64-59.64h5.54c27.25,0,51,18.4,57.77,44.76
			c0.11,0.41,0.25,0.8,0.42,1.17c-8.99,4.42-17,10.55-23.59,17.96c-7.87-8.2-10.61-19.64-10.64-19.75
			c-0.59-2.62-2.66-4.64-5.29-5.18c-2.63-0.54-5.33,0.51-6.9,2.69C127.79,120.65,81.25,120.94,80.57,120.94
			C80.57,120.94,80.57,120.94,80.57,120.94z M87.22,169.24V134.3c13.43-1.02,43.94-5.59,64.93-25.86
			c2.46,5.14,6.14,11.13,11.48,16.16c-7.13,11.66-11.25,25.35-11.25,39.99v26.9c-4.34,4.83-6.99,11.21-6.99,18.2
			c0,0.34,0.01,0.67,0.03,1c-1.9,0.26-3.83,0.41-5.76,0.41h-10.56C106,211.11,87.22,192.33,87.22,169.24z M103.6,241.58
			c0.26,1.21,0.83,2.36,1.75,3.32l19.03,19.75l-16.09,11.84l-14-28.77L103.6,241.58z M109.13,344.97H68.89V308.4
			c0-3.77-3.06-6.83-6.83-6.83s-6.83,3.06-6.83,6.83v36.57H29.04v-34.68c0-35.86,28.29-46.1,29.47-46.5
			c0.15-0.05,0.3-0.11,0.45-0.17l23.18-9.66l17.45,35.88c0.89,1.82,2.54,3.16,4.5,3.64c0.54,0.13,1.09,0.2,1.63,0.2
			c1.44,0,2.86-0.46,4.05-1.33l4.25-3.13l2.86,7.63L109.13,344.97z M206.02,413.29h-12.13h-32.32v0v-38.9
			c0-3.77-3.06-6.83-6.83-6.83c-3.77,0-6.83,3.06-6.83,6.83v38.9h-28.33v-36.91c0-38.06,30.05-48.91,31.3-49.35
			c0.15-0.05,0.3-0.11,0.45-0.17l25.2-10.5l18.63,38.31c0.89,1.82,2.54,3.16,4.5,3.64c0.54,0.13,1.09,0.2,1.63,0.2
			c1.44,0,2.86-0.46,4.05-1.33l5.15-3.79l3.74,8.92L206.02,413.29z M219.85,413.29l7.26-44.98h10.37l7.26,44.98H219.85z
			 M259.91,341.32l-5.38-3.96c-0.01-0.01-0.03-0.02-0.05-0.03l-12.22-9l20.34-21.11c1.06-1.1,1.66-2.45,1.85-3.86l10.54,6.96
			L259.91,341.32z M309.12,310.91l-22.91-9.55l-21.68-14.31c-0.01,0-0.01-0.01-0.02-0.01v-7.64c6.54-3.39,12.36-7.99,17.17-13.5
			l11.64,23.92c0.89,1.82,2.54,3.16,4.5,3.64c0.54,0.13,1.09,0.2,1.64,0.2c1.44,0,2.86-0.46,4.05-1.33l4.53-3.33l3.34,7.97
			L309.12,310.91z M302.01,276.49l-11.61-23.86c1.32-2.77,2.41-5.66,3.28-8.64l4.32-2.85c-0.24,2.04,0.42,4.16,2.01,5.71l18.2,17.73
			L302.01,276.49z M337.17,327.1c-5.57-5.26-11.18-8.66-15.12-10.66l2.17-13.48h9.25l3.93,24.36
			C337.33,327.25,337.25,327.17,337.17,327.1z M334.56,289.31h-11.6l-3.62-8.63l9.12-6.71l9.29,6.84L334.56,289.31z M338.84,264.64
			l19.03-19.75c0.92-0.95,1.5-2.11,1.76-3.32l9.31,6.14l-14,28.77L338.84,264.64z M407.99,344.97V308.4c0-3.77-3.06-6.83-6.83-6.83
			c-3.77,0-6.83,3.06-6.83,6.83v36.57h-40.25l-7.76-48.12l2.86-7.63l4.25,3.13c1.18,0.87,2.6,1.33,4.05,1.33
			c0.55,0,1.09-0.07,1.64-0.2c1.97-0.48,3.62-1.82,4.5-3.64l17.45-35.88l23.18,9.66c0.15,0.06,0.3,0.12,0.45,0.17
			c0.29,0.1,29.47,10.32,29.47,46.5v34.68L407.99,344.97L407.99,344.97z"/>
	</g>
</g>
</svg>
