<?xml version="1.0" encoding="utf-8"?>
<!-- Generator: Adobe Illustrator 23.0.2, SVG Export Plug-In . SVG Version: 6.00 Build 0)  -->
<svg version="1.1" id="Livello_1" xmlns="http://www.w3.org/2000/svg" xmlns:xlink="http://www.w3.org/1999/xlink" x="0px" y="0px"
	 viewBox="0 0 463.01 463.01" style="enable-background:new 0 0 463.01 463.01;" xml:space="preserve">
<style type="text/css">
	.st0{fill:#08090A;}
</style>
<g>
	<path class="st0" d="M398.29,89.99H66.16C51.19,89.99,39,102.17,39,117.15v229.07c0,14.97,12.19,27.16,27.16,27.16h332.13
		c14.97,0,27.16-12.19,27.16-27.16V117.15C425.45,102.17,413.26,89.99,398.29,89.99z M412.57,346.22c0,7.88-6.4,14.28-14.28,14.28
		H66.16c-7.88,0-14.28-6.4-14.28-14.28V117.15c0-7.88,6.4-14.28,14.28-14.28h332.13c7.88,0,14.28,6.4,14.28,14.28V346.22z"/>
	<path class="st0" d="M184.81,271.92l-23.43-11.97v-2.49c10.49-5.73,17.86-15.16,21.98-28.11c6.24-3.31,10.23-9.76,10.23-16.98
		v-6.44c0-5.96-2.78-11.5-7.41-15.13c-4.02-24.35-21.01-36.69-50.55-36.69c-1.4,0-2.76,0.05-4.1,0.15
		c-5.56,0.46-13.71-0.03-20.77-4.77c-2.63-1.78-4.62-3.5-5.89-5.11c-2.16-2.76-5.8-3.73-9.03-2.4c-3.23,1.33-5.13,4.56-4.73,8.03
		c0.27,2.41,0.68,5.21,1.29,8.28c1.24,6.28,1.24,6.28-0.5,10.03c-0.66,1.42-1.47,3.16-2.42,5.49c-2.13,5.22-3.65,10.94-4.51,17.05
		c-4.57,3.64-7.3,9.14-7.3,15.05v6.44c0,7.23,3.99,13.67,10.23,16.98c4.12,12.96,11.49,22.39,21.98,28.11v2.42l-24.28,11.97
		c-8.86,4.83-14.37,14.11-14.37,24.2v8.53c0,5.17,0,17.27,64.41,17.27s64.41-12.1,64.41-17.27v-8.02
		C200.02,286.06,194.19,276.62,184.81,271.92z M187.14,303.13c-4.02,2.45-20.37,5.85-51.53,5.85s-47.51-3.4-51.53-5.85v-7.08
		c0-5.38,2.93-10.32,7.42-12.77l24.84-12.24c3.88-1.89,6.38-5.91,6.38-10.23V249.2l-3.89-1.67c-9.77-4.21-16.12-12.24-19.42-24.57
		l-0.92-3.43l-3.39-1.06c-2.69-0.84-4.58-3.35-4.58-6.11v-6.44c0-2.33,1.33-4.5,3.48-5.64l3.02-1.61l0.35-3.41
		c0.64-6.04,1.98-11.61,4.01-16.55c0.86-2.09,1.58-3.66,2.18-4.94c2.18-4.69,2.98-7.11,2.43-12.08c7.57,4.33,16.68,6.17,26.55,5.42
		c1-0.08,2.02-0.12,3.07-0.12c24.11,0,35.89,8.73,38.19,28.33l0.4,3.36l2.99,1.58c2.15,1.15,3.5,3.32,3.5,5.66v6.44
		c0,2.76-1.89,5.26-4.59,6.1l-3.39,1.06l-0.92,3.43c-3.3,12.32-9.65,20.35-19.42,24.57l-3.89,1.68v11.66
		c0,4.31,2.38,8.19,6.21,10.14l24.31,12.42c5.01,2.5,8.12,7.54,8.12,13.13V303.13z"/>
	<path class="st0" d="M232.22,186.6h64.41c3.56,0,6.44-2.88,6.44-6.44c0-3.56-2.88-6.44-6.44-6.44h-64.41
		c-3.56,0-6.44,2.88-6.44,6.44C225.78,183.72,228.66,186.6,232.22,186.6z"/>
	<path class="st0" d="M322.39,186.6h6.44c3.56,0,6.44-2.88,6.44-6.44c0-3.56-2.88-6.44-6.44-6.44h-6.44c-3.56,0-6.44,2.88-6.44,6.44
		C315.95,183.72,318.83,186.6,322.39,186.6z"/>
	<path class="st0" d="M238.66,283.21h-6.44c-3.56,0-6.44,2.88-6.44,6.44c0,3.56,2.88,6.44,6.44,6.44h6.44
		c3.56,0,6.44-2.88,6.44-6.44C245.11,286.09,242.23,283.21,238.66,283.21z"/>
	<path class="st0" d="M277.31,283.21h-12.88c-3.56,0-6.44,2.88-6.44,6.44c0,3.56,2.88,6.44,6.44,6.44h12.88
		c3.56,0,6.44-2.88,6.44-6.44C283.75,286.09,280.87,283.21,277.31,283.21z"/>
	<path class="st0" d="M309.51,283.21h-6.44c-3.56,0-6.44,2.88-6.44,6.44c0,3.56,2.88,6.44,6.44,6.44h6.44
		c3.56,0,6.44-2.88,6.44-6.44C315.95,286.09,313.08,283.21,309.51,283.21z"/>
	<path class="st0" d="M348.16,283.21h-12.88c-3.56,0-6.44,2.88-6.44,6.44c0,3.56,2.88,6.44,6.44,6.44h12.88
		c3.56,0,6.44-2.88,6.44-6.44C354.6,286.09,351.72,283.21,348.16,283.21z"/>
	<path class="st0" d="M369.35,285.08c-1.17,1.22-1.87,2.9-1.87,4.57c0,1.67,0.7,3.35,1.87,4.57c1.22,1.16,2.9,1.87,4.57,1.87
		c1.67,0,3.35-0.71,4.57-1.87c1.16-1.22,1.87-2.9,1.87-4.57c0-1.67-0.71-3.36-1.87-4.57C376.05,282.7,371.73,282.7,369.35,285.08z"
		/>
	<path class="st0" d="M373.92,212.36h-141.7c-3.56,0-6.44,2.88-6.44,6.44s2.88,6.44,6.44,6.44h141.7c3.56,0,6.44-2.88,6.44-6.44
		S377.48,212.36,373.92,212.36z"/>
	<path class="st0" d="M373.92,251.01h-141.7c-3.56,0-6.44,2.88-6.44,6.44c0,3.56,2.88,6.44,6.44,6.44h141.7
		c3.56,0,6.44-2.88,6.44-6.44C380.36,253.89,377.48,251.01,373.92,251.01z"/>
</g>
</svg>
