<?xml version="1.0" encoding="utf-8"?>
<!-- Generator: Adobe Illustrator 23.0.2, SVG Export Plug-In . SVG Version: 6.00 Build 0)  -->
<svg version="1.1" id="Livello_1" xmlns="http://www.w3.org/2000/svg" xmlns:xlink="http://www.w3.org/1999/xlink" x="0px" y="0px"
	 viewBox="0 0 463.01 463.01" style="enable-background:new 0 0 463.01 463.01;" xml:space="preserve">
<style type="text/css">
	.st0{fill:#08090A;}
</style>
<g>
	<g>
		<path class="st0" d="M62.13,235.1c3.76,13.72,13.8,32.2,15.31,35.05c1.84,4.27,3.01,8.7,3.43,13.3l14.14,138.51
			c0.84,8.28,7.78,14.55,16.14,14.55h24.42c8.36,0,15.31-6.27,16.14-14.55l14.14-138.51c0.5-4.68,1.67-9.28,3.6-13.55
			c1.67-3.85-0.08-8.28-3.85-9.95c-3.85-1.67-8.28,0.08-9.95,3.85c-2.51,5.77-4.18,11.88-4.77,18.15l-14.14,138.51
			c-0.08,0.5-0.5,0.92-1,0.92h-24.42c-0.5,0-1-0.42-1-0.92l-14.3-138.59c-0.67-6.27-2.26-12.38-4.77-18.15
			c-0.08-0.25-0.17-0.42-0.33-0.67c-0.08-0.17-10.62-19.15-14.14-31.95c-3.85-14.3-4.93-45.42-1.76-50.94
			c2.51-2.51,3.6-3.51,6.19-5.44c6.61-4.85,14.22-8.78,19.15-11.12l16.9,23.25c1.42,1.92,3.68,3.09,6.11,3.09s4.68-1.17,6.11-3.09
			l20.49-28.19c2.43-3.35,1.67-8.11-1.67-10.62c-3.35-2.43-8.11-1.67-10.62,1.67l-14.39,19.74l-14.22-19.66
			c-2.01-2.84-5.77-3.85-8.95-2.59c-0.59,0.25-15.47,6.27-27.85,15.39c-3.51,2.59-5.19,4.18-8.11,7.11
			C53.44,180.4,59.37,224.89,62.13,235.1z"/>
		<path class="st0" d="M122.69,137.32c0.17,0,0.33,0,0.5,0c0.08,0,0.25,0,0.33,0c0.17,0,0.33,0,0.59,0
			c9.7-0.25,17.9-3.76,23.75-10.37c12.46-14.05,10.71-37.47,10.37-40.4c-1.25-25.84-19.24-34.96-34.21-34.96c-0.25,0-0.5,0-0.67,0
			s-0.42,0-0.67,0c-14.97,0-32.87,9.2-34.21,34.96c-0.25,2.93-2.09,26.35,10.37,40.4C104.79,133.56,112.99,137.15,122.69,137.32z
			 M103.62,87.89c0-0.17,0-0.33,0-0.5c0.84-18.07,12.3-20.74,19.07-20.74h0.33c0.17,0,0.42,0,0.59,0h0.33
			c6.77,0,18.23,2.68,19.07,20.74c0,0.17,0,0.33,0,0.42c0.59,5.35,0.42,20.99-6.69,29.02c-3.09,3.51-7.36,5.27-12.96,5.27
			c-0.08,0-0.08,0-0.17,0l0,0c-5.6-0.08-9.87-1.76-12.96-5.27C103.2,108.88,103.12,93.24,103.62,87.89z"/>
		<path class="st0" d="M298.33,259.85c-3.85,1.67-5.6,6.19-3.85,9.95c1.92,4.35,3.09,8.87,3.6,13.55l14.14,138.51
			c0.84,8.28,7.78,14.55,16.14,14.55h24.42c8.36,0,15.31-6.27,16.14-14.55l14.14-138.51c0.5-4.6,1.59-9.03,3.43-13.3
			c1.51-2.76,11.63-21.24,15.31-35.05c2.76-10.2,8.78-54.7-1.92-65.41c-2.93-2.93-4.6-4.52-8.11-7.11
			c-12.38-9.12-27.18-15.14-27.85-15.39c-3.26-1.34-6.94-0.25-8.95,2.59l-14.39,19.74l-14.47-19.66c-2.43-3.43-7.19-4.1-10.62-1.67
			c-3.35,2.43-4.1,7.19-1.67,10.62l20.49,28.19c1.42,1.92,3.68,3.09,6.11,3.09c2.43,0,4.68-1.17,6.11-3.09l16.9-23.25
			c4.93,2.34,12.55,6.27,19.15,11.12c2.51,1.84,3.6,2.93,6.19,5.44c3.18,5.52,2.09,36.63-1.76,50.94
			c-3.51,12.8-14.05,31.78-14.14,31.95s-0.25,0.42-0.33,0.67c-2.51,5.77-4.18,11.88-4.77,18.15l-14.14,138.51
			c-0.08,0.5-0.5,0.92-1,0.92h-24.42c-0.5,0-1-0.42-1-0.92l-14.14-138.51c-0.67-6.27-2.26-12.38-4.77-18.15
			C306.61,259.85,302.18,258.18,298.33,259.85z"/>
		<path class="st0" d="M339.73,137.32c0.17,0,0.33,0,0.59,0c0.08,0,0.25,0,0.33,0c0.17,0,0.33,0,0.5,0
			c9.7-0.17,17.9-3.76,23.84-10.37c12.46-14.05,10.71-37.47,10.37-40.4c-1.25-25.84-19.15-34.96-34.21-34.96c-0.25,0-0.5,0-0.67,0
			c-0.17,0-0.42,0-0.67,0c-14.97,0-32.87,9.2-34.21,34.96c-0.25,2.93-2.09,26.35,10.37,40.4
			C321.84,133.56,330.03,137.07,339.73,137.32z M320.67,87.89c0-0.17,0-0.33,0-0.5c0.84-18.07,12.3-20.74,19.07-20.74h0.33
			c0.17,0,0.42,0,0.59,0h0.33c6.77,0,18.23,2.68,19.07,20.74c0,0.17,0,0.33,0,0.42c0.59,5.35,0.42,20.99-6.69,29.02
			c-3.09,3.51-7.36,5.19-12.96,5.27l0,0c-0.08,0-0.08,0-0.17,0c-5.6-0.08-9.87-1.76-12.96-5.27
			C320.25,108.88,320.16,93.24,320.67,87.89z"/>
		<path class="st0" d="M169.11,152.88c-11.29,11.29-4.93,58.38-1.92,69.25c4.01,14.64,14.72,34.38,16.31,37.22
			c2.01,4.6,3.26,9.37,3.76,14.3l15.06,147.62c0.84,8.61,8.03,15.06,16.73,15.06h26.01c8.61,0,15.81-6.52,16.73-15.06l15.06-147.62
			c0.5-4.93,1.76-9.79,3.76-14.3c1.59-2.93,12.3-22.58,16.31-37.22c2.93-10.87,9.37-57.96-1.92-69.25
			c-3.09-3.09-4.85-4.77-8.53-7.53c-13.13-9.7-28.94-16.06-29.61-16.39c-3.26-1.34-6.94-0.25-8.95,2.59l-15.98,21.66l-15.72-21.66
			c-2.01-2.84-5.77-3.85-8.95-2.59c-0.67,0.25-16.39,6.69-29.61,16.39C173.96,148.11,172.12,149.78,169.11,152.88z M179.98,163.42
			c2.76-2.76,3.93-3.85,6.69-5.85c7.19-5.35,15.56-9.62,20.91-12.13l18.23,25.09c1.42,1.92,3.68,3.09,6.11,3.09
			c2.43,0,4.68-1.17,6.11-3.09l18.23-25.09c5.27,2.51,13.63,6.77,20.91,12.13c2.76,2.01,3.93,3.09,6.69,5.85
			c3.51,5.69,2.43,39.23-1.84,54.7c-3.76,13.72-14.97,33.96-15.14,34.12c-0.08,0.17-0.25,0.42-0.33,0.67
			c-2.68,6.11-4.43,12.55-5.1,19.24l-15.06,147.62c-0.08,0.84-0.75,1.42-1.59,1.42h-26.01c-0.84,0-1.51-0.59-1.59-1.42
			l-15.06-147.62c-0.67-6.61-2.34-13.13-5.1-19.24c-0.08-0.25-0.17-0.42-0.33-0.67c-0.08-0.17-11.38-20.49-15.14-34.21
			C177.56,202.64,176.47,169.1,179.98,163.42z"/>
		<path class="st0" d="M231.17,117.5c0.17,0,0.42,0,0.59,0c0.08,0,0.33,0,0.42,0c0.17,0,0.33,0,0.5,0
			c10.37-0.17,18.74-3.85,25.01-10.96c13.22-14.8,11.21-39.73,10.96-42.74C267.3,36.62,248.48,27,232.68,27c-0.25,0-0.5,0-0.75,0
			c-0.17,0-0.42,0-0.75,0c-15.72,0-34.63,9.62-35.97,36.8c-0.25,3.01-2.26,27.85,10.96,42.66
			C212.44,113.57,220.88,117.25,231.17,117.5z M210.34,65.22c0-0.17,0-0.33,0-0.5c0.92-20.41,14.89-22.58,20.83-22.58h0.42
			c0.17,0,0.42,0,0.59,0h0.42c5.94,0,19.91,2.17,20.83,22.58c0,0.17,0,0.33,0,0.42c0.59,5.77,0.5,22.67-7.19,31.28
			c-3.43,3.85-8.11,5.77-14.22,5.77c-0.08,0-0.17,0-0.25,0c-6.11-0.08-10.79-1.92-14.22-5.77
			C209.84,87.89,209.76,70.99,210.34,65.22z"/>
	</g>
</g>
</svg>
