<?xml version="1.0" encoding="utf-8"?>
<!-- Generator: Adobe Illustrator 23.0.2, SVG Export Plug-In . SVG Version: 6.00 Build 0)  -->
<svg version="1.1" id="Livello_1" xmlns="http://www.w3.org/2000/svg" xmlns:xlink="http://www.w3.org/1999/xlink" x="0px" y="0px"
	 viewBox="0 0 463.01 463.01" style="enable-background:new 0 0 463.01 463.01;" xml:space="preserve">
<g>
	<g>
		<g>
			<g>
				<path d="M295.84,427.41H37.5v-58.3c0-19.41,15.79-35.2,35.19-35.2h187.95c19.4,0,35.19,15.79,35.19,35.2V427.41z M51.42,413.49
					h230.5v-44.39c0-11.73-9.54-21.28-21.28-21.28H72.69c-11.73,0-21.28,9.55-21.28,21.28V413.49z"/>
			</g>
		</g>
	</g>
	<g>
		<g>
			<g>
				<path d="M403.19,381.32c-6.49,0-12.59-2.52-17.17-7.11L219.43,207.63l-24.38,24.33c3.19,7.59,1.72,16.72-4.39,22.89
					c-8.12,8.12-21.36,8.14-29.52,0.05l-71.42-71.47c-3.94-3.9-6.13-9.15-6.13-14.73c0-5.59,2.19-10.83,6.16-14.76
					c3.87-3.92,9.11-6.11,14.7-6.11h0c2.85,0,5.61,0.57,8.14,1.65l83-82.94c-1.09-2.55-1.67-5.32-1.67-8.18
					c0-5.59,2.19-10.83,6.16-14.76c7.75-7.84,21.6-7.9,29.47,0.05l71.42,71.36c8.07,8.15,8.07,21.38,0.03,29.5
					c-6.17,6.17-15.3,7.7-22.93,4.47l-24.34,24.3l166.63,166.64c4.58,4.58,7.11,10.67,7.11,17.14c0,6.47-2.52,12.56-7.11,17.15
					C415.77,378.8,409.68,381.32,403.19,381.32z M219.43,187.95l176.42,176.42c3.91,3.91,10.75,3.91,14.65,0
					c1.96-1.95,3.03-4.55,3.03-7.3c0-2.75-1.08-5.34-3.03-7.3v0L234.03,173.28l42.69-42.61l4.9,4.32c2.69,2.38,6.97,2.25,9.51-0.29
					c2.72-2.75,2.72-7.09-0.03-9.87l-71.42-71.36c-2.65-2.68-7.16-2.65-9.76-0.03c-1.37,1.35-2.09,3.08-2.09,4.92
					c0,1.83,0.71,3.55,2.01,4.84l0.02,0.02c0,0,0,0,0,0l0.01,0.01l-4.9,4.94l4.33,4.33l-90.72,90.66l-4.2-4.2l-5.08,4.82
					c-2.59-2.62-7.14-2.63-9.73,0c-1.36,1.35-2.09,3.08-2.09,4.92c0,1.84,0.72,3.57,2.03,4.87l71.42,71.47
					c2.71,2.69,7.14,2.7,9.84,0c2.72-2.75,2.72-7.09-0.02-9.86l4.93-4.92l-4.31-4.32L219.43,187.95z"/>
			</g>
		</g>
	</g>
</g>
</svg>
