<?xml version="1.0" encoding="utf-8"?>
<!-- Generator: Adobe Illustrator 23.0.2, SVG Export Plug-In . SVG Version: 6.00 Build 0)  -->
<svg version="1.1" id="Livello_1" xmlns="http://www.w3.org/2000/svg" xmlns:xlink="http://www.w3.org/1999/xlink" x="0px" y="0px"
	 viewBox="0 0 463.01 463.01" style="enable-background:new 0 0 463.01 463.01;" xml:space="preserve">
<style type="text/css">
	.st0{fill:#08090A;}
</style>
<g>
	<path class="st0" d="M220.52,78.43c-6.71-3.8-14.67-3.68-21.27,0.3c-0.32,0.19-0.62,0.41-0.89,0.64l-93.26,78.89H31.92
		c-3.81,0-6.88,3.08-6.88,6.88v130.76c0,1.83,0.72,3.58,2.02,4.87c1.29,1.29,3.04,2.02,4.87,2.02l73.02-0.03l93.21,85.62
		c0.34,0.32,0.72,0.59,1.11,0.83c3.39,2.04,7.14,3.07,10.89,3.07c3.56-0.01,7.11-0.92,10.38-2.77c6.88-3.88,10.98-10.97,10.98-18.97
		V97.4C231.51,89.4,227.4,82.32,220.52,78.43z M217.74,370.53c0,2.97-1.49,5.57-3.98,6.99c-1.07,0.6-3.77,1.76-6.88,0.18
		l-92.37-84.85v-31.36c0-3.81-3.08-6.88-6.88-6.88c-3.81,0-6.88,3.08-6.88,6.88v27.5l-61.94,0.03v-117h61.94v27.53
		c0,3.81,3.08,6.88,6.88,6.88c3.81,0,6.88-3.08,6.88-6.88v-31.22l92.26-78.05c3.17-1.67,5.93-0.48,6.99,0.12
		c2.49,1.41,3.98,4.02,3.98,6.99V370.53z"/>
	<path class="st0" d="M383.1,230.53c0-57.45-36.59-108.47-91.05-126.96c-3.59-1.22-7.51,0.71-8.73,4.31
		c-1.22,3.59,0.71,7.51,4.31,8.73c48.87,16.59,81.71,62.37,81.71,113.92c0,51.5-32.77,97.29-81.55,113.93
		c-3.59,1.23-5.52,5.13-4.29,8.74c0.98,2.86,3.65,4.66,6.51,4.66c0.74,0,1.49-0.12,2.22-0.37
		C346.58,338.94,383.1,287.93,383.1,230.53z"/>
	<path class="st0" d="M330.98,68.9c-3.5-1.47-7.54,0.14-9.03,3.65c-1.48,3.5,0.15,7.54,3.65,9.03
		c59.9,25.42,98.61,83.89,98.61,148.95c0,67.29-40.56,126.5-103.34,150.82c-3.54,1.38-5.31,5.36-3.93,8.91
		c1.05,2.73,3.66,4.4,6.42,4.4c0.83,0,1.67-0.14,2.48-0.46c68.11-26.41,112.13-90.65,112.13-163.66
		C437.98,159.93,395.97,96.49,330.98,68.9z"/>
	<path class="st0" d="M321.15,230.53c0-41.1-27.59-77.78-67.1-89.21c-3.65-1.04-7.46,1.05-8.52,4.71c-1.05,3.65,1.05,7.47,4.71,8.52
		c33.65,9.72,57.15,40.97,57.15,75.98s-23.5,66.26-57.15,75.98c-3.65,1.05-5.76,4.87-4.71,8.52c0.87,3.01,3.62,4.98,6.61,4.98
		c0.63,0,1.27-0.09,1.91-0.27C293.57,308.3,321.15,271.62,321.15,230.53z"/>
</g>
</svg>
