<?xml version="1.0" encoding="utf-8"?>
<!-- Generator: Adobe Illustrator 23.0.2, SVG Export Plug-In . SVG Version: 6.00 Build 0)  -->
<svg version="1.1" id="Livello_1" xmlns="http://www.w3.org/2000/svg" xmlns:xlink="http://www.w3.org/1999/xlink" x="0px" y="0px"
	 viewBox="0 0 463.01 463.01" style="enable-background:new 0 0 463.01 463.01;" xml:space="preserve">
<style type="text/css">
	.st0{fill:#08090A;}
</style>
<path class="st0" d="M118.76,30.11c-10.36,0-20.31,4.43-27.31,12.17c-6.88,7.61-10.27,17.81-9.35,28.01h-0.17v327.83
	c0,18.62,15.15,33.76,33.76,33.76h267.57V103.77V90.38V30.11H118.76z M95.32,398.12V97.06c5.6,4.21,12.56,6.71,20.09,6.71v314.69
	C104.31,418.31,95.32,409.26,95.32,398.12z M369.87,418.49H128.8V103.77h20.09v168.75c0,0.72,0.07,1.41,0.21,2.08
	c0.02,0.09,0.06,0.18,0.09,0.27c0.13,0.58,0.3,1.15,0.53,1.68c0.03,0.07,0.07,0.13,0.11,0.19c0.25,0.56,0.56,1.1,0.9,1.59
	c0.02,0.03,0.05,0.06,0.07,0.09c0.38,0.53,0.81,1.01,1.29,1.45c0.01,0.01,0.02,0.02,0.03,0.03c0.03,0.02,0.05,0.03,0.08,0.05
	c1.77,1.6,4.12,2.58,6.76,2.58c2.76,0,5.3-1.15,7.16-3.09c0.54-0.53,1.01-1.12,1.41-1.79l28.24-47.06L224,277.69
	c0.73,1.21,1.71,2.16,2.81,2.95c1.66,1.2,3.63,1.93,5.76,1.93c1.28,0,2.48-0.25,3.59-0.67c0.03-0.01,0.07-0.02,0.11-0.03
	c1.16-0.44,2.2-1.1,3.09-1.92c0.01-0.01,0.03-0.01,0.04-0.03c0.01-0.01,0.02-0.02,0.03-0.03c0.48-0.44,0.9-0.92,1.29-1.45
	c0.03-0.03,0.05-0.06,0.08-0.1c0.35-0.5,0.65-1.03,0.9-1.59c0.03-0.07,0.07-0.13,0.11-0.2c0.23-0.53,0.39-1.08,0.52-1.65
	c0.03-0.11,0.07-0.2,0.09-0.31c0.13-0.67,0.21-1.37,0.21-2.08V103.77h127.23V418.49z M246.78,90.38l13.39-26.78h-95.33l-13.39,26.78
	h-31.27c-12.68,0-23.54-9.23-24.73-21.03c-0.68-6.68,1.43-13.1,5.94-18.09c4.45-4.94,10.79-7.76,17.37-7.76h251.11v6.7h-33.48
	c-3.7,0-6.7,2.99-6.7,6.7c0,3.7,2.99,6.7,6.7,6.7h33.48v6.7h-26.78c-3.7,0-6.7,2.99-6.7,6.7c0,3.7,2.99,6.7,6.7,6.7h26.78v6.7
	H246.78z"/>
</svg>
