<?xml version="1.0" encoding="utf-8"?>
<!-- Generator: Adobe Illustrator 23.0.2, SVG Export Plug-In . SVG Version: 6.00 Build 0)  -->
<svg version="1.1" id="Livello_1" xmlns="http://www.w3.org/2000/svg" xmlns:xlink="http://www.w3.org/1999/xlink" x="0px" y="0px"
	 viewBox="0 0 463.01 463.01" style="enable-background:new 0 0 463.01 463.01;" xml:space="preserve">
<path d="M381.05,353.77c-6.36-30.8-19.68-37.21-21.6-37.98l0.03,0.17c-0.09-0.09-0.19-0.18-0.28-0.27
	c-6.73-6.36-13.5-10.46-18.26-12.88l-15.63-6.68l-27.68-11.53l-26.2-17.28c-0.01-0.01-0.02-0.01-0.03-0.02v-9.24
	c7.91-4.1,14.94-9.65,20.74-16.3c0,0,6.58-5.61,10.54-16.05c1.59-3.34,2.91-6.83,3.96-10.44l5.22-3.44c0,0,9.09-4.93,16.43-13.77
	v-1.43c0,0,0-0.01,0-0.01v0c1.58-1.64,2.99-3.44,4.2-5.38c0.16,0.02,0.33,0.03,0.49,0.06c2.61-4.66,4.42-10.02,4.46-16.04
	c0.02-0.47,0.04-0.94,0.04-1.41c0-8.61-3.33-16.46-8.77-22.33v-32.15c0-14.68-3.44-28.56-9.53-40.91
	c-3.79-8.81-9.14-14.85-9.14-14.85c-9.01-11.95-20.83-21.66-34.47-28.14c-12.91-7.49-15.49-5.72-15.49-5.72
	c-7.73-2.09-15.85-3.23-24.23-3.23h-7.05c-8.83,0-17.36,1.27-25.46,3.58c0,0-6.45,1.38-15.4,5.81c0.01,0.03,0.02,0.06,0.03,0.09
	c-8.09,3.98-15.51,9.11-22.07,15.16c-0.08,0.08-0.16,0.15-0.24,0.22c-1.81,1.68-3.52,3.47-5.19,5.29
	c-9.26,10.23-17.7,24.16-22.44,43.1c-0.01,0.04-0.02,0.08-0.03,0.12l-1.83,12.86c-0.16,2.19-0.24,4.4-0.24,6.63v32.5
	c-3.27,3.63-5.75,8-7.15,12.82l-1.3,9.17c0,0,1.9,12.3,6.3,19.21c0.42,0.58,0.79,1.19,1.25,1.74c4.08,4.86,9.05,12.8,16.44,18.02
	c0-0.33,0.03-0.66-0.01-0.99l7.25,4.78c0.79,2.52,1.73,4.97,2.78,7.35c0,0,2.26,8.42,10.28,16.58c5.99,7.2,13.4,13.18,21.79,17.52
	v8.59l-26.44,17.45c-0.36,0.09-0.72,0.21-1.07,0.35l-28.03,11.68c0,0-6.04,1.24-15.64,6.66l0,0.02c-0.27,0.13-0.6,0.33-0.87,0.48
	c-5,2.89-10.89,6.88-17.39,12.4c-0.09,0.09-0.19,0.18-0.28,0.27l0-0.01c-12.29,10.57-18.65,24.56-21.65,37.82h0.08
	c-0.75,3.12-1.34,6.43-1.76,9.9c-0.02,0.13-0.04,0.27-0.05,0.4c-0.19,1.6-0.33,3.24-0.43,4.92c-0.02,0.38-0.04,0.75-0.06,1.13
	c-0.09,1.67-0.15,3.36-0.15,5.1v52.83c0,4.56,3.69,8.26,8.25,8.26h98.01h21.68h49.43h0.02h20.02h4.65c4.56,0,8.25-3.69,8.25-8.25
	c0-4.56-3.69-8.25-8.25-8.25h-4.65h-13.01l-9.96-61.75l3.89-10.37l5.88,4.33c1.43,1.05,3.15,1.61,4.89,1.61
	c0.66,0,1.32-0.08,1.98-0.24c2.38-0.59,4.37-2.2,5.44-4.4l22.4-46.05l29.89,12.46c0.18,0.07,0.36,0.14,0.55,0.21
	c0.38,0.13,37.81,13.24,37.81,59.62v44.59h-34.22v-47c0-4.56-3.69-8.25-8.25-8.25c-4.56,0-8.25,3.69-8.25,8.25v47h-8.73
	c-4.56,0-8.25,3.69-8.25,8.25c0,4.56,3.69,8.25,8.25,8.25h67.7c4.56,0,8.25-3.8,8.25-8.35v-52.74
	C383.5,367.3,382.59,360.17,381.05,353.77z M320.97,173.84c0,4.16-1.57,7.95-4.13,10.85c-1.54,0.65-2.83,1.75-3.73,3.13
	c-1.14,0.7-2.37,1.28-3.67,1.69v-31.34C316.11,160.26,320.97,166.49,320.97,173.84z M155.52,189.52
	c-6.68-2.08-11.54-8.32-11.54-15.67c0-7.35,4.86-13.59,11.54-15.67V189.52z M163.81,134.63c-0.02,0-0.03,0-0.04,0
	c-0.28,0-0.56,0.01-0.84,0.04c-0.07,0.01-0.13,0.02-0.19,0.03c-0.21,0.03-0.42,0.05-0.63,0.1c-0.08,0.02-0.15,0.04-0.23,0.06
	c-0.19,0.04-0.38,0.09-0.56,0.14c-0.1,0.03-0.19,0.07-0.29,0.1c-0.16,0.06-0.31,0.11-0.47,0.17c-0.12,0.05-0.24,0.11-0.36,0.17
	c-0.12,0.06-0.24,0.11-0.36,0.17c-0.12,0.07-0.23,0.14-0.35,0.21c-0.11,0.07-0.22,0.13-0.33,0.2c-0.11,0.08-0.22,0.17-0.33,0.25
	c-0.1,0.07-0.21,0.15-0.3,0.22c-0.11,0.09-0.2,0.18-0.3,0.27c-0.09,0.09-0.19,0.17-0.28,0.26c-0.09,0.09-0.18,0.2-0.27,0.29
	c-0.09,0.1-0.18,0.19-0.27,0.29c-0.08,0.1-0.16,0.21-0.23,0.31c-0.08,0.11-0.17,0.21-0.24,0.32c-0.07,0.1-0.13,0.22-0.2,0.33
	c-0.07,0.12-0.15,0.23-0.21,0.35c-0.06,0.11-0.11,0.23-0.17,0.35c-0.06,0.12-0.12,0.24-0.18,0.37c-0.05,0.12-0.09,0.24-0.14,0.37
	c-0.05,0.13-0.1,0.26-0.14,0.39c-0.04,0.13-0.07,0.26-0.1,0.38c-0.03,0.14-0.08,0.27-0.1,0.41c0,0.03-0.01,0.05-0.01,0.08
	c-1.1,0.16-2.18,0.37-3.24,0.64v-22.56c0-42.11,34.26-76.36,76.36-76.36h7.05v0c42.11,0,76.36,34.26,76.36,76.36v22.48
	c-0.96-0.23-1.93-0.42-2.93-0.56c-0.02-0.11-0.05-0.21-0.07-0.32c-0.03-0.14-0.07-0.28-0.11-0.41c-0.04-0.14-0.09-0.27-0.13-0.4
	c-0.04-0.12-0.08-0.23-0.13-0.34c-0.06-0.14-0.12-0.28-0.18-0.41c-0.05-0.1-0.1-0.21-0.15-0.31c-0.07-0.13-0.14-0.26-0.22-0.39
	c-0.06-0.1-0.12-0.2-0.18-0.3c-0.07-0.12-0.16-0.23-0.24-0.34c-0.08-0.1-0.15-0.21-0.23-0.31c-0.08-0.1-0.16-0.19-0.25-0.29
	c-0.09-0.11-0.19-0.21-0.29-0.32c-0.08-0.08-0.16-0.16-0.25-0.24c-0.11-0.1-0.22-0.21-0.34-0.31c-0.08-0.07-0.17-0.14-0.26-0.21
	c-0.12-0.09-0.24-0.19-0.37-0.27c-0.1-0.07-0.2-0.13-0.3-0.19c-0.12-0.08-0.24-0.15-0.37-0.23c-0.12-0.07-0.24-0.13-0.37-0.19
	c-0.11-0.06-0.22-0.11-0.34-0.16c-0.15-0.07-0.3-0.12-0.46-0.18c-0.1-0.04-0.19-0.07-0.29-0.11c-0.17-0.06-0.35-0.1-0.53-0.15
	c-0.07-0.02-0.14-0.04-0.21-0.06c-24.61-5.6-32.15-36.92-32.22-37.21c-0.71-3.16-3.22-5.61-6.39-6.26
	c-3.18-0.65-6.44,0.62-8.34,3.25C227.41,134.25,164.76,134.63,163.81,134.63z M172.02,195.67v-44.9
	c17.7-1.28,59.56-7.26,87.77-35.23c5.3,11.53,15.39,26.84,33.16,33.46v46.67h0c0,29.63-24.11,53.74-53.74,53.74h-13.45
	C196.13,249.41,172.02,225.3,172.02,195.67z M232.14,306.25l-22.1-21.52c0.01-0.16,0.02-0.31,0.02-0.46v-13.09c0-0.01,0-0.01,0-0.02
	v-7.04c5.05,1.16,10.3,1.79,15.7,1.79h13.45c5.24,0,10.33-0.59,15.24-1.68c0.15-0.01,0.3-0.02,0.45-0.02v18.42L232.14,306.25z
	 M244.35,337.53l-4.29,11.43h-15.37l-4.85-11.58l12.16-8.95L244.35,337.53z M193.81,286.25c-0.68,2.75,0.07,5.77,2.24,7.89
	l23.54,22.93l-21.46,15.79l-18.22-37.45L193.81,286.25z M200.74,419.81h-14.66h-39.04v0v-47c0-4.56-3.69-8.25-8.25-8.25
	c-4.56,0-8.25,3.69-8.25,8.25v47H96.32v-44.59c0-45.98,36.3-59.09,37.81-59.62c0.18-0.06,0.37-0.13,0.55-0.21l30.44-12.69
	l22.51,46.28c1.07,2.2,3.06,3.81,5.44,4.4c0.65,0.16,1.32,0.24,1.97,0.24c1.74,0,3.46-0.55,4.89-1.61l6.22-4.58l4.52,10.78
	L200.74,419.81z M217.45,419.81l8.77-54.35h12.52l8.77,54.35H217.45z M265.84,332.87l-6.5-4.78c-0.02-0.01-0.04-0.03-0.06-0.04
	l-14.77-10.87l24.57-25.51c1.28-1.32,2.01-2.97,2.23-4.66l12.74,8.41L265.84,332.87z"/>
</svg>
