<?xml version="1.0" encoding="utf-8"?>
<!-- Generator: Adobe Illustrator 23.0.2, SVG Export Plug-In . SVG Version: 6.00 Build 0)  -->
<svg version="1.1" id="ba-servizi" xmlns="http://www.w3.org/2000/svg" xmlns:xlink="http://www.w3.org/1999/xlink" x="0px" y="0px"
	 viewBox="0 0 463.01 463.01" style="enable-background:new 0 0 463.01 463.01;" xml:space="preserve">
<style type="text/css">
	.st0{fill:#08090A;}
</style>
<g>
	<g>
		<path class="st0" d="M379.66,74.64c-11.58,0-21.55,7.04-29.93,18.71L72.11,190.89c-5.31-7.5-11.94-11.67-19.26-11.67
			c-17.39,0-30.5,22.48-30.5,52.29s13.11,52.29,30.5,52.29c7.32,0,13.95-4.17,19.26-11.67l51.6,18.13l-9.54,19.73
			c-0.08,0.16-0.14,0.32-0.21,0.49c-2.93,5.24-4.47,11.06-4.47,16.89c0,11.45,5.53,21.95,14.91,28.49c0.68,0.67,1.52,1.21,2.57,1.61
			c3.55,2.06,7.29,3.46,9.63,3.74l60.64,22.74c5.22,2.9,11.01,4.43,16.83,4.43c12.15,0,23.23-6.24,29.65-16.68l-0.13-0.08
			c0.4-0.53,0.76-1.06,1.03-1.57c0.78-1.42,1.47-2.87,1.79-3.79l13.12-28.28l90.19,31.69c8.38,11.66,18.36,18.71,29.93,18.71
			c39.63,0,61-80.83,61-156.87S419.28,74.64,379.66,74.64z M230.35,359.54c-0.28,0.74-0.63,1.44-1,2.13
			c-0.03,0.07-0.17,0.35-0.32,0.67c-0.05,0.08-0.1,0.15-0.15,0.23c-4.88,7.96-15.44,10.82-23.75,5.8c-0.75-0.46-1.57-0.79-2.42-1
			l-61.48-22.9c-1.86-0.34-3.71-1.04-5.51-2.09c-0.09-0.06-0.22-0.12-0.37-0.19c-0.02-0.02-0.03-0.03-0.04-0.03
			c-5.24-3.22-8.37-8.75-8.37-14.79c0-3.11,0.87-6.13,2.59-8.97c0.31-0.53,0.58-1.1,0.77-1.69l9.98-20.65l102.76,36.1L230.35,359.54
			z M60.09,249.43c-4.55-1.63-9.51,0.77-11.11,5.34c-1.6,4.53,0.79,9.51,5.33,11.1c-0.55,0.33-1.05,0.5-1.46,0.5
			c-4.61,0-13.07-13.23-13.07-34.86s8.46-34.86,13.07-34.86c0.41,0,0.91,0.17,1.46,0.5c-4.54,1.59-6.93,6.57-5.33,11.1
			c1.26,3.59,4.62,5.83,8.22,5.83c0.96,0,1.93-0.15,2.88-0.49l277.45-97.48c-12.39,30.47-18.89,73.62-18.89,115.41
			s6.49,84.94,18.89,115.41L60.09,249.43z M379.66,370.94c-18.2,0-43.57-53.05-43.57-139.44s25.38-139.44,43.57-139.44
			c18.2,0,43.57,53.05,43.57,139.44S397.85,370.94,379.66,370.94z"/>
	</g>
</g>
</svg>
