<svg xmlns="http://www.w3.org/2000/svg" xmlns:xlink="http://www.w3.org/1999/xlink">
	<defs>
		<svg version="1.1" id="ba-amministrazione-trasparente" x="0px" y="0px"
			 viewBox="0 0 463.01 463.01" style="enable-background:new 0 0 463.01 463.01;" xml:space="preserve">

<g>
	<g>
		<path class="st0" d="M434.98,221.91c-0.85-1.08-21.26-26.68-56.25-52.38c-46.76-34.35-97.63-52.51-147.12-52.51
			c-49.49,0-100.37,18.16-147.12,52.51c-34.99,25.7-55.4,51.31-56.25,52.38L21,231.06l7.23,9.15c0.85,1.08,21.26,26.68,56.25,52.39
			c46.76,34.35,97.63,52.51,147.12,52.51c49.49,0,100.37-18.16,147.12-52.51c34.99-25.71,55.4-51.31,56.25-52.39l7.24-9.15
			L434.98,221.91z M231.61,310.95c-44.05,0-79.89-35.84-79.89-79.89c0-6.9,0.88-13.6,2.53-19.99l-18.24-3.07
			c-1.79,7.4-2.73,15.12-2.73,23.06c0,28.46,12.16,54.12,31.54,72.1c-24.95-9.22-46.17-22.15-62.19-33.85
			c-19.84-14.49-34.71-29.15-43.19-38.25c8.48-9.1,23.35-23.76,43.19-38.25c16.01-11.7,37.23-24.63,62.19-33.85l12.24,13.79
			c14.29-13.38,33.48-21.59,54.56-21.59c44.05,0,79.89,35.84,79.89,79.89S275.66,310.95,231.61,310.95z M360.59,269.3
			c-16.02,11.7-37.23,24.63-62.19,33.85c19.38-17.97,31.54-43.64,31.54-72.1s-12.16-54.12-31.54-72.1
			c24.95,9.22,46.17,22.15,62.19,33.85c19.84,14.49,34.71,29.15,43.19,38.25C395.29,240.16,380.43,254.81,360.59,269.3z"/>
		<path class="st0" d="M180.77,215.53c-1.5,4.91-2.31,10.13-2.31,15.53c0,29.35,23.8,53.15,53.15,53.15
			c29.35,0,53.15-23.8,53.15-53.15s-23.8-53.15-53.15-53.15c-14.3,0-27.27,5.66-36.82,14.84L221,222.3L180.77,215.53z"/>
	</g>
</g>
</svg>
		<svg version="1.1" id="ba-avvisi-bandi-concorsi" xmlns="http://www.w3.org/2000/svg" xmlns:xlink="http://www.w3.org/1999/xlink" x="0px" y="0px"
			 viewBox="0 0 463.01 463.01" style="enable-background:new 0 0 463.01 463.01;" xml:space="preserve">

<path class="st0" d="M164.92,199.49c2.36,0.01,4.59-1.06,6.07-2.89c0.54-0.66,1.09-1.32,1.65-1.96c2.82-3.25,2.47-8.17-0.78-10.99
	c-3.25-2.82-8.17-2.47-10.99,0.78l0,0c-0.67,0.77-1.34,1.57-1.98,2.37c-2.71,3.34-2.2,8.24,1.14,10.95
	C161.4,198.88,163.13,199.49,164.92,199.49z"/>
			<path class="st0" d="M194.27,177.2c38.18-20.89,86.07-6.87,106.96,31.31c6.34,11.59,9.67,24.59,9.67,37.8v24.04
	c-0.01,23.91,4.1,47.64,12.15,70.15c1.32,4.1,5.71,6.35,9.81,5.02c4.1-1.32,6.35-5.71,5.02-9.81c-0.05-0.15-0.1-0.31-0.16-0.46
	c-7.44-20.83-11.24-42.79-11.22-64.91v-24.04c-0.06-44.82-31.58-83.43-75.48-92.46l9.15-80.77c1.76-15.48-9.36-29.46-24.85-31.22
	c-15.48-1.76-29.46,9.36-31.22,24.85c-0.24,2.12-0.24,4.26,0,6.38l9.14,80.8c-9.25,1.87-18.16,5.12-26.44,9.65
	c-3.85,1.92-5.42,6.6-3.5,10.45s6.6,5.42,10.45,3.5C193.92,177.4,194.1,177.3,194.27,177.2L194.27,177.2z M219.57,71.33
	c-0.43-3.57,0.71-7.16,3.12-9.83c4.88-5.2,13.06-5.46,18.26-0.57c0.2,0.19,0.39,0.38,0.57,0.57c2.41,2.67,3.55,6.26,3.12,9.83
	l-9.11,80.78c-1.14-0.04-2.26-0.17-3.41-0.17c-1.15,0-2.28,0.07-3.42,0.11L219.57,71.33z"/>
			<path class="st0" d="M363.65,362.45H131.89c14.09-28.65,21.42-60.16,21.44-92.09v-24.04c-0.01-8.34,1.3-16.63,3.9-24.56
	c1.44-4.05-0.67-8.51-4.73-9.96s-8.51,0.67-9.96,4.73c-0.04,0.13-0.09,0.25-0.12,0.38c-3.11,9.49-4.69,19.42-4.68,29.41v24.04
	c-0.03,32.17-8.09,63.83-23.45,92.09h-13.71c-4.3,0-7.79,3.49-7.79,7.79s3.49,7.79,7.79,7.79h82.83
	c4.26,26.9,29.53,45.25,56.43,40.99c21.1-3.34,37.65-19.89,40.99-40.99h82.82c4.3,0,7.79-3.49,7.79-7.79
	S367.95,362.45,363.65,362.45z M232.11,404.04c-15.66-0.02-29.26-10.78-32.89-26.01H265C261.37,393.27,247.77,404.02,232.11,404.04z
	"/>
</svg>
		<svg version="1.1" id="ba-bilancio" xmlns="http://www.w3.org/2000/svg" xmlns:xlink="http://www.w3.org/1999/xlink" x="0px" y="0px"
			 viewBox="0 0 463.01 463.01" style="enable-background:new 0 0 463.01 463.01;" xml:space="preserve">
<g>
	<g>
		<path d="M125.1,174.5c5.6,0,9.73-2.16,12.39-6.46c2.65-4.3,4.01-10.1,4.07-17.42c-1.51,1.91-3.68,3.71-6.52,5.38
			c-2.83,1.67-5.97,2.51-9.41,2.51c-5.67,0-10.42-2.13-14.25-6.4c-3.83-4.27-5.74-9.94-5.74-17.01c0-7.07,2.06-12.76,6.19-17.06
			c4.13-4.3,9.34-6.45,15.61-6.45c10.13,0,17.13,5.12,20.99,15.37c2.17,5.88,3.25,12.5,3.25,19.88c0,7.38-0.69,13.52-2.08,18.44
			c-1.39,4.91-3.29,8.81-5.7,11.68c-4.71,5.6-10.48,8.4-17.33,8.4c-6.84,0-13.04-2.43-18.59-7.27l5.34-8.91
			c1.39,1.37,3.24,2.59,5.57,3.69C121.22,173.95,123.29,174.5,125.1,174.5z M127.05,147.86c3.65,0,6.69-1.14,9.14-3.43
			c2.44-2.28,3.67-5.26,3.67-8.91c0-3.65-1.18-6.79-3.53-9.42c-2.35-2.63-5.29-3.94-8.82-3.94s-6.44,1.18-8.73,3.53
			c-2.29,2.35-3.43,5.38-3.43,9.07c0,3.69,1.04,6.8,3.11,9.32C120.53,146.6,123.4,147.86,127.05,147.86z"/>
		<path d="M201.01,112.82v10.96h-26.69v17.62c2.65-1.64,5.67-2.46,9.05-2.46c5.91,0,11.01,2.01,15.29,6.04
			c4.29,4.03,6.43,9.49,6.43,16.39s-2.23,12.62-6.69,17.16c-4.47,4.54-9.95,6.82-16.47,6.82c-8.5,0-15.29-3.21-20.36-9.63l5.71-8.81
			c0.48,0.55,1.13,1.2,1.94,1.95c0.81,0.75,2.49,1.76,5.02,3.02c2.53,1.26,5.3,1.9,8.32,1.9s5.76-1.03,8.23-3.08
			c2.47-2.05,3.71-5.04,3.71-8.96c0-3.93-1.31-6.97-3.93-9.12c-2.63-2.16-5.94-3.23-9.95-3.23c-4.01,0-7.83,1.13-11.44,3.38
			l-4.53-5.53v-34.42H201.01z"/>
		<path d="M221.18,175.26c-4.28-6.73-6.42-15.73-6.42-27c0-11.27,2.14-20.27,6.42-27c4.29-6.72,10.74-10.09,19.36-10.09
			c8.62,0,15.08,3.36,19.36,10.09c4.28,6.73,6.42,15.73,6.42,27c0,11.27-2.14,20.27-6.42,27c-4.29,6.73-10.74,10.09-19.36,10.09
			C231.92,185.36,225.47,181.99,221.18,175.26z M228.83,128.9c-2.5,4.92-3.76,11.37-3.76,19.36s1.25,14.44,3.76,19.36
			c2.5,4.92,6.41,7.37,11.71,7.37c5.31,0,9.18-2.44,11.63-7.32c2.44-4.88,3.67-11.35,3.67-19.41c0-8.06-1.22-14.53-3.67-19.41
			c-2.44-4.88-6.32-7.32-11.63-7.32S231.34,123.99,228.83,128.9z"/>
		<path d="M303.7,122.45c-5.61,0-9.74,2.15-12.4,6.45c-2.65,4.3-4.01,10.11-4.06,17.42c1.5-1.91,3.67-3.7,6.51-5.38
			c2.83-1.67,5.97-2.51,9.41-2.51c5.67,0,10.42,2.13,14.25,6.4c3.83,4.27,5.74,9.94,5.74,17c0,7.07-2.07,12.76-6.2,17.06
			c-4.13,4.31-9.34,6.46-15.61,6.46c-10.13,0-17.13-5.12-20.98-15.37c-2.17-5.87-3.26-12.5-3.26-19.88c0-7.37,0.69-13.52,2.08-18.44
			c1.38-4.92,3.28-8.81,5.7-11.68c4.71-5.6,10.48-8.4,17.33-8.4c6.85,0,13.05,2.43,18.59,7.27l-5.34,8.91
			c-1.38-1.37-3.24-2.6-5.56-3.69C307.57,123,305.51,122.45,303.7,122.45z M301.76,149.09c-3.65,0-6.7,1.14-9.14,3.43
			c-2.44,2.29-3.67,5.26-3.67,8.91c0,3.66,1.18,6.8,3.53,9.42c2.36,2.63,5.31,3.94,8.87,3.94c3.56,0,6.52-1.18,8.87-3.53
			c2.35-2.35,3.53-5.36,3.53-9.01c0-3.66-1.09-6.76-3.25-9.33C308.32,150.37,305.4,149.09,301.76,149.09z"/>
		<path d="M145.01,207.84v10.96h-26.69v17.62c2.65-1.64,5.67-2.46,9.05-2.46c5.91,0,11.01,2.02,15.29,6.04
			c4.29,4.03,6.43,9.5,6.43,16.39c0,6.89-2.23,12.61-6.69,17.16c-4.47,4.54-9.95,6.81-16.47,6.81c-8.5,0-15.29-3.21-20.36-9.63
			l5.71-8.81c0.48,0.55,1.13,1.2,1.94,1.95c0.81,0.75,2.49,1.76,5.02,3.02c2.53,1.27,5.3,1.9,8.32,1.9c3.02,0,5.76-1.03,8.23-3.08
			s3.71-5.04,3.71-8.96s-1.31-6.97-3.93-9.12c-2.63-2.15-5.94-3.23-9.95-3.23s-7.83,1.13-11.44,3.38l-4.53-5.54v-34.42
			L145.01,207.84L145.01,207.84z"/>
		<path d="M202.61,207.84v10.96h-26.69v17.62c2.65-1.64,5.67-2.46,9.05-2.46c5.91,0,11.01,2.02,15.29,6.04
			c4.29,4.03,6.43,9.5,6.43,16.39c0,6.89-2.23,12.61-6.69,17.16c-4.47,4.54-9.95,6.81-16.47,6.81c-8.5,0-15.29-3.21-20.36-9.63
			l5.71-8.81c0.48,0.55,1.13,1.2,1.94,1.95c0.81,0.75,2.49,1.76,5.02,3.02c2.53,1.27,5.3,1.9,8.32,1.9s5.76-1.03,8.23-3.08
			c2.47-2.05,3.71-5.04,3.71-8.96s-1.31-6.97-3.93-9.12c-2.63-2.15-5.94-3.23-9.95-3.23c-4.01,0-7.83,1.13-11.44,3.38l-4.53-5.54
			v-34.42L202.61,207.84L202.61,207.84z"/>
		<path d="M249.58,235.91c1.81-2.79,2.71-5.64,2.71-8.5c0-2.87-0.96-5.3-2.89-7.32c-1.93-2.02-4.37-3.03-7.33-3.03
			c-5.19,0-9.5,3.01-12.94,9.02l-8.6-5.64c2.78-4.71,5.84-8.26,9.19-10.65c3.34-2.39,7.66-3.59,12.94-3.59
			c5.28,0,9.9,1.89,13.89,5.69c3.98,3.78,5.97,8.96,5.97,15.52c0,3.69-0.85,7.21-2.53,10.55c-1.69,3.35-4.79,7.65-9.32,12.91
			l-14.84,17.11h28.68v11.58h-43.24v-10.25l19.18-21.82C244.72,242.57,247.77,238.71,249.58,235.91z"/>
		<path d="M303.7,217.47c-5.61,0-9.74,2.16-12.4,6.46c-2.65,4.3-4.01,10.1-4.06,17.42c1.5-1.92,3.67-3.71,6.51-5.39
			c2.83-1.67,5.97-2.51,9.41-2.51c5.67,0,10.42,2.14,14.25,6.4c3.83,4.27,5.74,9.94,5.74,17.01c0,7.07-2.07,12.76-6.2,17.06
			c-4.13,4.3-9.34,6.45-15.61,6.45c-10.13,0-17.13-5.12-20.98-15.37c-2.17-5.87-3.26-12.5-3.26-19.88c0-7.38,0.69-13.52,2.08-18.44
			c1.38-4.91,3.28-8.8,5.7-11.67c4.71-5.6,10.48-8.4,17.33-8.4c6.85,0,13.05,2.43,18.59,7.27l-5.34,8.91
			c-1.38-1.36-3.24-2.59-5.56-3.69C307.57,218.02,305.51,217.47,303.7,217.47z M301.76,244.11c-3.65,0-6.7,1.15-9.14,3.43
			c-2.44,2.29-3.67,5.26-3.67,8.91s1.18,6.79,3.53,9.43c2.36,2.63,5.31,3.94,8.87,3.94c3.56,0,6.52-1.18,8.87-3.53
			c2.35-2.36,3.53-5.36,3.53-9.02c0-3.65-1.09-6.76-3.25-9.32C308.32,245.39,305.4,244.11,301.76,244.11z"/>
		<path d="M108,334.21v-10.76h37.01v9.42l-15.29,19.37c5.79,0.2,10.32,2.27,13.57,6.19c3.26,3.93,4.89,8.62,4.89,14.09
			c0,7.3-2.19,13.04-6.56,17.21c-4.37,4.17-10,6.25-16.88,6.25c-6.87,0-13.6-2.49-20.17-7.48l4.53-9.74
			c5.18,4.1,10.61,6.14,16.28,6.14c3.68,0,6.71-0.97,9.09-2.92c2.39-1.94,3.58-4.74,3.58-8.4c0-3.65-1.33-6.58-3.98-8.76
			c-2.65-2.18-6.33-3.28-11.04-3.28c-2.36,0-4.62,0.38-6.79,1.13v-9.22l14.66-19.26H108z"/>
		<path d="M177.4,385.02c5.6,0,9.73-2.15,12.39-6.45c2.65-4.3,4.01-10.11,4.07-17.42c-1.51,1.91-3.68,3.7-6.52,5.38
			s-5.97,2.51-9.41,2.51c-5.67,0-10.42-2.13-14.25-6.4c-3.83-4.27-5.74-9.94-5.74-17.01s2.06-12.76,6.19-17.06
			c4.13-4.3,9.34-6.45,15.61-6.45c10.13,0,17.13,5.12,20.99,15.37c2.17,5.88,3.25,12.5,3.25,19.88s-0.69,13.52-2.08,18.44
			c-1.39,4.92-3.29,8.81-5.7,11.68c-4.71,5.59-10.48,8.4-17.33,8.4c-6.84,0-13.04-2.42-18.59-7.27l5.34-8.91
			c1.39,1.37,3.24,2.59,5.57,3.69C173.52,384.47,175.58,385.02,177.4,385.02z M179.34,358.39c3.65,0,6.69-1.14,9.14-3.43
			c2.44-2.28,3.67-5.25,3.67-8.91c0-3.65-1.18-6.79-3.53-9.42c-2.35-2.63-5.29-3.94-8.82-3.94c-3.53,0-6.44,1.18-8.73,3.53
			c-2.29,2.35-3.43,5.38-3.43,9.06c0,3.69,1.04,6.79,3.11,9.32C172.82,357.12,175.69,358.39,179.34,358.39z"/>
		<path d="M222.9,327.45c4.04-3.62,9.11-5.43,15.2-5.43c6.09,0,11.16,1.81,15.2,5.43c4.04,3.62,6.06,8.18,6.06,13.67
			c0,5.5-2.26,10.37-6.78,14.6c6.09,4.38,9.14,10.52,9.14,18.44c0,6.15-2.17,11.3-6.52,15.47c-4.34,4.17-10.04,6.24-17.1,6.24
			c-7.06,0-12.76-2.08-17.1-6.24c-4.34-4.17-6.52-9.32-6.52-15.47c0-7.92,3.05-14.06,9.14-18.44c-4.53-4.23-6.79-9.1-6.79-14.6
			C216.84,335.63,218.86,331.07,222.9,327.45z M229.23,382.41c2.78,2.02,5.74,3.03,8.87,3.03c3.13,0,6.09-1.01,8.87-3.03
			c2.78-2.01,4.16-4.89,4.16-8.65c0-3.75-1.33-6.66-3.98-8.7c-2.65-2.05-5.67-3.08-9.04-3.08c-3.38,0-6.4,1.03-9.05,3.08
			c-2.66,2.04-3.98,4.95-3.98,8.7C225.07,377.51,226.46,380.4,229.23,382.41z M230.09,349.83c2.26,2.08,4.93,3.13,8.01,3.13
			c3.07,0,5.74-1.04,8-3.13c2.26-2.08,3.39-4.64,3.39-7.69c0-3.03-1.13-5.58-3.39-7.63c-2.26-2.05-4.93-3.08-8-3.08
			c-3.08,0-5.75,1.03-8.01,3.08s-3.39,4.59-3.39,7.63C226.7,345.19,227.83,347.75,230.09,349.83z"/>
		<path d="M278.63,385.79c-4.28-6.73-6.42-15.72-6.42-27c0-11.27,2.14-20.27,6.42-27c4.29-6.73,10.74-10.09,19.36-10.09
			c8.62,0,15.08,3.36,19.36,10.09c4.28,6.73,6.42,15.72,6.42,27c0,11.27-2.14,20.27-6.42,27c-4.29,6.73-10.74,10.09-19.36,10.09
			C289.37,395.88,282.92,392.52,278.63,385.79z M286.28,339.44c-2.5,4.91-3.76,11.37-3.76,19.36c0,8,1.25,14.45,3.76,19.36
			c2.5,4.92,6.41,7.38,11.71,7.38c5.31,0,9.18-2.44,11.63-7.32c2.44-4.89,3.67-11.35,3.67-19.42c0-8.05-1.22-14.53-3.67-19.42
			c-2.44-4.88-6.32-7.32-11.63-7.32C292.69,332.06,288.78,334.52,286.28,339.44z"/>
	</g>
	<rect x="334.93" y="224.15" width="32.66" height="14.91"/>
	<rect x="99.89" y="297.32" width="231.61" height="7.45"/>
	<polygon points="418.58,100.41 415.32,99.47 416.21,96.35 412.75,95.36 391.32,170.22 394.79,171.22 410.61,115.94 413.87,116.87
		"/>
	<path d="M358.02,341.82L358.02,341.82c-0.63,2.21-0.92,4.5-0.87,6.79l0.07,2.61c0.02,0.71,0.49,1.32,1.17,1.52
		c0.68,0.19,1.41-0.07,1.8-0.67l1.44-2.18c1.26-1.92,2.23-4.02,2.86-6.22L358.02,341.82z"/>
	<path d="M396.64,259.83l-21.54-6.16l-14.04,49.06c-0.53,1.87-1,3.76-1.34,5.68c-1.93,10.86-2.71,21.92-2.25,33.18
		c0.01,0.29,0.21,0.53,0.48,0.61l6.41,1.83c0.27,0.08,0.56-0.03,0.73-0.25c6.47-9.09,11.72-18.99,15.81-29.66
		c0.61-1.6,1.14-3.25,1.61-4.9L396.64,259.83z"/>
	<g>
		<path d="M408.3,219.1l23.23-81.15c-4.77-0.71-17.88-4.44-22.78-6.47l-22.42,81.41C394.44,215.79,399.55,217.21,408.3,219.1z"/>
		<path d="M398.42,253.62c-8.6-1.86-13.73-3.29-21.63-6.08l0.29-1.06l-1.59,5.78h0c7.89,2.8,12.97,4.21,21.58,6.07l1.61-5.63
			L398.42,253.62z"/>
		<path d="M407.77,220.94c-8.72-1.88-13.86-3.32-21.95-6.2l-1.3,4.72c8.08,2.88,13.18,4.3,21.9,6.18l-0.53,1.84
			c-8.69-1.88-13.84-3.32-21.89-6.18l0.08-0.27l-1.61,5.85l0.24-0.86c8.04,2.86,13.14,4.28,21.84,6.16l3.46-12.1L407.77,220.94z"/>
		<path d="M382.21,227.86l-1.3,4.72c8,2.84,13.1,4.26,21.78,6.13l-0.53,1.84c-8.65-1.87-13.78-3.3-21.76-6.13l-1.3,4.72
			c7.97,2.83,13.06,4.24,21.71,6.11l-0.53,1.84c-8.62-1.86-13.75-3.29-21.69-6.11l-1.3,4.72c7.93,2.81,13.01,4.23,21.65,6.09
			l5.09-17.77C395.36,232.14,390.22,230.7,382.21,227.86z"/>
	</g>
	<g>
		<path d="M431.53,137.95l15.24-53.24l-26.43,5.14l-0.74,2.23l-10.85,39.4C413.64,133.51,426.76,137.25,431.53,137.95z"/>
		<path d="M446.67,84.26c-0.77-1.88-7.28-2.07-14.53-0.41c-7.25,1.66-12.5,4.52-11.73,6.41s7.28,2.07,14.53,0.41
			C442.19,89.01,447.44,86.14,446.67,84.26z"/>
	</g>
	<path d="M441.74,85.38c-0.48-1.18-4.55-1.29-9.08-0.26c-4.53,1.03-7.81,2.83-7.33,4c0.48,1.18,4.55,1.29,9.08,0.26
		C438.94,88.35,442.23,86.56,441.74,85.38z"/>
	<path d="M431.2,69.26l-5.35,18.7l-0.36,1.27c0.73,1.05,4.57,1.14,8.93,0.15c2.77-0.63,5.05-1.55,6.31-2.43l0.54-1.9l3.42-11.93
		C445.63,69.82,432.15,65.96,431.2,69.26z"/>
	<g>
		<path d="M88.66,331.6c-6.87-8.03-13.46-11.62-23.43-11.62c-15,0-24.88,9.49-28.75,21.97c9,0.2,20.43,0.2,25.56,0.2
			c1.74,0,3.2,3.39,3.2,5.13c0,2.42-3.58,2.81-9.68,2.81H45.19c-2.42,0-4.84,0.19-8.03,0.19h-2.42c-0.1,1.55-0.19,3.19-0.19,4.74
			v0.58c9.1,0.19,21.97,0.29,27.49,0.29c1.74,0,3.2,3.39,3.2,5.13c0,2.42-3.58,2.81-9.68,2.81H45.19c-2.42,0-4.84,0.19-8.03,0.19
			h-1.94c1.64,10.55,6.78,20.42,19.26,20.42c7.94,0,15.1-5.61,15.1-13.65v-1.84c0-0.87,0.29-1.16,2.33-1.16c3.29,0,3.97,3,3.97,5.9
			c0,13.07-13.94,19.94-25.95,19.94c-20.23,0-33.79-16.85-33.79-35.53c0-26.53,25.17-46.18,50.53-46.18
			c9.97,0,19.17,3.2,26.04,11.91c0.39,0.87,0.68,1.74,0.68,2.42C93.41,328.69,91.47,331.6,88.66,331.6z"/>
	</g>
</g>
</svg>

		<svg version="1.1" id="ba-commissioni"  x="0px" y="0px"
			 viewBox="0 0 463.01 463.01" style="enable-background:new 0 0 463.01 463.01;" xml:space="preserve">

<g>
	<path class="st0" d="M398.29,89.99H66.16C51.19,89.99,39,102.17,39,117.15v229.07c0,14.97,12.19,27.16,27.16,27.16h332.13
		c14.97,0,27.16-12.19,27.16-27.16V117.15C425.45,102.17,413.26,89.99,398.29,89.99z M412.57,346.22c0,7.88-6.4,14.28-14.28,14.28
		H66.16c-7.88,0-14.28-6.4-14.28-14.28V117.15c0-7.88,6.4-14.28,14.28-14.28h332.13c7.88,0,14.28,6.4,14.28,14.28V346.22z"/>
	<path class="st0" d="M184.81,271.92l-23.43-11.97v-2.49c10.49-5.73,17.86-15.16,21.98-28.11c6.24-3.31,10.23-9.76,10.23-16.98
		v-6.44c0-5.96-2.78-11.5-7.41-15.13c-4.02-24.35-21.01-36.69-50.55-36.69c-1.4,0-2.76,0.05-4.1,0.15
		c-5.56,0.46-13.71-0.03-20.77-4.77c-2.63-1.78-4.62-3.5-5.89-5.11c-2.16-2.76-5.8-3.73-9.03-2.4c-3.23,1.33-5.13,4.56-4.73,8.03
		c0.27,2.41,0.68,5.21,1.29,8.28c1.24,6.28,1.24,6.28-0.5,10.03c-0.66,1.42-1.47,3.16-2.42,5.49c-2.13,5.22-3.65,10.94-4.51,17.05
		c-4.57,3.64-7.3,9.14-7.3,15.05v6.44c0,7.23,3.99,13.67,10.23,16.98c4.12,12.96,11.49,22.39,21.98,28.11v2.42l-24.28,11.97
		c-8.86,4.83-14.37,14.11-14.37,24.2v8.53c0,5.17,0,17.27,64.41,17.27s64.41-12.1,64.41-17.27v-8.02
		C200.02,286.06,194.19,276.62,184.81,271.92z M187.14,303.13c-4.02,2.45-20.37,5.85-51.53,5.85s-47.51-3.4-51.53-5.85v-7.08
		c0-5.38,2.93-10.32,7.42-12.77l24.84-12.24c3.88-1.89,6.38-5.91,6.38-10.23V249.2l-3.89-1.67c-9.77-4.21-16.12-12.24-19.42-24.57
		l-0.92-3.43l-3.39-1.06c-2.69-0.84-4.58-3.35-4.58-6.11v-6.44c0-2.33,1.33-4.5,3.48-5.64l3.02-1.61l0.35-3.41
		c0.64-6.04,1.98-11.61,4.01-16.55c0.86-2.09,1.58-3.66,2.18-4.94c2.18-4.69,2.98-7.11,2.43-12.08c7.57,4.33,16.68,6.17,26.55,5.42
		c1-0.08,2.02-0.12,3.07-0.12c24.11,0,35.89,8.73,38.19,28.33l0.4,3.36l2.99,1.58c2.15,1.15,3.5,3.32,3.5,5.66v6.44
		c0,2.76-1.89,5.26-4.59,6.1l-3.39,1.06l-0.92,3.43c-3.3,12.32-9.65,20.35-19.42,24.57l-3.89,1.68v11.66
		c0,4.31,2.38,8.19,6.21,10.14l24.31,12.42c5.01,2.5,8.12,7.54,8.12,13.13V303.13z"/>
	<path class="st0" d="M232.22,186.6h64.41c3.56,0,6.44-2.88,6.44-6.44c0-3.56-2.88-6.44-6.44-6.44h-64.41
		c-3.56,0-6.44,2.88-6.44,6.44C225.78,183.72,228.66,186.6,232.22,186.6z"/>
	<path class="st0" d="M322.39,186.6h6.44c3.56,0,6.44-2.88,6.44-6.44c0-3.56-2.88-6.44-6.44-6.44h-6.44c-3.56,0-6.44,2.88-6.44,6.44
		C315.95,183.72,318.83,186.6,322.39,186.6z"/>
	<path class="st0" d="M238.66,283.21h-6.44c-3.56,0-6.44,2.88-6.44,6.44c0,3.56,2.88,6.44,6.44,6.44h6.44
		c3.56,0,6.44-2.88,6.44-6.44C245.11,286.09,242.23,283.21,238.66,283.21z"/>
	<path class="st0" d="M277.31,283.21h-12.88c-3.56,0-6.44,2.88-6.44,6.44c0,3.56,2.88,6.44,6.44,6.44h12.88
		c3.56,0,6.44-2.88,6.44-6.44C283.75,286.09,280.87,283.21,277.31,283.21z"/>
	<path class="st0" d="M309.51,283.21h-6.44c-3.56,0-6.44,2.88-6.44,6.44c0,3.56,2.88,6.44,6.44,6.44h6.44
		c3.56,0,6.44-2.88,6.44-6.44C315.95,286.09,313.08,283.21,309.51,283.21z"/>
	<path class="st0" d="M348.16,283.21h-12.88c-3.56,0-6.44,2.88-6.44,6.44c0,3.56,2.88,6.44,6.44,6.44h12.88
		c3.56,0,6.44-2.88,6.44-6.44C354.6,286.09,351.72,283.21,348.16,283.21z"/>
	<path class="st0" d="M369.35,285.08c-1.17,1.22-1.87,2.9-1.87,4.57c0,1.67,0.7,3.35,1.87,4.57c1.22,1.16,2.9,1.87,4.57,1.87
		c1.67,0,3.35-0.71,4.57-1.87c1.16-1.22,1.87-2.9,1.87-4.57c0-1.67-0.71-3.36-1.87-4.57C376.05,282.7,371.73,282.7,369.35,285.08z"
	/>
	<path class="st0" d="M373.92,212.36h-141.7c-3.56,0-6.44,2.88-6.44,6.44s2.88,6.44,6.44,6.44h141.7c3.56,0,6.44-2.88,6.44-6.44
		S377.48,212.36,373.92,212.36z"/>
	<path class="st0" d="M373.92,251.01h-141.7c-3.56,0-6.44,2.88-6.44,6.44c0,3.56,2.88,6.44,6.44,6.44h141.7
		c3.56,0,6.44-2.88,6.44-6.44C380.36,253.89,377.48,251.01,373.92,251.01z"/>
</g>
</svg>
		<svg version="1.1" id="ba-consiglieri" xmlns="http://www.w3.org/2000/svg" xmlns:xlink="http://www.w3.org/1999/xlink" x="0px" y="0px"
			 viewBox="0 0 463.01 463.01" style="enable-background:new 0 0 463.01 463.01;" xml:space="preserve">
<g>
	<g>
		<path d="M428.63,263.27c-8.72-8.24-17.57-11.7-19.29-12.33l-29.15-12.15l-20.42-13.47v-6.85c15.25-7.97,26.35-22.82,29.17-40.4
			c12.81-1.7,22.73-12.69,22.73-25.96c0-6.81-2.61-13.02-6.89-17.68v-25.12c0-40.41-32.88-73.29-73.29-73.29h-5.54
			c-33.27,0-62.3,22.34-70.82,54.41c-6.4-1.73-13.12-2.67-20.06-2.67h-5.84c-7.31,0-14.37,1.05-21.08,2.96
			C199.74,58.48,170.63,36,137.26,36h-5.54c-40.41,0-73.29,32.88-73.29,73.29v25.12c-4.27,4.66-6.89,10.87-6.89,17.68
			c0,13.27,9.92,24.26,22.73,25.96c2.82,17.59,13.92,32.43,29.17,40.4v6.85l-20.42,13.47l-29.15,12.15
			c-1.72,0.62-10.56,4.09-19.29,12.33c-8.76,8.27-19.2,23.14-19.2,47.02v41.5c0,3.77,3.06,6.84,6.83,6.84h85.74
			c-1.27,5.3-2.03,11.2-2.03,17.75v43.73c0,3.77,3.06,6.84,6.83,6.84h81.13h17.95h40.92h0.02h16.57h3.85c3.77,0,6.83-3.06,6.83-6.83
			s-3.06-6.83-6.83-6.83h-3.85h-10.77l-8.24-51.11l3.22-8.58l4.87,3.59c1.18,0.87,2.6,1.33,4.05,1.33c0.55,0,1.09-0.07,1.64-0.2
			c1.97-0.49,3.62-1.82,4.5-3.64l18.54-38.12l24.74,10.31c0.15,0.06,0.3,0.12,0.45,0.17c0.31,0.1,31.3,10.96,31.3,49.35v36.91
			h-28.33v-38.9c0-3.77-3.06-6.83-6.83-6.83c-3.77,0-6.83,3.06-6.83,6.83v38.9h-7.22c-3.77,0-6.83,3.06-6.83,6.83
			c0,3.77,3.06,6.83,6.83,6.83h56.03c3.77,0,6.83-3.14,6.83-6.91v-43.65c0-6.55-0.76-12.45-2.03-17.75h85.74
			c3.77,0,6.83-3.14,6.83-6.91v-41.43C447.83,286.41,437.39,271.54,428.63,263.27z M376,169.24c0,23.08-18.78,41.86-41.86,41.86
			h-10.56c-1.47,0-2.95-0.09-4.41-0.24c0.02-0.39,0.03-0.78,0.03-1.17c0-7.13-2.76-13.63-7.26-18.49v-26.61
			c0-12.15-2.84-23.64-7.88-33.86c14.98-3.62,32.55-10.55,46.14-23.84c4.22,9.01,12.11,20.75,25.81,25.94L376,169.24L376,169.24z
			 M346.12,223.45v13.96l-17.55,18.21l-17-16.56c0-0.08,0.01-0.15,0.01-0.22v-10.28c0,0,0,0,0-0.01v0c1.31-1.36,2.47-2.85,3.48-4.46
			c2.81,0.43,5.65,0.67,8.51,0.67h10.56C338.25,224.76,342.26,224.3,346.12,223.45z M305.54,209.69c0,3.45-1.3,6.58-3.42,8.98
			c-1.27,0.53-2.34,1.45-3.09,2.59c-0.95,0.58-1.96,1.06-3.04,1.4v-25.94C301.52,198.45,305.54,203.61,305.54,209.69z M398.02,152.1
			c0,5.45-3.5,10.09-8.37,11.81v-23.63C394.52,142.01,398.02,146.64,398.02,152.1z M268.19,94.41
			c6.77-26.35,30.52-44.76,57.77-44.76h5.54c32.88,0,59.64,26.75,59.64,59.64v17.22c-0.55-0.12-1.1-0.23-1.67-0.32
			c-0.59-2.49-2.54-4.5-5.13-5.08c-19.11-4.35-24.99-28.74-25.05-28.97c-0.59-2.62-2.66-4.64-5.29-5.18
			c-2.63-0.54-5.33,0.51-6.9,2.69c-12.8,17.7-34.15,25.42-50.62,28.79c-7.45-9.89-17.24-17.93-28.53-23.3
			C268.05,94.9,268.13,94.66,268.19,94.41z M229.24,101.39h5.83v0c34.85,0,63.21,28.35,63.21,63.21v18.61
			c-0.79-0.19-1.6-0.35-2.42-0.47c-0.02-0.09-0.04-0.18-0.06-0.26c-0.03-0.11-0.05-0.23-0.09-0.34c-0.03-0.11-0.07-0.22-0.11-0.33
			c-0.03-0.1-0.07-0.19-0.1-0.29c-0.05-0.12-0.1-0.23-0.15-0.34c-0.04-0.09-0.08-0.17-0.12-0.26c-0.06-0.11-0.12-0.22-0.18-0.32
			c-0.05-0.08-0.1-0.17-0.15-0.25c-0.06-0.1-0.13-0.19-0.2-0.28c-0.06-0.09-0.13-0.17-0.19-0.26c-0.07-0.08-0.13-0.16-0.2-0.24
			c-0.08-0.09-0.16-0.18-0.24-0.26c-0.07-0.07-0.14-0.13-0.21-0.2c-0.09-0.09-0.18-0.17-0.28-0.25c-0.07-0.06-0.14-0.11-0.22-0.17
			c-0.1-0.08-0.2-0.16-0.3-0.23c-0.08-0.06-0.16-0.11-0.25-0.16c-0.1-0.06-0.2-0.13-0.31-0.19c-0.1-0.06-0.2-0.11-0.3-0.16
			c-0.09-0.05-0.19-0.09-0.28-0.14c-0.12-0.05-0.25-0.1-0.38-0.15c-0.08-0.03-0.16-0.06-0.24-0.09c-0.14-0.05-0.29-0.09-0.44-0.12
			c-0.06-0.01-0.11-0.04-0.17-0.05c-20.37-4.64-26.61-30.56-26.67-30.8c-0.59-2.62-2.66-4.64-5.29-5.18
			c-2.63-0.54-5.33,0.51-6.9,2.69c-23.73,32.81-75.59,33.13-76.37,33.13c-0.01,0-0.02,0-0.03,0c-0.23,0-0.47,0.01-0.7,0.04
			c-0.05,0.01-0.1,0.02-0.16,0.02c-0.17,0.02-0.35,0.04-0.52,0.08c-0.06,0.01-0.12,0.03-0.19,0.05c-0.16,0.04-0.31,0.07-0.47,0.12
			c-0.08,0.03-0.16,0.06-0.24,0.09c-0.13,0.05-0.26,0.09-0.39,0.14c-0.1,0.04-0.2,0.09-0.29,0.14c-0.1,0.05-0.2,0.09-0.3,0.14
			c-0.1,0.05-0.19,0.12-0.29,0.18c-0.09,0.06-0.18,0.11-0.27,0.16c-0.1,0.07-0.18,0.14-0.28,0.21c-0.08,0.06-0.17,0.12-0.25,0.19
			c-0.09,0.07-0.17,0.15-0.25,0.23c-0.08,0.07-0.16,0.14-0.23,0.21c-0.08,0.08-0.15,0.16-0.22,0.24c-0.07,0.08-0.15,0.16-0.22,0.24
			c-0.07,0.08-0.13,0.17-0.19,0.26c-0.07,0.09-0.14,0.17-0.2,0.27c-0.06,0.09-0.11,0.18-0.17,0.27c-0.06,0.1-0.12,0.19-0.18,0.29
			c-0.05,0.09-0.09,0.19-0.14,0.29c-0.05,0.1-0.1,0.2-0.15,0.31c-0.04,0.1-0.07,0.2-0.11,0.3c-0.04,0.11-0.08,0.21-0.12,0.32
			c-0.03,0.1-0.06,0.21-0.08,0.32c-0.03,0.11-0.06,0.22-0.09,0.34c0,0.02-0.01,0.04-0.01,0.06c-0.91,0.13-1.81,0.31-2.69,0.53
			v-18.67C166.04,129.74,194.39,101.39,229.24,101.39z M232.01,319.29l-18.29-17.82c0.01-0.13,0.02-0.25,0.02-0.38v-10.83
			c0-0.01,0-0.01,0-0.02v-5.83c4.18,0.96,8.53,1.48,12.99,1.48h11.13c4.33,0,8.55-0.49,12.62-1.39c0.13,0,0.25-0.01,0.37-0.02v15.25
			L232.01,319.29z M242.11,345.18l-3.55,9.46h-12.72l-4.02-9.59l10.06-7.41L242.11,345.18z M140.26,289.31h-11.6l-3.2-8.51
			l9.29-6.84l9.12,6.72L140.26,289.31z M141.16,316.45c-3.94,2-9.55,5.4-15.12,10.66c-0.08,0.07-0.15,0.15-0.23,0.22l3.93-24.36
			h9.25L141.16,316.45z M134.65,255.62L117.1,237.4v-13.96c3.86,0.85,7.87,1.32,11.98,1.32h10.56c3.27,0,6.54-0.29,9.75-0.85
			c0.67,1.1,1.42,2.14,2.23,3.13v1.51c0,0.01,0,0.01,0,0.02v10.27c0,0.08,0.01,0.15,0.01,0.22L134.65,255.62z M163.22,246.84
			c1.59-1.54,2.25-3.67,2.01-5.71l6,3.96c0.65,2.08,1.43,4.11,2.3,6.08l-12.31,25.31l-16.19-11.92L163.22,246.84z M159.04,209.7
			c0-6.09,4.02-11.25,9.55-12.97v25.94C163.06,220.95,159.04,215.78,159.04,209.7z M155.19,289.01l4.53,3.33
			c1.18,0.87,2.61,1.33,4.05,1.33c0.55,0,1.09-0.07,1.63-0.2c1.97-0.49,3.62-1.82,4.5-3.64l12.13-24.93
			c4.96,5.96,11.1,10.91,18.04,14.5v7.11l-21.89,14.44c-0.3,0.08-0.59,0.17-0.88,0.29l-23.2,9.67l-2.25-13.93L155.19,289.01z
			 M200.28,302.73c-0.56,2.28,0.06,4.78,1.86,6.53l19.49,18.98l-17.76,13.07l-15.08-31L200.28,302.73z M237.86,272.24h-11.13
			c-24.53,0-44.48-19.95-44.48-44.48V190.6c14.65-1.06,49.3-6.01,72.65-29.16c4.39,9.54,12.74,22.22,27.44,27.69v38.63h0
			C282.34,252.29,262.38,272.24,237.86,272.24z M73.56,163.91c-4.87-1.73-8.37-6.36-8.37-11.81s3.5-10.09,8.37-11.81V163.91z
			 M80.57,120.94c-0.01,0-0.02,0-0.03,0c-0.03,0-0.05,0-0.08,0s-0.05,0-0.08,0c-3.23,0-5.93,2.24-6.64,5.25
			c-0.56,0.09-1.12,0.2-1.67,0.32v-17.22c0-32.88,26.75-59.64,59.64-59.64h5.54c27.25,0,51,18.4,57.77,44.76
			c0.11,0.41,0.25,0.8,0.42,1.17c-8.99,4.42-17,10.55-23.59,17.96c-7.87-8.2-10.61-19.64-10.64-19.75
			c-0.59-2.62-2.66-4.64-5.29-5.18c-2.63-0.54-5.33,0.51-6.9,2.69C127.79,120.65,81.25,120.94,80.57,120.94
			C80.57,120.94,80.57,120.94,80.57,120.94z M87.22,169.24V134.3c13.43-1.02,43.94-5.59,64.93-25.86
			c2.46,5.14,6.14,11.13,11.48,16.16c-7.13,11.66-11.25,25.35-11.25,39.99v26.9c-4.34,4.83-6.99,11.21-6.99,18.2
			c0,0.34,0.01,0.67,0.03,1c-1.9,0.26-3.83,0.41-5.76,0.41h-10.56C106,211.11,87.22,192.33,87.22,169.24z M103.6,241.58
			c0.26,1.21,0.83,2.36,1.75,3.32l19.03,19.75l-16.09,11.84l-14-28.77L103.6,241.58z M109.13,344.97H68.89V308.4
			c0-3.77-3.06-6.83-6.83-6.83s-6.83,3.06-6.83,6.83v36.57H29.04v-34.68c0-35.86,28.29-46.1,29.47-46.5
			c0.15-0.05,0.3-0.11,0.45-0.17l23.18-9.66l17.45,35.88c0.89,1.82,2.54,3.16,4.5,3.64c0.54,0.13,1.09,0.2,1.63,0.2
			c1.44,0,2.86-0.46,4.05-1.33l4.25-3.13l2.86,7.63L109.13,344.97z M206.02,413.29h-12.13h-32.32v0v-38.9
			c0-3.77-3.06-6.83-6.83-6.83c-3.77,0-6.83,3.06-6.83,6.83v38.9h-28.33v-36.91c0-38.06,30.05-48.91,31.3-49.35
			c0.15-0.05,0.3-0.11,0.45-0.17l25.2-10.5l18.63,38.31c0.89,1.82,2.54,3.16,4.5,3.64c0.54,0.13,1.09,0.2,1.63,0.2
			c1.44,0,2.86-0.46,4.05-1.33l5.15-3.79l3.74,8.92L206.02,413.29z M219.85,413.29l7.26-44.98h10.37l7.26,44.98H219.85z
			 M259.91,341.32l-5.38-3.96c-0.01-0.01-0.03-0.02-0.05-0.03l-12.22-9l20.34-21.11c1.06-1.1,1.66-2.45,1.85-3.86l10.54,6.96
			L259.91,341.32z M309.12,310.91l-22.91-9.55l-21.68-14.31c-0.01,0-0.01-0.01-0.02-0.01v-7.64c6.54-3.39,12.36-7.99,17.17-13.5
			l11.64,23.92c0.89,1.82,2.54,3.16,4.5,3.64c0.54,0.13,1.09,0.2,1.64,0.2c1.44,0,2.86-0.46,4.05-1.33l4.53-3.33l3.34,7.97
			L309.12,310.91z M302.01,276.49l-11.61-23.86c1.32-2.77,2.41-5.66,3.28-8.64l4.32-2.85c-0.24,2.04,0.42,4.16,2.01,5.71l18.2,17.73
			L302.01,276.49z M337.17,327.1c-5.57-5.26-11.18-8.66-15.12-10.66l2.17-13.48h9.25l3.93,24.36
			C337.33,327.25,337.25,327.17,337.17,327.1z M334.56,289.31h-11.6l-3.62-8.63l9.12-6.71l9.29,6.84L334.56,289.31z M338.84,264.64
			l19.03-19.75c0.92-0.95,1.5-2.11,1.76-3.32l9.31,6.14l-14,28.77L338.84,264.64z M407.99,344.97V308.4c0-3.77-3.06-6.83-6.83-6.83
			c-3.77,0-6.83,3.06-6.83,6.83v36.57h-40.25l-7.76-48.12l2.86-7.63l4.25,3.13c1.18,0.87,2.6,1.33,4.05,1.33
			c0.55,0,1.09-0.07,1.64-0.2c1.97-0.48,3.62-1.82,4.5-3.64l17.45-35.88l23.18,9.66c0.15,0.06,0.3,0.12,0.45,0.17
			c0.29,0.1,29.47,10.32,29.47,46.5v34.68L407.99,344.97L407.99,344.97z"/>
	</g>
</g>
</svg>

		<svg version="1.1" id="ba-gruppi-consiliari" xmlns="http://www.w3.org/2000/svg" xmlns:xlink="http://www.w3.org/1999/xlink" x="0px" y="0px"
			 viewBox="0 0 463.01 463.01" style="enable-background:new 0 0 463.01 463.01;" xml:space="preserve">

<g>
	<g>
		<path class="st0" d="M62.13,235.1c3.76,13.72,13.8,32.2,15.31,35.05c1.84,4.27,3.01,8.7,3.43,13.3l14.14,138.51
			c0.84,8.28,7.78,14.55,16.14,14.55h24.42c8.36,0,15.31-6.27,16.14-14.55l14.14-138.51c0.5-4.68,1.67-9.28,3.6-13.55
			c1.67-3.85-0.08-8.28-3.85-9.95c-3.85-1.67-8.28,0.08-9.95,3.85c-2.51,5.77-4.18,11.88-4.77,18.15l-14.14,138.51
			c-0.08,0.5-0.5,0.92-1,0.92h-24.42c-0.5,0-1-0.42-1-0.92l-14.3-138.59c-0.67-6.27-2.26-12.38-4.77-18.15
			c-0.08-0.25-0.17-0.42-0.33-0.67c-0.08-0.17-10.62-19.15-14.14-31.95c-3.85-14.3-4.93-45.42-1.76-50.94
			c2.51-2.51,3.6-3.51,6.19-5.44c6.61-4.85,14.22-8.78,19.15-11.12l16.9,23.25c1.42,1.92,3.68,3.09,6.11,3.09s4.68-1.17,6.11-3.09
			l20.49-28.19c2.43-3.35,1.67-8.11-1.67-10.62c-3.35-2.43-8.11-1.67-10.62,1.67l-14.39,19.74l-14.22-19.66
			c-2.01-2.84-5.77-3.85-8.95-2.59c-0.59,0.25-15.47,6.27-27.85,15.39c-3.51,2.59-5.19,4.18-8.11,7.11
			C53.44,180.4,59.37,224.89,62.13,235.1z"/>
		<path class="st0" d="M122.69,137.32c0.17,0,0.33,0,0.5,0c0.08,0,0.25,0,0.33,0c0.17,0,0.33,0,0.59,0
			c9.7-0.25,17.9-3.76,23.75-10.37c12.46-14.05,10.71-37.47,10.37-40.4c-1.25-25.84-19.24-34.96-34.21-34.96c-0.25,0-0.5,0-0.67,0
			s-0.42,0-0.67,0c-14.97,0-32.87,9.2-34.21,34.96c-0.25,2.93-2.09,26.35,10.37,40.4C104.79,133.56,112.99,137.15,122.69,137.32z
			 M103.62,87.89c0-0.17,0-0.33,0-0.5c0.84-18.07,12.3-20.74,19.07-20.74h0.33c0.17,0,0.42,0,0.59,0h0.33
			c6.77,0,18.23,2.68,19.07,20.74c0,0.17,0,0.33,0,0.42c0.59,5.35,0.42,20.99-6.69,29.02c-3.09,3.51-7.36,5.27-12.96,5.27
			c-0.08,0-0.08,0-0.17,0l0,0c-5.6-0.08-9.87-1.76-12.96-5.27C103.2,108.88,103.12,93.24,103.62,87.89z"/>
		<path class="st0" d="M298.33,259.85c-3.85,1.67-5.6,6.19-3.85,9.95c1.92,4.35,3.09,8.87,3.6,13.55l14.14,138.51
			c0.84,8.28,7.78,14.55,16.14,14.55h24.42c8.36,0,15.31-6.27,16.14-14.55l14.14-138.51c0.5-4.6,1.59-9.03,3.43-13.3
			c1.51-2.76,11.63-21.24,15.31-35.05c2.76-10.2,8.78-54.7-1.92-65.41c-2.93-2.93-4.6-4.52-8.11-7.11
			c-12.38-9.12-27.18-15.14-27.85-15.39c-3.26-1.34-6.94-0.25-8.95,2.59l-14.39,19.74l-14.47-19.66c-2.43-3.43-7.19-4.1-10.62-1.67
			c-3.35,2.43-4.1,7.19-1.67,10.62l20.49,28.19c1.42,1.92,3.68,3.09,6.11,3.09c2.43,0,4.68-1.17,6.11-3.09l16.9-23.25
			c4.93,2.34,12.55,6.27,19.15,11.12c2.51,1.84,3.6,2.93,6.19,5.44c3.18,5.52,2.09,36.63-1.76,50.94
			c-3.51,12.8-14.05,31.78-14.14,31.95s-0.25,0.42-0.33,0.67c-2.51,5.77-4.18,11.88-4.77,18.15l-14.14,138.51
			c-0.08,0.5-0.5,0.92-1,0.92h-24.42c-0.5,0-1-0.42-1-0.92l-14.14-138.51c-0.67-6.27-2.26-12.38-4.77-18.15
			C306.61,259.85,302.18,258.18,298.33,259.85z"/>
		<path class="st0" d="M339.73,137.32c0.17,0,0.33,0,0.59,0c0.08,0,0.25,0,0.33,0c0.17,0,0.33,0,0.5,0
			c9.7-0.17,17.9-3.76,23.84-10.37c12.46-14.05,10.71-37.47,10.37-40.4c-1.25-25.84-19.15-34.96-34.21-34.96c-0.25,0-0.5,0-0.67,0
			c-0.17,0-0.42,0-0.67,0c-14.97,0-32.87,9.2-34.21,34.96c-0.25,2.93-2.09,26.35,10.37,40.4
			C321.84,133.56,330.03,137.07,339.73,137.32z M320.67,87.89c0-0.17,0-0.33,0-0.5c0.84-18.07,12.3-20.74,19.07-20.74h0.33
			c0.17,0,0.42,0,0.59,0h0.33c6.77,0,18.23,2.68,19.07,20.74c0,0.17,0,0.33,0,0.42c0.59,5.35,0.42,20.99-6.69,29.02
			c-3.09,3.51-7.36,5.19-12.96,5.27l0,0c-0.08,0-0.08,0-0.17,0c-5.6-0.08-9.87-1.76-12.96-5.27
			C320.25,108.88,320.16,93.24,320.67,87.89z"/>
		<path class="st0" d="M169.11,152.88c-11.29,11.29-4.93,58.38-1.92,69.25c4.01,14.64,14.72,34.38,16.31,37.22
			c2.01,4.6,3.26,9.37,3.76,14.3l15.06,147.62c0.84,8.61,8.03,15.06,16.73,15.06h26.01c8.61,0,15.81-6.52,16.73-15.06l15.06-147.62
			c0.5-4.93,1.76-9.79,3.76-14.3c1.59-2.93,12.3-22.58,16.31-37.22c2.93-10.87,9.37-57.96-1.92-69.25
			c-3.09-3.09-4.85-4.77-8.53-7.53c-13.13-9.7-28.94-16.06-29.61-16.39c-3.26-1.34-6.94-0.25-8.95,2.59l-15.98,21.66l-15.72-21.66
			c-2.01-2.84-5.77-3.85-8.95-2.59c-0.67,0.25-16.39,6.69-29.61,16.39C173.96,148.11,172.12,149.78,169.11,152.88z M179.98,163.42
			c2.76-2.76,3.93-3.85,6.69-5.85c7.19-5.35,15.56-9.62,20.91-12.13l18.23,25.09c1.42,1.92,3.68,3.09,6.11,3.09
			c2.43,0,4.68-1.17,6.11-3.09l18.23-25.09c5.27,2.51,13.63,6.77,20.91,12.13c2.76,2.01,3.93,3.09,6.69,5.85
			c3.51,5.69,2.43,39.23-1.84,54.7c-3.76,13.72-14.97,33.96-15.14,34.12c-0.08,0.17-0.25,0.42-0.33,0.67
			c-2.68,6.11-4.43,12.55-5.1,19.24l-15.06,147.62c-0.08,0.84-0.75,1.42-1.59,1.42h-26.01c-0.84,0-1.51-0.59-1.59-1.42
			l-15.06-147.62c-0.67-6.61-2.34-13.13-5.1-19.24c-0.08-0.25-0.17-0.42-0.33-0.67c-0.08-0.17-11.38-20.49-15.14-34.21
			C177.56,202.64,176.47,169.1,179.98,163.42z"/>
		<path class="st0" d="M231.17,117.5c0.17,0,0.42,0,0.59,0c0.08,0,0.33,0,0.42,0c0.17,0,0.33,0,0.5,0
			c10.37-0.17,18.74-3.85,25.01-10.96c13.22-14.8,11.21-39.73,10.96-42.74C267.3,36.62,248.48,27,232.68,27c-0.25,0-0.5,0-0.75,0
			c-0.17,0-0.42,0-0.75,0c-15.72,0-34.63,9.62-35.97,36.8c-0.25,3.01-2.26,27.85,10.96,42.66
			C212.44,113.57,220.88,117.25,231.17,117.5z M210.34,65.22c0-0.17,0-0.33,0-0.5c0.92-20.41,14.89-22.58,20.83-22.58h0.42
			c0.17,0,0.42,0,0.59,0h0.42c5.94,0,19.91,2.17,20.83,22.58c0,0.17,0,0.33,0,0.42c0.59,5.77,0.5,22.67-7.19,31.28
			c-3.43,3.85-8.11,5.77-14.22,5.77c-0.08,0-0.17,0-0.25,0c-6.11-0.08-10.79-1.92-14.22-5.77
			C209.84,87.89,209.76,70.99,210.34,65.22z"/>
	</g>
</g>
</svg>


		<svg version="1.1" id="ba-lavori-commissione" xmlns="http://www.w3.org/2000/svg" xmlns:xlink="http://www.w3.org/1999/xlink" x="0px" y="0px"
			 viewBox="0 0 463.01 463.01" style="enable-background:new 0 0 463.01 463.01;" xml:space="preserve">

<g>
	<path class="st0" d="M220.52,78.43c-6.71-3.8-14.67-3.68-21.27,0.3c-0.32,0.19-0.62,0.41-0.89,0.64l-93.26,78.89H31.92
		c-3.81,0-6.88,3.08-6.88,6.88v130.76c0,1.83,0.72,3.58,2.02,4.87c1.29,1.29,3.04,2.02,4.87,2.02l73.02-0.03l93.21,85.62
		c0.34,0.32,0.72,0.59,1.11,0.83c3.39,2.04,7.14,3.07,10.89,3.07c3.56-0.01,7.11-0.92,10.38-2.77c6.88-3.88,10.98-10.97,10.98-18.97
		V97.4C231.51,89.4,227.4,82.32,220.52,78.43z M217.74,370.53c0,2.97-1.49,5.57-3.98,6.99c-1.07,0.6-3.77,1.76-6.88,0.18
		l-92.37-84.85v-31.36c0-3.81-3.08-6.88-6.88-6.88c-3.81,0-6.88,3.08-6.88,6.88v27.5l-61.94,0.03v-117h61.94v27.53
		c0,3.81,3.08,6.88,6.88,6.88c3.81,0,6.88-3.08,6.88-6.88v-31.22l92.26-78.05c3.17-1.67,5.93-0.48,6.99,0.12
		c2.49,1.41,3.98,4.02,3.98,6.99V370.53z"/>
	<path class="st0" d="M383.1,230.53c0-57.45-36.59-108.47-91.05-126.96c-3.59-1.22-7.51,0.71-8.73,4.31
		c-1.22,3.59,0.71,7.51,4.31,8.73c48.87,16.59,81.71,62.37,81.71,113.92c0,51.5-32.77,97.29-81.55,113.93
		c-3.59,1.23-5.52,5.13-4.29,8.74c0.98,2.86,3.65,4.66,6.51,4.66c0.74,0,1.49-0.12,2.22-0.37
		C346.58,338.94,383.1,287.93,383.1,230.53z"/>
	<path class="st0" d="M330.98,68.9c-3.5-1.47-7.54,0.14-9.03,3.65c-1.48,3.5,0.15,7.54,3.65,9.03
		c59.9,25.42,98.61,83.89,98.61,148.95c0,67.29-40.56,126.5-103.34,150.82c-3.54,1.38-5.31,5.36-3.93,8.91
		c1.05,2.73,3.66,4.4,6.42,4.4c0.83,0,1.67-0.14,2.48-0.46c68.11-26.41,112.13-90.65,112.13-163.66
		C437.98,159.93,395.97,96.49,330.98,68.9z"/>
	<path class="st0" d="M321.15,230.53c0-41.1-27.59-77.78-67.1-89.21c-3.65-1.04-7.46,1.05-8.52,4.71c-1.05,3.65,1.05,7.47,4.71,8.52
		c33.65,9.72,57.15,40.97,57.15,75.98s-23.5,66.26-57.15,75.98c-3.65,1.05-5.76,4.87-4.71,8.52c0.87,3.01,3.62,4.98,6.61,4.98
		c0.63,0,1.27-0.09,1.91-0.27C293.57,308.3,321.15,271.62,321.15,230.53z"/>
</g>
</svg>
		<svg version="1.1" id="ba-lavori-consiglio" xmlns="http://www.w3.org/2000/svg" xmlns:xlink="http://www.w3.org/1999/xlink" x="0px" y="0px"
			 viewBox="0 0 463.01 463.01" style="enable-background:new 0 0 463.01 463.01;" xml:space="preserve">

<path class="st0" d="M118.76,30.11c-10.36,0-20.31,4.43-27.31,12.17c-6.88,7.61-10.27,17.81-9.35,28.01h-0.17v327.83
	c0,18.62,15.15,33.76,33.76,33.76h267.57V103.77V90.38V30.11H118.76z M95.32,398.12V97.06c5.6,4.21,12.56,6.71,20.09,6.71v314.69
	C104.31,418.31,95.32,409.26,95.32,398.12z M369.87,418.49H128.8V103.77h20.09v168.75c0,0.72,0.07,1.41,0.21,2.08
	c0.02,0.09,0.06,0.18,0.09,0.27c0.13,0.58,0.3,1.15,0.53,1.68c0.03,0.07,0.07,0.13,0.11,0.19c0.25,0.56,0.56,1.1,0.9,1.59
	c0.02,0.03,0.05,0.06,0.07,0.09c0.38,0.53,0.81,1.01,1.29,1.45c0.01,0.01,0.02,0.02,0.03,0.03c0.03,0.02,0.05,0.03,0.08,0.05
	c1.77,1.6,4.12,2.58,6.76,2.58c2.76,0,5.3-1.15,7.16-3.09c0.54-0.53,1.01-1.12,1.41-1.79l28.24-47.06L224,277.69
	c0.73,1.21,1.71,2.16,2.81,2.95c1.66,1.2,3.63,1.93,5.76,1.93c1.28,0,2.48-0.25,3.59-0.67c0.03-0.01,0.07-0.02,0.11-0.03
	c1.16-0.44,2.2-1.1,3.09-1.92c0.01-0.01,0.03-0.01,0.04-0.03c0.01-0.01,0.02-0.02,0.03-0.03c0.48-0.44,0.9-0.92,1.29-1.45
	c0.03-0.03,0.05-0.06,0.08-0.1c0.35-0.5,0.65-1.03,0.9-1.59c0.03-0.07,0.07-0.13,0.11-0.2c0.23-0.53,0.39-1.08,0.52-1.65
	c0.03-0.11,0.07-0.2,0.09-0.31c0.13-0.67,0.21-1.37,0.21-2.08V103.77h127.23V418.49z M246.78,90.38l13.39-26.78h-95.33l-13.39,26.78
	h-31.27c-12.68,0-23.54-9.23-24.73-21.03c-0.68-6.68,1.43-13.1,5.94-18.09c4.45-4.94,10.79-7.76,17.37-7.76h251.11v6.7h-33.48
	c-3.7,0-6.7,2.99-6.7,6.7c0,3.7,2.99,6.7,6.7,6.7h33.48v6.7h-26.78c-3.7,0-6.7,2.99-6.7,6.7c0,3.7,2.99,6.7,6.7,6.7h26.78v6.7
	H246.78z"/>
</svg>

		<svg version="1.1" id="ba-leggi-atti" xmlns="http://www.w3.org/2000/svg" xmlns:xlink="http://www.w3.org/1999/xlink" x="0px" y="0px"
			 viewBox="0 0 463.01 463.01" style="enable-background:new 0 0 463.01 463.01;" xml:space="preserve">
<g>
	<g>
		<g>
			<g>
				<path d="M295.84,427.41H37.5v-58.3c0-19.41,15.79-35.2,35.19-35.2h187.95c19.4,0,35.19,15.79,35.19,35.2V427.41z M51.42,413.49
					h230.5v-44.39c0-11.73-9.54-21.28-21.28-21.28H72.69c-11.73,0-21.28,9.55-21.28,21.28V413.49z"/>
			</g>
		</g>
	</g>
	<g>
		<g>
			<g>
				<path d="M403.19,381.32c-6.49,0-12.59-2.52-17.17-7.11L219.43,207.63l-24.38,24.33c3.19,7.59,1.72,16.72-4.39,22.89
					c-8.12,8.12-21.36,8.14-29.52,0.05l-71.42-71.47c-3.94-3.9-6.13-9.15-6.13-14.73c0-5.59,2.19-10.83,6.16-14.76
					c3.87-3.92,9.11-6.11,14.7-6.11h0c2.85,0,5.61,0.57,8.14,1.65l83-82.94c-1.09-2.55-1.67-5.32-1.67-8.18
					c0-5.59,2.19-10.83,6.16-14.76c7.75-7.84,21.6-7.9,29.47,0.05l71.42,71.36c8.07,8.15,8.07,21.38,0.03,29.5
					c-6.17,6.17-15.3,7.7-22.93,4.47l-24.34,24.3l166.63,166.64c4.58,4.58,7.11,10.67,7.11,17.14c0,6.47-2.52,12.56-7.11,17.15
					C415.77,378.8,409.68,381.32,403.19,381.32z M219.43,187.95l176.42,176.42c3.91,3.91,10.75,3.91,14.65,0
					c1.96-1.95,3.03-4.55,3.03-7.3c0-2.75-1.08-5.34-3.03-7.3v0L234.03,173.28l42.69-42.61l4.9,4.32c2.69,2.38,6.97,2.25,9.51-0.29
					c2.72-2.75,2.72-7.09-0.03-9.87l-71.42-71.36c-2.65-2.68-7.16-2.65-9.76-0.03c-1.37,1.35-2.09,3.08-2.09,4.92
					c0,1.83,0.71,3.55,2.01,4.84l0.02,0.02c0,0,0,0,0,0l0.01,0.01l-4.9,4.94l4.33,4.33l-90.72,90.66l-4.2-4.2l-5.08,4.82
					c-2.59-2.62-7.14-2.63-9.73,0c-1.36,1.35-2.09,3.08-2.09,4.92c0,1.84,0.72,3.57,2.03,4.87l71.42,71.47
					c2.71,2.69,7.14,2.7,9.84,0c2.72-2.75,2.72-7.09-0.02-9.86l4.93-4.92l-4.31-4.32L219.43,187.95z"/>
			</g>
		</g>
	</g>
</g>
</svg>

		<svg version="1.1" id="ba-presidente" xmlns="http://www.w3.org/2000/svg" xmlns:xlink="http://www.w3.org/1999/xlink" x="0px" y="0px"
			 viewBox="0 0 283.5 283.5" style="enable-background:new 0 0 283.5 283.5;" xml:space="preserve">
<path d="M230.5,214.2c-3.8-18.3-11.7-22.1-12.8-22.5l0,0.1c-0.1-0.1-0.1-0.1-0.2-0.2c-4-3.8-8-6.2-10.8-7.6l-9.3-4l-16.4-6.8
	l-15.5-10.2c0,0,0,0,0,0v-5.5c4.7-2.4,8.9-5.7,12.3-9.7c0,0,3.9-3.3,6.3-9.5c0.9-2,1.7-4.1,2.3-6.2l3.1-2c0,0,5.4-2.9,9.7-8.2V121v0
	l0,0c0.9-1,1.8-2,2.5-3.2c0.1,0,0.2,0,0.3,0c1.5-2.8,2.6-5.9,2.6-9.5c0-0.3,0-0.6,0-0.8c0-5.1-2-9.8-5.2-13.2V75.2
	c0-8.7-2-16.9-5.7-24.3c-2.2-5.2-5.4-8.8-5.4-8.8C183,35,176,29.3,167.9,25.4c-7.7-4.4-9.2-3.4-9.2-3.4c-4.6-1.2-9.4-1.9-14.4-1.9
	h-4.2c-5.2,0-10.3,0.8-15.1,2.1c0,0-3.8,0.8-9.1,3.4c0,0,0,0,0,0.1c-4.8,2.4-9.2,5.4-13.1,9c0,0-0.1,0.1-0.1,0.1
	c-1.1,1-2.1,2.1-3.1,3.1c-5.5,6.1-10.5,14.3-13.3,25.6c0,0,0,0,0,0.1l-1.1,7.6c-0.1,1.3-0.1,2.6-0.1,3.9v19.3
	c-1.9,2.2-3.4,4.7-4.2,7.6l-0.8,5.4c0,0,1.1,7.3,3.7,11.4c0.2,0.3,0.5,0.7,0.7,1c2.4,2.9,5.4,7.6,9.8,10.7c0-0.2,0-0.4,0-0.6
	l4.3,2.8c0.5,1.5,1,2.9,1.6,4.4c0,0,1.3,5,6.1,9.8c3.6,4.3,7.9,7.8,12.9,10.4v5.1l-15.7,10.4c-0.2,0.1-0.4,0.1-0.6,0.2L86.3,180
	c0,0-3.6,0.7-9.3,4v0c-0.2,0.1-0.4,0.2-0.5,0.3c-3,1.7-6.5,4.1-10.3,7.4c-0.1,0.1-0.1,0.1-0.2,0.2v0c-7.3,6.3-11.1,14.6-12.8,22.4h0
	c-0.4,1.9-0.8,3.8-1,5.9c0,0.1,0,0.2,0,0.2c-0.1,0.9-0.2,1.9-0.3,2.9c0,0.2,0,0.4,0,0.7c-0.1,1-0.1,2-0.1,3v31.3
	c0,2.7,2.2,4.9,4.9,4.9h58.1h12.9H157h0h11.9h2.8c2.7,0,4.9-2.2,4.9-4.9s-2.2-4.9-4.9-4.9h-2.8h-7.7l-5.9-36.6l2.3-6.2l3.5,2.6
	c0.8,0.6,1.9,1,2.9,1c0.4,0,0.8,0,1.2-0.1c1.4-0.3,2.6-1.3,3.2-2.6l13.3-27.3l17.7,7.4c0.1,0,0.2,0.1,0.3,0.1
	c0.2,0.1,22.4,7.9,22.4,35.4v26.4h-20.3v-27.9c0-2.7-2.2-4.9-4.9-4.9s-4.9,2.2-4.9,4.9v27.9h-5.2c-2.7,0-4.9,2.2-4.9,4.9
	s2.2,4.9,4.9,4.9H227c2.7,0,4.9-2.3,4.9-5V227C231.9,222.2,231.4,218,230.5,214.2z M194.9,107.5c0,2.5-0.9,4.7-2.4,6.4
	c-0.9,0.4-1.7,1-2.2,1.9c-0.7,0.4-1.4,0.8-2.2,1V98.2C192,99.4,194.9,103.1,194.9,107.5z M96.7,116.8c-4-1.2-6.8-4.9-6.8-9.3
	c0-4.4,2.9-8.1,6.8-9.3V116.8z M101.6,84.2C101.6,84.2,101.6,84.2,101.6,84.2c-0.2,0-0.4,0-0.5,0c0,0-0.1,0-0.1,0
	c-0.1,0-0.2,0-0.4,0.1c0,0-0.1,0-0.1,0c-0.1,0-0.2,0.1-0.3,0.1c-0.1,0-0.1,0-0.2,0.1c-0.1,0-0.2,0.1-0.3,0.1c-0.1,0-0.1,0.1-0.2,0.1
	c-0.1,0-0.1,0.1-0.2,0.1c-0.1,0-0.1,0.1-0.2,0.1c-0.1,0-0.1,0.1-0.2,0.1c-0.1,0-0.1,0.1-0.2,0.1c-0.1,0-0.1,0.1-0.2,0.1
	c-0.1,0.1-0.1,0.1-0.2,0.2c-0.1,0.1-0.1,0.1-0.2,0.2c-0.1,0.1-0.1,0.1-0.2,0.2c-0.1,0.1-0.1,0.1-0.2,0.2c0,0.1-0.1,0.1-0.1,0.2
	c0,0.1-0.1,0.1-0.1,0.2c0,0.1-0.1,0.1-0.1,0.2c0,0.1-0.1,0.1-0.1,0.2c0,0.1-0.1,0.1-0.1,0.2c0,0.1-0.1,0.1-0.1,0.2
	c0,0.1-0.1,0.1-0.1,0.2c0,0.1-0.1,0.2-0.1,0.2c0,0.1,0,0.2-0.1,0.2c0,0.1,0,0.2-0.1,0.2c0,0,0,0,0,0c-0.7,0.1-1.3,0.2-1.9,0.4V75.2
	c0-25,20.3-45.3,45.3-45.3h4.2l0,0c25,0,45.3,20.3,45.3,45.3v13.3c-0.6-0.1-1.1-0.2-1.7-0.3c0-0.1,0-0.1,0-0.2c0-0.1,0-0.2-0.1-0.2
	c0-0.1-0.1-0.2-0.1-0.2c0-0.1,0-0.1-0.1-0.2c0-0.1-0.1-0.2-0.1-0.2c0-0.1-0.1-0.1-0.1-0.2c0-0.1-0.1-0.2-0.1-0.2
	c0-0.1-0.1-0.1-0.1-0.2c0-0.1-0.1-0.1-0.1-0.2c0-0.1-0.1-0.1-0.1-0.2c0-0.1-0.1-0.1-0.1-0.2c-0.1-0.1-0.1-0.1-0.2-0.2
	c0,0-0.1-0.1-0.1-0.1c-0.1-0.1-0.1-0.1-0.2-0.2c0,0-0.1-0.1-0.2-0.1c-0.1-0.1-0.1-0.1-0.2-0.2c-0.1,0-0.1-0.1-0.2-0.1
	c-0.1,0-0.1-0.1-0.2-0.1c-0.1,0-0.1-0.1-0.2-0.1c-0.1,0-0.1-0.1-0.2-0.1c-0.1,0-0.2-0.1-0.3-0.1c-0.1,0-0.1,0-0.2-0.1
	c-0.1,0-0.2-0.1-0.3-0.1c0,0-0.1,0-0.1,0c-14.6-3.3-19.1-21.9-19.1-22.1c-0.4-1.9-1.9-3.3-3.8-3.7c-1.9-0.4-3.8,0.4-4.9,1.9
	C139.4,84,102.2,84.2,101.6,84.2z M106.5,120.4V93.8c10.5-0.8,35.3-4.3,52.1-20.9c3.1,6.8,9.1,15.9,19.7,19.8v27.7l0,0
	c0,17.6-14.3,31.9-31.9,31.9h-8C120.8,152.3,106.5,138,106.5,120.4z M142.2,186l-13.1-12.8c0-0.1,0-0.2,0-0.3v-7.8c0,0,0,0,0,0V161
	c3,0.7,6.1,1.1,9.3,1.1h8c3.1,0,6.1-0.3,9-1c0.1,0,0.2,0,0.3,0V172L142.2,186z M149.4,204.6l-2.5,6.8h-9.1l-2.9-6.9l7.2-5.3
	L149.4,204.6z M119.4,174.2c-0.4,1.6,0,3.4,1.3,4.7l14,13.6l-12.7,9.4l-10.8-22.2L119.4,174.2z M123.5,253.4h-8.7H91.7l0,0v-27.9
	c0-2.7-2.2-4.9-4.9-4.9c-2.7,0-4.9,2.2-4.9,4.9v27.9H61.6v-26.4c0-27.3,21.5-35,22.4-35.4c0.1,0,0.2-0.1,0.3-0.1l18.1-7.5l13.4,27.5
	c0.6,1.3,1.8,2.3,3.2,2.6c0.4,0.1,0.8,0.1,1.2,0.1c1,0,2.1-0.3,2.9-1l3.7-2.7l2.7,6.4L123.5,253.4z M133.5,253.4l5.2-32.2h7.4
	l5.2,32.2H133.5z M162.2,201.8l-3.9-2.8c0,0,0,0,0,0l-8.8-6.4l14.6-15.1c0.8-0.8,1.2-1.8,1.3-2.8l7.6,5L162.2,201.8z"/>
</svg>

		<svg version="1.1" id="ba-servizi" xmlns="http://www.w3.org/2000/svg" xmlns:xlink="http://www.w3.org/1999/xlink" x="0px" y="0px"
			 viewBox="0 0 463.01 463.01" style="enable-background:new 0 0 463.01 463.01;" xml:space="preserve">

			<g>
	<g>
		<path class="st0" d="M379.66,74.64c-11.58,0-21.55,7.04-29.93,18.71L72.11,190.89c-5.31-7.5-11.94-11.67-19.26-11.67
			c-17.39,0-30.5,22.48-30.5,52.29s13.11,52.29,30.5,52.29c7.32,0,13.95-4.17,19.26-11.67l51.6,18.13l-9.54,19.73
			c-0.08,0.16-0.14,0.32-0.21,0.49c-2.93,5.24-4.47,11.06-4.47,16.89c0,11.45,5.53,21.95,14.91,28.49c0.68,0.67,1.52,1.21,2.57,1.61
			c3.55,2.06,7.29,3.46,9.63,3.74l60.64,22.74c5.22,2.9,11.01,4.43,16.83,4.43c12.15,0,23.23-6.24,29.65-16.68l-0.13-0.08
			c0.4-0.53,0.76-1.06,1.03-1.57c0.78-1.42,1.47-2.87,1.79-3.79l13.12-28.28l90.19,31.69c8.38,11.66,18.36,18.71,29.93,18.71
			c39.63,0,61-80.83,61-156.87S419.28,74.64,379.66,74.64z M230.35,359.54c-0.28,0.74-0.63,1.44-1,2.13
			c-0.03,0.07-0.17,0.35-0.32,0.67c-0.05,0.08-0.1,0.15-0.15,0.23c-4.88,7.96-15.44,10.82-23.75,5.8c-0.75-0.46-1.57-0.79-2.42-1
			l-61.48-22.9c-1.86-0.34-3.71-1.04-5.51-2.09c-0.09-0.06-0.22-0.12-0.37-0.19c-0.02-0.02-0.03-0.03-0.04-0.03
			c-5.24-3.22-8.37-8.75-8.37-14.79c0-3.11,0.87-6.13,2.59-8.97c0.31-0.53,0.58-1.1,0.77-1.69l9.98-20.65l102.76,36.1L230.35,359.54
			z M60.09,249.43c-4.55-1.63-9.51,0.77-11.11,5.34c-1.6,4.53,0.79,9.51,5.33,11.1c-0.55,0.33-1.05,0.5-1.46,0.5
			c-4.61,0-13.07-13.23-13.07-34.86s8.46-34.86,13.07-34.86c0.41,0,0.91,0.17,1.46,0.5c-4.54,1.59-6.93,6.57-5.33,11.1
			c1.26,3.59,4.62,5.83,8.22,5.83c0.96,0,1.93-0.15,2.88-0.49l277.45-97.48c-12.39,30.47-18.89,73.62-18.89,115.41
			s6.49,84.94,18.89,115.41L60.09,249.43z M379.66,370.94c-18.2,0-43.57-53.05-43.57-139.44s25.38-139.44,43.57-139.44
			c18.2,0,43.57,53.05,43.57,139.44S397.85,370.94,379.66,370.94z"/>
	</g>
</g>
</svg>
		<!-- Generator: Adobe Illustrator 23.0.2, SVG Export Plug-In . SVG Version: 6.00 Build 0)  -->
		<svg version="1.1" id="ba-ufficio-presidenza" xmlns="http://www.w3.org/2000/svg" xmlns:xlink="http://www.w3.org/1999/xlink" x="0px" y="0px"
			 viewBox="0 0 463.01 463.01" style="enable-background:new 0 0 463.01 463.01;" xml:space="preserve">

			<g>
	<g>
		<g>
			<g>
				<path class="st0" d="M231.84,117.31c-22.26,0-40.38-18.11-40.38-40.38s18.11-40.38,40.38-40.38s40.38,18.11,40.38,40.38
					S254.1,117.31,231.84,117.31z M231.84,46.1c-17,0-30.83,13.83-30.83,30.83s13.83,30.83,30.83,30.83s30.83-13.83,30.83-30.83
					S248.84,46.1,231.84,46.1z"/>
			</g>
		</g>
	</g>
				<g>
		<g>
			<g>
				<path class="st0" d="M303.05,212.25c-15.72,0-28.51-12.79-28.51-28.51v-18.96h-85.39v18.96c0,15.72-12.79,28.51-28.51,28.51
					s-28.51-12.79-28.51-28.51v-47.47c0-24.23,17.2-45.65,40.9-50.93l4.64-1.04l1.05,4.64c5.58,24.65,27.92,42.55,53.12,42.55
					c25.2,0,47.54-17.89,53.12-42.55l1.05-4.64l4.64,1.04c23.7,5.28,40.9,26.7,40.9,50.93v47.47
					C331.56,199.46,318.77,212.25,303.05,212.25z M179.6,155.23h104.49v28.51c0,10.45,8.51,18.96,18.96,18.96
					c10.45,0,18.96-8.51,18.96-18.96v-47.47c0-18.26-11.97-34.57-29.03-40.38c-3.75,12.03-11.05,22.85-20.9,30.86
					c-11.34,9.22-25.63,14.29-40.24,14.29c-14.6,0-28.89-5.08-40.24-14.29c-9.85-8-17.15-18.83-20.9-30.86
					c-17.06,5.8-29.03,22.11-29.03,40.37v47.47c0,10.45,8.51,18.96,18.96,18.96s18.96-8.51,18.96-18.96V155.23z"/>
			</g>
		</g>
	</g>
				<g>
		<g>
			<g>
				<path class="st0" d="M398.09,402.6c-7.11,0-14.07-1.84-20.3-5.43c-9.34-5.39-16.02-14.1-18.81-24.52
					c-2.79-10.42-1.36-21.3,4.03-30.64c11.13-19.28,35.87-25.91,55.16-14.78l0,0c9.37,5.41,16.18,14.08,19.18,24.42
					c3.05,10.5,1.77,21.42-3.61,30.73c-5.39,9.33-14.24,16.02-24.94,18.82C405.25,402.14,401.65,402.6,398.09,402.6z M398.03,331.38
					c-10.66,0-21.04,5.53-26.75,15.41c-4.12,7.13-5.21,15.44-3.08,23.39c2.13,7.95,7.23,14.6,14.36,18.72
					c7.16,4.13,15.61,5.22,23.81,3.07c8.21-2.15,14.99-7.25,19.09-14.36c4.07-7.04,5.03-15.32,2.71-23.3
					c-2.31-7.96-7.56-14.64-14.79-18.81l0,0C408.55,332.71,403.26,331.38,398.03,331.38z"/>
			</g>
		</g>
	</g>
				<g>
		<g>
			<g>
				<path class="st0" d="M322.63,425.78c-8.91,0-17.85-2.25-25.9-6.89l-41.11-23.73c-6.58-3.8-11.3-9.95-13.27-17.31
					c-1.97-7.36-0.97-15.05,2.84-21.63c3.8-6.58,9.95-11.3,17.31-13.27c7.36-1.97,15.04-0.97,21.63,2.84l16.42,9.48l42.7-73.95
					l-16.42-9.48c-13.61-7.86-18.3-25.33-10.44-38.94c7.86-13.61,25.33-18.3,38.94-10.44l41.11,23.74
					c20.99,12.11,30.93,37.72,23.66,60.88l-1.43,4.54l-4.54-1.41c-24.15-7.5-50.81,2.91-63.41,24.73
					c-12.6,21.82-8.27,50.12,10.29,67.28l3.49,3.23l-3.22,3.5C351.17,419.96,336.96,425.78,322.63,425.78z M269.93,351.5
					c-1.65,0-3.32,0.22-4.96,0.66c-4.9,1.31-8.99,4.45-11.52,8.82c-2.53,4.38-3.2,9.48-1.88,14.38c1.31,4.9,4.45,8.99,8.82,11.52
					l41.11,23.73c15.82,9.13,35.92,6.92,49.48-4.95c-8.55-9.26-14.27-20.99-16.27-33.53c-2.31-14.43,0.44-29.34,7.74-41.99
					c7.3-12.65,18.84-22.48,32.49-27.7c11.86-4.53,24.88-5.44,37.17-2.67c3.51-17.68-4.63-36.2-20.45-45.33h0l-41.11-23.73
					c-9.05-5.23-20.67-2.11-25.9,6.94c-5.23,9.05-2.11,20.67,6.94,25.9l24.69,14.25l-52.24,90.49l-24.69-14.25
					C276.45,352.36,273.21,351.5,269.93,351.5z"/>
			</g>
		</g>
	</g>
				<g>
		<g>
			<g>
				<path class="st0" d="M65.59,402.6c-3.56,0-7.15-0.46-10.71-1.39c-10.69-2.8-19.55-9.49-24.94-18.82
					c-5.38-9.32-6.66-20.23-3.61-30.74c3-10.34,9.82-19.01,19.18-24.42c9.34-5.39,20.22-6.83,30.64-4.04
					c10.42,2.79,19.12,9.47,24.52,18.81c5.39,9.34,6.82,20.22,4.03,30.64s-9.47,19.12-18.81,24.52
					C79.67,400.76,72.7,402.6,65.59,402.6z M65.66,331.36c-5.34,0-10.61,1.4-15.37,4.14c-7.22,4.17-12.47,10.85-14.79,18.81
					c-2.32,7.98-1.35,16.25,2.71,23.3c4.1,7.11,10.88,12.21,19.09,14.36c8.2,2.15,16.66,1.06,23.81-3.07
					c7.13-4.12,12.23-10.76,14.36-18.72c2.13-7.95,1.04-16.26-3.08-23.39h0c-4.12-7.13-10.76-12.23-18.72-14.36
					C71.03,331.71,68.33,331.36,65.66,331.36z"/>
			</g>
		</g>
	</g>
				<g>
		<g>
			<g>
				<path class="st0" d="M141.05,425.78c-14.32,0-28.53-5.82-38.66-16.85l-3.22-3.5l3.49-3.23c18.56-17.16,22.89-45.46,10.29-67.28
					c-12.6-21.82-39.27-32.22-63.41-24.73l-4.54,1.41l-1.43-4.54c-7.28-23.16,2.67-48.77,23.66-60.88l41.11-23.73
					c13.61-7.86,31.08-3.18,38.94,10.44c7.86,13.61,3.18,31.08-10.44,38.94l-16.42,9.48l42.69,73.95l16.42-9.48
					c6.58-3.8,14.27-4.81,21.63-2.84c7.36,1.97,13.51,6.69,17.31,13.27l0,0c7.86,13.61,3.18,31.08-10.43,38.95l-41.11,23.74
					C158.91,423.53,149.96,425.78,141.05,425.78z M112.7,405.67c13.56,11.88,33.66,14.08,49.48,4.95l41.11-23.74
					c9.05-5.23,12.17-16.85,6.94-25.9l0,0c-2.53-4.38-6.62-7.51-11.52-8.82c-4.9-1.31-10.01-0.64-14.38,1.88l-24.69,14.25
					l-52.24-90.49l24.69-14.25c9.05-5.23,12.17-16.85,6.94-25.9c-5.23-9.05-16.85-12.17-25.9-6.94l-41.11,23.73
					c-15.82,9.13-23.96,27.65-20.45,45.33c12.29-2.77,25.32-1.86,37.17,2.67c13.65,5.21,25.19,15.05,32.5,27.7
					c7.3,12.65,10.05,27.56,7.74,41.99C126.96,384.67,121.24,396.4,112.7,405.67z"/>
			</g>
		</g>
	</g>
</g>
</svg>

		<svg version="1.1" id="ba-urp" xmlns="http://www.w3.org/2000/svg" xmlns:xlink="http://www.w3.org/1999/xlink" x="0px" y="0px"
			 viewBox="0 0 463.01 463.01" style="enable-background:new 0 0 463.01 463.01;" xml:space="preserve">

			<path class="st0" d="M436.59,231.49c0-113.06-91.99-205.05-205.05-205.05S26.5,118.43,26.5,231.49
	c0,59.72,25.68,113.54,66.55,151.05l-0.19,0.17l6.65,5.61c0.43,0.37,0.9,0.66,1.33,1.02c3.53,2.93,7.2,5.71,10.92,8.4
	c1.21,0.87,2.42,1.74,3.65,2.59c3.98,2.74,8.07,5.35,12.24,7.81c0.91,0.54,1.83,1.06,2.74,1.58c4.57,2.6,9.24,5.06,14.02,7.31
	c0.35,0.16,0.71,0.31,1.06,0.48c15.58,7.24,32.2,12.56,49.59,15.7c0.45,0.08,0.91,0.16,1.37,0.25c5.4,0.93,10.86,1.68,16.38,2.18
	c0.67,0.06,1.34,0.1,2.02,0.16c5.5,0.45,11.06,0.75,16.7,0.75c5.58,0,11.09-0.29,16.57-0.73c0.69-0.06,1.39-0.1,2.08-0.16
	c5.48-0.5,10.89-1.22,16.24-2.14c0.46-0.08,0.93-0.16,1.39-0.25c17.13-3.07,33.52-8.27,48.89-15.32c0.57-0.26,1.14-0.51,1.71-0.78
	c4.6-2.16,9.1-4.5,13.5-6.98c1.1-0.62,2.18-1.25,3.27-1.89c4.01-2.36,7.96-4.83,11.79-7.46c1.38-0.94,2.73-1.93,4.09-2.92
	c3.27-2.36,6.49-4.79,9.61-7.33c0.69-0.56,1.44-1.04,2.12-1.62l6.82-5.7l-0.2-0.17C410.67,345.59,436.59,291.51,436.59,231.49z
	 M41.41,231.49c0-104.84,85.29-190.13,190.13-190.13s190.13,85.29,190.13,190.13c0,56.5-24.79,107.29-64.04,142.14
	c-2.19-1.51-4.4-2.87-6.66-4l-63.13-31.56c-5.67-2.83-9.19-8.53-9.19-14.86v-22.05c1.46-1.8,3-3.85,4.6-6.09
	c8.17-11.54,14.73-24.38,19.51-38.2c9.45-4.49,15.55-13.9,15.55-24.52v-26.43c0-6.46-2.37-12.74-6.61-17.66v-34.8
	c0.39-3.87,1.76-25.71-14.04-43.72c-13.74-15.69-35.98-23.63-66.11-23.63c-30.13,0-52.37,7.94-66.11,23.62
	c-15.8,18.01-14.43,39.85-14.04,43.72v34.8c-4.24,4.93-6.61,11.2-6.61,17.66v26.43c0,8.21,3.68,15.87,9.99,21.03
	c6.04,23.66,18.47,41.57,23.06,47.64v21.58c0,6.08-3.32,11.68-8.66,14.6l-58.96,32.16c-1.88,1.02-3.74,2.21-5.61,3.55
	C65.84,338.06,41.41,287.58,41.41,231.49z M343.08,385.33c-2.61,1.89-5.26,3.73-7.96,5.48c-1.24,0.81-2.47,1.61-3.73,2.39
	c-3.52,2.18-7.1,4.25-10.75,6.19c-0.81,0.43-1.62,0.83-2.43,1.25c-8.4,4.3-17.08,8-26.01,11.01c-0.31,0.1-0.63,0.22-0.95,0.32
	c-4.68,1.55-9.41,2.93-14.2,4.12c-0.01,0-0.03,0.01-0.04,0.01c-4.83,1.19-9.72,2.18-14.64,3c-0.13,0.02-0.27,0.05-0.4,0.07
	c-4.63,0.75-9.3,1.3-13.98,1.71c-0.83,0.07-1.66,0.13-2.49,0.19c-4.63,0.35-9.28,0.57-13.96,0.57c-4.73,0-9.44-0.23-14.13-0.58
	c-0.81-0.06-1.63-0.11-2.43-0.19c-4.73-0.42-9.43-0.98-14.09-1.74c-0.21-0.04-0.42-0.07-0.63-0.11c-9.86-1.65-19.56-4.07-29-7.24
	c-0.29-0.1-0.59-0.2-0.88-0.3c-4.69-1.6-9.33-3.36-13.88-5.32c-0.03-0.01-0.07-0.03-0.1-0.04c-4.31-1.86-8.54-3.91-12.71-6.08
	c-0.54-0.28-1.1-0.55-1.63-0.84c-3.81-2.04-7.54-4.24-11.21-6.53c-1.09-0.69-2.17-1.38-3.24-2.08c-3.39-2.21-6.73-4.52-9.98-6.96
	c-0.34-0.25-0.66-0.52-0.99-0.78c0.24-0.13,0.48-0.27,0.72-0.4l58.96-32.16c10.14-5.53,16.44-16.14,16.44-27.69l-0.01-26.86
	l-1.71-2.07c-0.16-0.19-16.28-19.8-22.38-46.35l-0.68-2.95l-2.54-1.65c-3.59-2.32-5.73-6.2-5.73-10.38V205.9
	c0-3.47,1.47-6.7,4.15-9.12l2.46-2.22v-41.53l-0.07-0.98c-0.02-0.18-2.22-18.11,10.41-32.51c10.78-12.29,29.26-18.53,54.9-18.53
	c25.54,0,43.96,6.19,54.77,18.39c12.62,14.25,10.55,32.52,10.54,32.67l-0.07,42.51l2.46,2.22c2.68,2.42,4.15,5.65,4.15,9.12v26.43
	c0,5.32-3.62,10.14-8.81,11.74l-3.71,1.14l-1.19,3.69c-4.4,13.67-10.66,26.29-18.61,37.52c-1.95,2.76-3.85,5.2-5.49,7.08l-1.85,2.11
	v27.58c0,12.02,6.68,22.83,17.43,28.2l63.13,31.56c0.4,0.2,0.8,0.41,1.19,0.62C344.71,384.19,343.89,384.75,343.08,385.33z"/>
</svg>

		<svg version="1.1" id="ba-bullet" xmlns="http://www.w3.org/2000/svg" xmlns:xlink="http://www.w3.org/1999/xlink" x="0px" y="0px"
			 viewBox="0 0 283.5 283.5" style="enable-background:new 0 0 283.5 283.5;" xml:space="preserve">

			<circle class="st0" cx="141.7" cy="141.7" r="115.8"/>
</svg>
		<svg version="1.1" id="ba-news" xmlns="http://www.w3.org/2000/svg" xmlns:xlink="http://www.w3.org/1999/xlink" x="0px" y="0px"
			 viewBox="0 0 463 463" style="enable-background:new 0 0 463 463;" xml:space="preserve">

			<g>
	<path class="st0" d="M243,164.8h-88.9c-6.1,0-11,5-11,11v62.9c0,6.1,5,11,11,11H243c6.1,0,11-5,11-11v-62.9
		C254,169.8,249.1,164.8,243,164.8z M226,222.6h-55.2v-28.7H226V222.6z"/>
				<path class="st0" d="M362,200h-82.9c-1.6,0-3-1.3-3-3v-29.2c0-1.6,1.3-3,3-3H362c1.6,0,3,1.3,3,3V197C365,198.7,363.6,200,362,200z
		"/>
				<path class="st0" d="M362,250.2h-82.9c-1.6,0-3-1.3-3-3V218c0-1.6,1.3-3,3-3H362c1.6,0,3,1.3,3,3v29.2
		C365,248.8,363.6,250.2,362,250.2z"/>
				<path class="st0" d="M362,300.3h-82.9c-1.6,0-3-1.3-3-3v-29.2c0-1.6,1.3-3,3-3H362c1.6,0,3,1.3,3,3v29.2
		C365,299,363.6,300.3,362,300.3z"/>
				<path class="st0" d="M250.7,300.3H146.4c-1.8,0-3.3-1.5-3.3-3.3v-28.5c0-1.8,1.5-3.3,3.3-3.3h104.3c1.8,0,3.3,1.5,3.3,3.3V297
		C254,298.8,252.5,300.3,250.7,300.3z"/>
				<path class="st0" d="M412.4,100.1H95.6c-9.9,0-17.9,8.1-17.9,17.9v4.2h-28c-8.6,0-15.7,7.1-15.7,15.7V330
		c0,18.2,14.3,33.2,32.2,34.3v0.1h2.1h9.3h17.9h8.8h308c9.9,0,17.9-8.1,17.9-17.9V118.1C430.4,108.2,422.3,100.1,412.4,100.1z
		 M66.2,332.1V154.9h11.4v177.2H66.2z M397.2,332.1H110.4V133.3h286.8V332.1z"/>
</g>
</svg>
		<!-- Generator: Adobe Illustrator 23.0.2, SVG Export Plug-In . SVG Version: 6.00 Build 0)  -->
		<svg version="1.1" id="ba-ambiente" xmlns="http://www.w3.org/2000/svg" xmlns:xlink="http://www.w3.org/1999/xlink" x="0px" y="0px"
			 viewBox="0 0 463 463" style="enable-background:new 0 0 463 463;" xml:space="preserve">

<g>
	<g>
		<g>
			<path class="st0" d="M228.3,169c3.8,1.5,7.5-2.1,6.2-6c-8.6-26.4-39.6-36.3-68.5-12.8c-15.2,12.3-20.9,15-21,15
				c10,10,21.4,43.6,46.4,47.3c27.5,5,51.8-22.1,31.9-34.4c-13.1-8.1-28.5-12.9-45-12.9C195.6,161.2,212.9,162.9,228.3,169z"/>
		</g>
	</g>
	<g>
		<g>
			<path class="st0" d="M352.8,150.1c-49.8-40.5-81.6,23.4-61.8,17c14-4.5,29.4-5.5,44.7-2c-26.1,0-50.1,11.9-66.1,31.4
				c1.3-30.6,3.3-49.7,5.6-63.9c13.3-0.5,31.1-11.2,40.8-30c16.8-30.1,9-60.9,6.5-80.3C309.4,35,252,20.1,229.3,59
				c-10,17.2-7.1,38.1,3.4,53.5c3.3,4.9,11.3,2.5,11.6-3.4c1-25.6,13.7-45,37.5-55.7c-10.7,13.8-17.7,29.3-21.3,45.3
				c-5.6,24.9-11.5,41.2-13.6,120.6c-0.2,8,6.3,14.7,14.4,14.6c5.8-0.1,10.8-3.8,13.1-9.2c3.4-8.2,9-16.7,18-24.4
				c8.6,9.5,21.6,14.5,35.1,12.1c24.8-3.7,36.4-37.4,46.4-47.3C373.7,165.1,368,162.5,352.8,150.1z"/>
		</g>
	</g>
	<g>
		<g>
			<path class="st0" d="M426.1,249c-15.6-10.6-32.5-3-40.3,1.5L288,322l-57.2,0l-14.3-14.3h52.5c15.8,0,33.5-10.3,33.5-28.6
				c0-19.4-17.7-28.6-33.5-28.6h-19.7c-14.6,0-31.7,1.3-43.8-5.1c-11.4-5.8-24.6-9.1-38.7-9.1c-23.6,0-44.8,9.4-59.3,24.3l-77,75.8
				l85.8,85.8l28.6-42.9h135.2c14.4,0,28.3-5.3,39.1-14.9L427,268.6C433,263.3,432.7,253.5,426.1,249z"/>
		</g>
	</g>
</g>
</svg>
		<!-- Generator: Adobe Illustrator 23.0.2, SVG Export Plug-In . SVG Version: 6.00 Build 0)  -->
		<svg version="1.1" id="ba-cultura" xmlns="http://www.w3.org/2000/svg" xmlns:xlink="http://www.w3.org/1999/xlink" x="0px" y="0px"
			 viewBox="0 0 463 463" style="enable-background:new 0 0 463 463;" xml:space="preserve">

<g>
	<path class="st0" d="M449.6,166c-0.8-3.1-2.9-5.8-5.7-7.3c-2.8-1.5-6.2-1.8-9.2-0.7c-26.6,9.3-67.7,15.4-113.8,15.4
		c-11.2,0-22-0.4-32.5-1.1c-5.4,24.5-14.1,47-25.2,66.8c0.5,0,1.1-0.1,1.6-0.1c14.3,0,26-1.2,26,8.5c0,9.7-11.6,26.5-26,26.5
		c-8.4,0-15.7-2.7-20.5-6.8c-14.3,17.8-31.1,31.8-49.5,41.1c20.8,70,69.4,119.1,126.1,119.1c75.6,0,136.9-87.4,136.9-195.2
		C457.8,208.9,454.9,186.6,449.6,166z M375.4,370.4c-0.2,1-1,1.9-2,2.2c-1,0.3-2.1,0.1-2.9-0.6c-10.7-9-28.8-14.9-49.6-14.9
		c-20.8,0-39,6-49.6,14.9c-0.8,0.7-1.9,0.9-2.9,0.6c-1-0.3-1.8-1.2-2-2.2c-0.9-3.8-1.4-7.6-1.4-11.7c0-30.9,25.1-56,56-56
		s56,25.1,56,56C376.9,362.8,376.3,366.6,375.4,370.4z M377,274c-14.3,0-26-16.9-26-26.5c0-9.7,11.6-8.5,26-8.5s26,7.8,26,17.5
		C402.9,266.1,391.3,274,377,274z"/>
	<path class="st0" d="M279.9,110.8c0-23.3-2.9-45.5-8.2-66.2c-0.8-3.1-2.9-5.8-5.7-7.3c-1.7-0.9-3.5-1.4-5.4-1.4
		c-1.3,0-2.6,0.2-3.8,0.6C230.3,46,189.2,52,143,52c-46.2,0-87.2-6-113.8-15.4C28,36.2,26.7,36,25.4,36c-1.9,0-3.7,0.5-5.4,1.4
		c-2.8,1.5-4.9,4.2-5.7,7.3C9,65.3,6.1,87.5,6.1,110.8C6.1,218.6,67.4,306,143,306C218.6,306,279.9,218.6,279.9,110.8z M60.9,135
		c0-9.7,11.6-17.5,26-17.5c14.3,0,26,16.9,26,26.5c0,9.7-11.6,8.5-26,8.5C72.6,152.6,60.9,144.7,60.9,135z M143,269.1
		c-30.9,0-56-25.1-56-56c0-4,0.5-7.9,1.4-11.7c0.2-1,1-1.9,2-2.2c1-0.3,2.1-0.1,2.9,0.6c10.7,9,28.8,14.9,49.6,14.9s39-6,49.6-14.9
		c0.8-0.7,1.9-0.9,2.9-0.6c1,0.3,1.8,1.2,2,2.2c0.9,3.8,1.4,7.6,1.4,11.7C199,244,173.9,269.1,143,269.1z M173.2,144.1
		c0-9.7,11.6-26.5,26-26.5c14.3,0,26,7.8,26,17.5c0,9.7-11.6,17.5-26,17.5C184.8,152.6,173.2,153.7,173.2,144.1z"/>
</g>
</svg>
		<svg version="1.1" id="ba-economia" xmlns="http://www.w3.org/2000/svg" xmlns:xlink="http://www.w3.org/1999/xlink" x="0px" y="0px"
			 viewBox="0 0 463 463" style="enable-background:new 0 0 463 463;" xml:space="preserve">

<g>
	<g>
		<path class="st0" d="M448.8,195.3c-3.3-7.6-10.4-12.7-18.5-13.1c-5.3-0.4-10.5,0.9-15.2,3.2c-2.6-2.1-5.6-3.8-9-5
			c-8.1-2.7-25.8-0.3-33.6,7.9c-16.3-22.2-40.5-40.1-69.3-51.7c-5.4,8.7-13.4,15.5-23.1,19.2c1.9,1.5,2.9,2.6,3.1,2.8
			c2.4,2.8,2.1,7-0.7,9.4c-1.3,1.1-2.8,1.6-4.4,1.6c-1.9,0-3.7-0.8-5-2.3c-0.4-0.4-10.7-11.3-37.9-11.3c-27.1,0-37.5,10.9-37.9,11.4
			c-2.5,2.7-6.7,2.9-9.4,0.5c-2.7-2.4-3-6.6-0.6-9.3c0.5-0.6,12.7-13.8,41.6-15.6c-5.1-5.8-8.8-12.7-10.6-20.4
			c-19,0.9-37.2,4.3-53.9,9.9c-16.2-21-59.1-40.4-81.3-45.1c0,46,20.2,56.3,19.5,81.1c-17,15.7-29.4,34.7-35.7,55.5l-23.9-3.5
			c-7.3-1.1-12,4-10.6,11.1l9.6,47.8c1.4,7.2,8.6,13.1,16,13.1h10.7c8.5,23.6,25,44.5,46.9,60.7v71.9c36.4,0,65.9,1,65.9-27.5v-14.2
			c15,3.6,30.9,5.6,47.4,5.6c21.5,0,41.9-3.4,60.8-9.3v17.9c0,28.6,29.5,27.5,65.9,27.5v-82.9c25-23.3,40.2-53.6,40.2-86.7
			c0-22.2-6.9-43.2-18.9-61.6c4.5-6.9,21-9.5,27.5-7.3c1.8,0.6,3.5,1.4,5,2.4c-6,4.5-10.3,10.5-11.3,16.1c-0.7,3.9-0.9,13.5,13.1,18
			c1.8,0.6,3.5,0.8,5,0.8c5.1,0,9-2.8,10.6-8.1c2.2-6.8,0.1-17.4-6.2-25.6c3.1-1.2,6.5-1.9,9.8-1.7c6.7,0.4,11,5,12.8,9.1
			c2,4.7,1.5,9.6-1.4,13.1c-1.2,1.4-1,3.5,0.4,4.7c1.4,1.2,3.5,1,4.7-0.5C450.9,209.9,451.8,202.3,448.8,195.3z M126.2,227.3
			c-7.1,0-12.8-5.7-12.8-12.8s5.7-12.8,12.8-12.8s12.8,5.7,12.8,12.8S133.3,227.3,126.2,227.3z M419.9,214c-0.7,2-2.1,4.6-7.3,2.9
			c-6.6-2.1-9.4-5.6-8.5-10.4c0.8-4.4,4.7-9.3,9.9-12.8C419.6,200.2,421.5,209.2,419.9,214z"/>
		<circle class="st0" cx="263.4" cy="112.4" r="33.3"/>
		<circle class="st0" cx="216.8" cy="62.6" r="24.9"/>
		<circle class="st0" cx="311.1" cy="76.8" r="17.4"/>
	</g>
</g>
</svg>
		<svg version="1.1" id="ba-infrastrutture" xmlns="http://www.w3.org/2000/svg" xmlns:xlink="http://www.w3.org/1999/xlink" x="0px" y="0px"
			 viewBox="0 0 463 463" style="enable-background:new 0 0 463 463;" xml:space="preserve">

<g>
	<path class="st0" d="M390.6,181.2c7.6-3.1,15.3-5.8,23.1-8.4c0,0-1.9,0-5.3,0c-0.4,0-0.4,0-0.3,0c-6.7,0-13.5,0.2-20.2,0.6
		L352.4,69.9l-2.4-7l-3.5,6.5L278.3,197c-8.7,3.3-17.2,7-25.6,10.9L201.6,71l-3-7.9l-3,7.9l-96,250.6c-7,7.4-13.8,15-20.4,22.8
		C69.3,356,59.8,368,50.9,380.4c-7.3,10.2-14.4,20.6-20.8,31.4l-0.1,0.3h77l16.8-32l22.2,0c-6.9,13.6-11.8,24.9-14.7,32H216
		c5.9-31.4,15.6-62.3,29.4-91.1c4.5-9.5,9.5-18.8,15-27.8l25.5,86.7h31l-41-109.9c7.3-9.9,15.2-19.3,23.8-28.1
		c21.4-21.9,46.6-40,74.1-53.3c0.4-0.2,0.7-0.3,1.1-0.5L407,318.6h30.6L390.6,181.2z M136.7,285.4L198.5,83l38.9,132.3
		c-3.4,1.7-6.7,3.5-10,5.3c-28.4,15.6-55.1,34.3-79.8,55.2C143.9,279,140.3,282.2,136.7,285.4z M168,341.3l-20.9,0
		c0,0,18.6-25.1,28.2-36.8l19.2,0.1C185.3,315.8,176.4,328.2,168,341.3z M226.2,271.2l-19.7,0.1l39-29.3l3.2,11.5
		C241.1,258.8,233.5,264.7,226.2,271.2z M278.2,232.1l-9.8-4.3l36.3-21.5l10.1,0.9C298.6,216.3,278.2,232.1,278.2,232.1z
		 M332.6,196.8l-7.2-1.2c0,0,19-9.4,40.8-15.6l2.1,0.4C350.5,186.3,332.6,196.8,332.6,196.8z M318.1,184.1
		c-4.6,1.2-9.1,2.5-13.6,3.9l44.1-107.1l23,93.6C353.6,176.3,335.7,179.5,318.1,184.1z"/>
</g>
</svg>
		<svg version="1.1" id="ba-ambiente" xmlns="http://www.w3.org/2000/svg" xmlns:xlink="http://www.w3.org/1999/xlink" x="0px" y="0px"
			 viewBox="0 0 463 463" style="enable-background:new 0 0 463 463;" xml:space="preserve">

<g>
	<g>
		<g>
			<path class="st0" d="M228.3,169c3.8,1.5,7.5-2.1,6.2-6c-8.6-26.4-39.6-36.3-68.5-12.8c-15.2,12.3-20.9,15-21,15
				c10,10,21.4,43.6,46.4,47.3c27.5,5,51.8-22.1,31.9-34.4c-13.1-8.1-28.5-12.9-45-12.9C195.6,161.2,212.9,162.9,228.3,169z"/>
		</g>
	</g>
	<g>
		<g>
			<path class="st0" d="M352.8,150.1c-49.8-40.5-81.6,23.4-61.8,17c14-4.5,29.4-5.5,44.7-2c-26.1,0-50.1,11.9-66.1,31.4
				c1.3-30.6,3.3-49.7,5.6-63.9c13.3-0.5,31.1-11.2,40.8-30c16.8-30.1,9-60.9,6.5-80.3C309.4,35,252,20.1,229.3,59
				c-10,17.2-7.1,38.1,3.4,53.5c3.3,4.9,11.3,2.5,11.6-3.4c1-25.6,13.7-45,37.5-55.7c-10.7,13.8-17.7,29.3-21.3,45.3
				c-5.6,24.9-11.5,41.2-13.6,120.6c-0.2,8,6.3,14.7,14.4,14.6c5.8-0.1,10.8-3.8,13.1-9.2c3.4-8.2,9-16.7,18-24.4
				c8.6,9.5,21.6,14.5,35.1,12.1c24.8-3.7,36.4-37.4,46.4-47.3C373.7,165.1,368,162.5,352.8,150.1z"/>
		</g>
	</g>
	<g>
		<g>
			<path class="st0" d="M426.1,249c-15.6-10.6-32.5-3-40.3,1.5L288,322l-57.2,0l-14.3-14.3h52.5c15.8,0,33.5-10.3,33.5-28.6
				c0-19.4-17.7-28.6-33.5-28.6h-19.7c-14.6,0-31.7,1.3-43.8-5.1c-11.4-5.8-24.6-9.1-38.7-9.1c-23.6,0-44.8,9.4-59.3,24.3l-77,75.8
				l85.8,85.8l28.6-42.9h135.2c14.4,0,28.3-5.3,39.1-14.9L427,268.6C433,263.3,432.7,253.5,426.1,249z"/>
		</g>
	</g>
</g>
</svg>
		<svg version="1.1" id="ba-salute" xmlns="http://www.w3.org/2000/svg" xmlns:xlink="http://www.w3.org/1999/xlink" x="0px" y="0px"
			 viewBox="0 0 463 463" style="enable-background:new 0 0 463 463;" xml:space="preserve">

<g>
	<g>
		<g>
			<path class="st0" d="M335.2,29.9c-52.7,0-86.5,36.5-104.3,69.4c-17.7-32.9-51.6-69.4-104.3-69.4C59.8,29.9,8.5,84.2,8.5,156.2
				c0,18.8,3.8,36.1,10.7,52.8h99.4l22.5-44.9c4.4-8.8,18.9-8.8,23.3,0l40.5,81l14.4-28.8c4.4-8.8,18.9-8.8,23.3,0L257,245l40.5-81
				c4.4-8.8,18.9-8.8,23.3,0l22.5,44.9h99.4c6.9-16.7,10.7-34,10.7-52.8C453.4,84.2,402.1,29.9,335.2,29.9z"/>
		</g>
	</g>
	<g>
		<g>
			<path class="st0" d="M335.2,235c-4.9,0-9.4-2.8-11.7-7.2L309.2,199l-40.5,81c-2.2,4.4-6.7,7.2-11.7,7.2c-4.9,0-9.4-2.8-11.7-7.2
				l-14.4-28.8l-14.4,28.8c-4.4,8.8-18.9,8.8-23.3,0l-40.5-81l-14.4,28.8c-2.2,4.4-6.7,7.2-11.7,7.2H32.8
				c26.8,42.2,75.1,82.3,135.6,133.3c17,14.3,35,29.6,54,46c2.5,2.1,5.5,3.2,8.5,3.2s6.1-1.1,8.5-3.2c19-16.4,37-31.7,54-46
				c60.4-51,108.8-91.1,135.6-133.3H335.2z"/>
		</g>
	</g>
</g>
</svg>
		<svg version="1.1" id="ba-sport" xmlns="http://www.w3.org/2000/svg" xmlns:xlink="http://www.w3.org/1999/xlink" x="0px" y="0px"
			 viewBox="0 0 463 463" style="enable-background:new 0 0 463 463;" xml:space="preserve">

<g>
	<g id="Layer_1_1_">
		<g>
			<path class="st0" d="M161.6,211.8l9.4-0.1l4.7-8.1c2.3-4,5.4-7.4,8.9-10.3l39.7-73.8l-47.5-88.3c-4.5-8.3-14.3-12-23.2-8.7
				L77.8,50.8c-5.3,2-9.5,6.3-11.3,11.6c-1.8,5.4-1.1,11.3,1.9,16.1l84.9,134.3C156,212.2,158.8,211.8,161.6,211.8z"/>
			<path class="st0" d="M403.6,62.4c-1.8-5.4-6-9.7-11.3-11.6l-75.9-28.2c-8.8-3.3-18.7,0.4-23.1,8.7l-82.8,153.8
				c5.8,0.3,11.4,1.9,16.5,4.8l8.1,4.6l8.1-4.6c5.7-3.3,12.1-5,18.7-5c13.4,0,25.8,7.2,32.6,18.7l4.7,8.1l9.4,0c2.8,0,5.6,0.4,8.3,1
				l84.9-134.3C404.7,73.7,405.4,67.8,403.6,62.4z"/>
			<path class="st0" d="M344.6,279.6l-17.4-10.1l-0.1-20.1c-0.1-10.3-8.4-18.7-18.7-18.7l-20.1-0.1l-10.1-17.4
				c-5.2-8.9-16.6-12-25.6-6.9l-17.5,10l-17.5-10c-9-5.1-20.4-2.1-25.6,6.9l-10.1,17.4l-20.1,0.1c-10.3,0.1-18.7,8.4-18.7,18.7
				l-0.1,20.1l-17.4,10.1c-8.9,5.2-12,16.6-6.9,25.6l10,17.5l-10,17.5c-5.1,9-2.1,20.4,6.9,25.6l17.4,10.1l0.1,20.1
				c0.1,10.3,8.4,18.7,18.7,18.7l20.1,0.1l10.1,17.4c5.2,8.9,16.6,12,25.6,6.9l17.5-10l17.5,10c3,1.7,6.2,2.5,9.3,2.5
				c6.5,0,12.8-3.4,16.3-9.3l10.2-17.4l20.1-0.1c10.3-0.1,18.7-8.4,18.7-18.7l0.1-20.1l17.4-10.1c8.9-5.2,12-16.6,6.9-25.6l-10-17.5
				l10-17.5C356.6,296.3,353.6,284.8,344.6,279.6z M306.8,308.4l-35.9,26.1l13.7,42.2c1.2,3.6-0.1,7.6-3.2,9.9
				c-1.6,1.1-3.4,1.7-5.2,1.7c-1.8,0-3.7-0.6-5.2-1.7l-35.9-26.1l-35.9,26.1c-3.1,2.3-7.3,2.3-10.4,0c-3.1-2.3-4.4-6.3-3.2-9.9
				l13.7-42.2l-35.9-26.1c-3.1-2.2-4.4-6.3-3.2-9.9c1.2-3.6,4.6-6.1,8.4-6.1h44.3l13.7-42.2c1.2-3.6,4.6-6.1,8.4-6.1
				c3.8,0,7.2,2.5,8.4,6.1l13.7,42.2h44.3c3.8,0,7.3,2.5,8.4,6.1C311.2,302.2,309.9,306.2,306.8,308.4z"/>
		</g>
	</g>
</g>
</svg>
	</defs>
</svg>