<?xml version="1.0" encoding="utf-8"?>
<!-- Generator: Adobe Illustrator 23.0.2, SVG Export Plug-In . SVG Version: 6.00 Build 0)  -->
<svg version="1.1" id="ba-ufficio-presidenza" xmlns="http://www.w3.org/2000/svg" xmlns:xlink="http://www.w3.org/1999/xlink" x="0px" y="0px"
	 viewBox="0 0 463.01 463.01" style="enable-background:new 0 0 463.01 463.01;" xml:space="preserve">
<style type="text/css">
	.st0{fill:#08090A;}
</style>
<g>
	<g>
		<g>
			<g>
				<path class="st0" d="M231.84,117.31c-22.26,0-40.38-18.11-40.38-40.38s18.11-40.38,40.38-40.38s40.38,18.11,40.38,40.38
					S254.1,117.31,231.84,117.31z M231.84,46.1c-17,0-30.83,13.83-30.83,30.83s13.83,30.83,30.83,30.83s30.83-13.83,30.83-30.83
					S248.84,46.1,231.84,46.1z"/>
			</g>
		</g>
	</g>
	<g>
		<g>
			<g>
				<path class="st0" d="M303.05,212.25c-15.72,0-28.51-12.79-28.51-28.51v-18.96h-85.39v18.96c0,15.72-12.79,28.51-28.51,28.51
					s-28.51-12.79-28.51-28.51v-47.47c0-24.23,17.2-45.65,40.9-50.93l4.64-1.04l1.05,4.64c5.58,24.65,27.92,42.55,53.12,42.55
					c25.2,0,47.54-17.89,53.12-42.55l1.05-4.64l4.64,1.04c23.7,5.28,40.9,26.7,40.9,50.93v47.47
					C331.56,199.46,318.77,212.25,303.05,212.25z M179.6,155.23h104.49v28.51c0,10.45,8.51,18.96,18.96,18.96
					c10.45,0,18.96-8.51,18.96-18.96v-47.47c0-18.26-11.97-34.57-29.03-40.38c-3.75,12.03-11.05,22.85-20.9,30.86
					c-11.34,9.22-25.63,14.29-40.24,14.29c-14.6,0-28.89-5.08-40.24-14.29c-9.85-8-17.15-18.83-20.9-30.86
					c-17.06,5.8-29.03,22.11-29.03,40.37v47.47c0,10.45,8.51,18.96,18.96,18.96s18.96-8.51,18.96-18.96V155.23z"/>
			</g>
		</g>
	</g>
	<g>
		<g>
			<g>
				<path class="st0" d="M398.09,402.6c-7.11,0-14.07-1.84-20.3-5.43c-9.34-5.39-16.02-14.1-18.81-24.52
					c-2.79-10.42-1.36-21.3,4.03-30.64c11.13-19.28,35.87-25.91,55.16-14.78l0,0c9.37,5.41,16.18,14.08,19.18,24.42
					c3.05,10.5,1.77,21.42-3.61,30.73c-5.39,9.33-14.24,16.02-24.94,18.82C405.25,402.14,401.65,402.6,398.09,402.6z M398.03,331.38
					c-10.66,0-21.04,5.53-26.75,15.41c-4.12,7.13-5.21,15.44-3.08,23.39c2.13,7.95,7.23,14.6,14.36,18.72
					c7.16,4.13,15.61,5.22,23.81,3.07c8.21-2.15,14.99-7.25,19.09-14.36c4.07-7.04,5.03-15.32,2.71-23.3
					c-2.31-7.96-7.56-14.64-14.79-18.81l0,0C408.55,332.71,403.26,331.38,398.03,331.38z"/>
			</g>
		</g>
	</g>
	<g>
		<g>
			<g>
				<path class="st0" d="M322.63,425.78c-8.91,0-17.85-2.25-25.9-6.89l-41.11-23.73c-6.58-3.8-11.3-9.95-13.27-17.31
					c-1.97-7.36-0.97-15.05,2.84-21.63c3.8-6.58,9.95-11.3,17.31-13.27c7.36-1.97,15.04-0.97,21.63,2.84l16.42,9.48l42.7-73.95
					l-16.42-9.48c-13.61-7.86-18.3-25.33-10.44-38.94c7.86-13.61,25.33-18.3,38.94-10.44l41.11,23.74
					c20.99,12.11,30.93,37.72,23.66,60.88l-1.43,4.54l-4.54-1.41c-24.15-7.5-50.81,2.91-63.41,24.73
					c-12.6,21.82-8.27,50.12,10.29,67.28l3.49,3.23l-3.22,3.5C351.17,419.96,336.96,425.78,322.63,425.78z M269.93,351.5
					c-1.65,0-3.32,0.22-4.96,0.66c-4.9,1.31-8.99,4.45-11.52,8.82c-2.53,4.38-3.2,9.48-1.88,14.38c1.31,4.9,4.45,8.99,8.82,11.52
					l41.11,23.73c15.82,9.13,35.92,6.92,49.48-4.95c-8.55-9.26-14.27-20.99-16.27-33.53c-2.31-14.43,0.44-29.34,7.74-41.99
					c7.3-12.65,18.84-22.48,32.49-27.7c11.86-4.53,24.88-5.44,37.17-2.67c3.51-17.68-4.63-36.2-20.45-45.33h0l-41.11-23.73
					c-9.05-5.23-20.67-2.11-25.9,6.94c-5.23,9.05-2.11,20.67,6.94,25.9l24.69,14.25l-52.24,90.49l-24.69-14.25
					C276.45,352.36,273.21,351.5,269.93,351.5z"/>
			</g>
		</g>
	</g>
	<g>
		<g>
			<g>
				<path class="st0" d="M65.59,402.6c-3.56,0-7.15-0.46-10.71-1.39c-10.69-2.8-19.55-9.49-24.94-18.82
					c-5.38-9.32-6.66-20.23-3.61-30.74c3-10.34,9.82-19.01,19.18-24.42c9.34-5.39,20.22-6.83,30.64-4.04
					c10.42,2.79,19.12,9.47,24.52,18.81c5.39,9.34,6.82,20.22,4.03,30.64s-9.47,19.12-18.81,24.52
					C79.67,400.76,72.7,402.6,65.59,402.6z M65.66,331.36c-5.34,0-10.61,1.4-15.37,4.14c-7.22,4.17-12.47,10.85-14.79,18.81
					c-2.32,7.98-1.35,16.25,2.71,23.3c4.1,7.11,10.88,12.21,19.09,14.36c8.2,2.15,16.66,1.06,23.81-3.07
					c7.13-4.12,12.23-10.76,14.36-18.72c2.13-7.95,1.04-16.26-3.08-23.39h0c-4.12-7.13-10.76-12.23-18.72-14.36
					C71.03,331.71,68.33,331.36,65.66,331.36z"/>
			</g>
		</g>
	</g>
	<g>
		<g>
			<g>
				<path class="st0" d="M141.05,425.78c-14.32,0-28.53-5.82-38.66-16.85l-3.22-3.5l3.49-3.23c18.56-17.16,22.89-45.46,10.29-67.28
					c-12.6-21.82-39.27-32.22-63.41-24.73l-4.54,1.41l-1.43-4.54c-7.28-23.16,2.67-48.77,23.66-60.88l41.11-23.73
					c13.61-7.86,31.08-3.18,38.94,10.44c7.86,13.61,3.18,31.08-10.44,38.94l-16.42,9.48l42.69,73.95l16.42-9.48
					c6.58-3.8,14.27-4.81,21.63-2.84c7.36,1.97,13.51,6.69,17.31,13.27l0,0c7.86,13.61,3.18,31.08-10.43,38.95l-41.11,23.74
					C158.91,423.53,149.96,425.78,141.05,425.78z M112.7,405.67c13.56,11.88,33.66,14.08,49.48,4.95l41.11-23.74
					c9.05-5.23,12.17-16.85,6.94-25.9l0,0c-2.53-4.38-6.62-7.51-11.52-8.82c-4.9-1.31-10.01-0.64-14.38,1.88l-24.69,14.25
					l-52.24-90.49l24.69-14.25c9.05-5.23,12.17-16.85,6.94-25.9c-5.23-9.05-16.85-12.17-25.9-6.94l-41.11,23.73
					c-15.82,9.13-23.96,27.65-20.45,45.33c12.29-2.77,25.32-1.86,37.17,2.67c13.65,5.21,25.19,15.05,32.5,27.7
					c7.3,12.65,10.05,27.56,7.74,41.99C126.96,384.67,121.24,396.4,112.7,405.67z"/>
			</g>
		</g>
	</g>
</g>
</svg>
