<?xml version="1.0" encoding="utf-8"?>
<!-- Generator: Adobe Illustrator 23.0.2, SVG Export Plug-In . SVG Version: 6.00 Build 0)  -->
<svg version="1.1" id="Livello_1" xmlns="http://www.w3.org/2000/svg" xmlns:xlink="http://www.w3.org/1999/xlink" x="0px" y="0px"
	 viewBox="0 0 463 463" style="enable-background:new 0 0 463 463;" xml:space="preserve">
<style type="text/css">
	.st0{fill:#030303;}
</style>
<path class="st0" d="M377,86.5c-38.7-38.7-90.2-60.1-145-60.1S125.7,47.8,87,86.5C48.3,125.2,27,176.7,27,231.5s21.3,106.3,60.1,145
	s90.2,60.1,145,60.1s106.3-21.3,145-60.1s60.1-90.2,60.1-145S415.7,125.2,377,86.5z M112.2,386.1c-6.3-42.3,11.2-82.7,43.1-107.2
	l8.4-5.7c0-0.1,0-0.2,0-0.3c1.6-1,3.2-1.9,4.8-2.9l0,0l0,0c8.9-5,18.6-8.9,29-11.5c10,9.1,21.5,14.9,34.2,14.9s24.2-5.8,34.2-14.9
	c14.4,3.6,27.4,9.6,38.8,17.8l7.9,6.1c29.2,25.1,44.7,63.9,38.7,104.1c-34,26.3-75.5,40.5-119.2,40.5
	C188.1,427,146.4,412.7,112.2,386.1z M291,182.3c0,32.4-26.5,82.1-59.3,82.1c-32.7,0-59.3-49.6-59.3-82c0-0.7,0.1-1.4,0.1-2.2
	l0.2-0.1l1.6-12.3c6.5-25.6,29.7-44.7,57.4-44.7c24,0,44.6,14.3,53.9,34.8l3,8.9c0.1,0,0.1-0.1,0.2-0.1c0.2,0.7,0.4,1.5,0.6,2.2l0,0
	l0,0C290.4,173.3,291,177.8,291,182.3z M370.3,369.8c-2.9,2.9-5.8,5.6-8.8,8.3c4.3-57.9-33.4-110.8-88.3-126.8
	c16.6-19.4,26.9-47.5,26.9-68.8c0-37.7-30.7-68.4-68.4-68.4c-37.7,0-68.4,30.7-68.4,68.4c0,21.3,10.4,49.5,26.9,68.8
	c-80.6,27.1-89.7,92.2-87.9,126.7c-3-2.6-5.9-5.3-8.7-8.2c-36.9-36.9-57.3-86-57.3-138.3S56.8,130.2,93.7,93.2
	c36.9-36.9,86-57.3,138.3-57.3s101.3,20.3,138.3,57.3c36.9,36.9,57.3,86,57.3,138.3S407.2,332.8,370.3,369.8z"/>
</svg>
