<?xml version="1.0" encoding="utf-8"?>
<!-- Generator: Adobe Illustrator 23.0.2, SVG Export Plug-In . SVG Version: 6.00 Build 0)  -->
<svg version="1.1" id="Livello_1" xmlns="http://www.w3.org/2000/svg" xmlns:xlink="http://www.w3.org/1999/xlink" x="0px" y="0px"
	 viewBox="0 0 463 463" style="enable-background:new 0 0 463 463;" xml:space="preserve">
<style type="text/css">
	.st0{fill:#EBEAEA;stroke:#136BAA;stroke-width:5;stroke-miterlimit:10;}
	.st1{fill:#136BAA;}
</style>
<g>
	<circle class="st0" cx="230.8" cy="231.7" r="185.2"/>
	<g>
		<path class="st1" d="M328.1,327.8c-0.1-0.9-0.3-1.8-0.6-2.7c-2.1-8.2-7.1-23.3-9.3-30c-0.2-1.2-0.6-2.3-1.1-3.4
			c0,0-3.6-5.4-6.3-7.1c0,0-1.4-0.7-1.5-0.8c-5.4-2.5-21.9-9.2-21.9-9.2c-8.3-3.6-16.9-6.7-25.6-9.8l-12.9,0.3
			c-4.3,3.6-10.9,5.9-18.2,5.9c-7.2,0-13.5-2.2-17.9-5.7l-13-0.6c-8.7,3.1-17.3,6.2-25.6,9.8c0,0-16.6,6.7-21.9,9.2
			c-0.2,0.1-1.4,0.7-1.5,0.8c0,0-5,4.1-6.3,7c0,0-0.9,2.2-1.1,3.4c-2.2,6.7-7.1,21.7-9.3,30c-0.3,0.8-0.5,1.7-0.6,2.7
			c-0.1,0.8-0.2,1.6-0.2,2.4c0,8.9,7.2,16,16,16h15.3c21.9,0,43.7,0,65.6,0c0.3,0,0.6,0,0.8,0s0.6,0,0.8,0c21.9,0,43.7,0,65.6,0
			h15.3c8.9,0,16-7.2,16-16C328.3,329.4,328.2,328.6,328.1,327.8z"/>
		<path class="st1" d="M191,218.6c4.4,14.2,11.3,23.2,18,29c10.5,9,20.6,10,20.9,10c0.3,0,0.6,0,0.8,0s0.6,0,0.8,0
			c0.2,0,10.3-1,20.7-9.9c6.8-5.8,13.6-14.8,18.1-29.1c0.3,0,9.2,4.6,11.3-19c1-11.1-8.3-8.9-9.3-8.9c0-2.8,0.6-13.1,0.6-15.4
			c0-22.8-18.6-41.4-41.4-41.4h-0.1h-0.1c-0.3,0-0.5,0-0.8,0c-0.3,0-0.5,0-0.8,0h-0.1h-0.1c-22.8,0-41.4,18.6-41.4,41.4
			c0,2.4,0.6,12.6,0.6,15.4c-1,0.1-10.3-2.2-9.2,8.9C181.8,223.2,190.8,218.6,191,218.6z"/>
	</g>
</g>
</svg>
