<?xml version="1.0" encoding="utf-8"?>
<!-- Generator: Adobe Illustrator 23.0.2, SVG Export Plug-In . SVG Version: 6.00 Build 0)  -->
<svg version="1.1" id="Livello_1" xmlns="http://www.w3.org/2000/svg" xmlns:xlink="http://www.w3.org/1999/xlink" x="0px" y="0px"
	 viewBox="0 0 463 463" style="enable-background:new 0 0 463 463;" xml:space="preserve">
<style type="text/css">
	.st0{fill:#EBEAEA;}
	.st1{fill:#136BAA;}
</style>
<g>
	<g>
		<circle class="st0" cx="230.8" cy="231.7" r="205.3"/>
		<path class="st1" d="M230.8,439.5C116.3,439.5,23,346.3,23,231.7S116.3,23.9,230.8,23.9s207.8,93.2,207.8,207.8
			S345.4,439.5,230.8,439.5z M230.8,28.9C119,28.9,28,119.9,28,231.7s91,202.8,202.8,202.8s202.8-91,202.8-202.8
			S342.6,28.9,230.8,28.9z"/>
	</g>
	<g>
		<g>
			<path class="st1" d="M302.3,296.2L302.3,296.2L302.3,296.2c-0.1-0.7-0.2-1.3-0.5-1.9c-1.6-6-5.2-17.1-6.8-22
				c-0.2-0.9-0.5-1.7-0.8-2.5c0,0-2.6-4-4.6-5.2c0,0-1-0.5-1.1-0.6c-3.9-1.9-16.1-6.7-16.1-6.7l0,0c-6.1-2.6-12.4-4.9-18.8-7.2l0,0
				l0,0l0,0l0,0c-1.2,4.8-12,36.4-13.8,40.9l-1.4-29.5c0.5-0.7,0.8-1.5,1.2-2.2l4.6-9c-3.2,2.6-8,4.3-13.4,4.3
				c-5.3,0-9.9-1.6-13.1-4.2l4.4,8.8c0.4,0.7,0.7,1.6,1.2,2.2l-1.4,29.5c-1.7-4.4-12.6-36.1-13.8-40.9l0,0l0,0l0,0l0,0
				c-6.4,2.3-12.7,4.6-18.8,7.2l0,0c0,0-12.2,4.9-16.1,6.7c-0.1,0.1-1,0.5-1.1,0.6c0,0-3.6,3-4.6,5.1c0,0-0.7,1.6-0.8,2.5
				c-1.6,4.9-5.2,15.9-6.8,22c-0.2,0.6-0.4,1.3-0.5,1.9l0,0l0,0c-0.1,0.6-0.1,1.2-0.1,1.8c0,6.5,5.3,11.7,11.7,11.7h11.2
				c16.1,0,32.1,0,48.1,0c0.2,0,0.4,0,0.6,0l0,0c0.2,0,0.4,0,0.6,0c16.1,0,32.1,0,48.1,0h11.2c6.5,0,11.7-5.3,11.7-11.7
				C302.4,297.4,302.4,296.8,302.3,296.2z"/>
			<path class="st1" d="M261.4,195.7c0-2.1,0.4-9.6,0.4-11.3c0-16.8-13.6-30.4-30.4-30.4l0,0l0,0h0h0l0,0l0,0c-0.2,0-0.4,0-0.6,0
				c-0.2,0-0.4,0-0.6,0l0,0l0,0h0h0l0,0l0,0c-16.8,0-30.4,13.6-30.4,30.4c0,1.7,0.4,9.2,0.4,11.3c-0.7,0-7.5-1.6-6.8,6.5
				c1.5,17.3,8.2,13.9,8.3,13.9c3.2,10.4,8.3,17,13.2,21.3c7.7,6.6,15.1,7.3,15.3,7.3c0.2,0,0.4,0,0.6,0l0,0l0,0c0.2,0,0.4,0,0.6,0
				c0.1,0,7.5-0.7,15.2-7.2c5-4.2,10-10.9,13.3-21.3c0.2,0,6.8,3.4,8.3-13.9C268.9,194.1,262.2,195.7,261.4,195.7z"/>
			<path class="st1" d="M158.4,266.3l0.1-0.2l0.1-0.2c0.9-2,2.4-3.9,4.7-6.2c0.5-0.5,2-1.9,3.2-2.8l0,0c0.1,0,0.2-0.1,0.2-0.2
				c0,0,0.1-0.1,0.2-0.1l0,0c0.8-0.5,1.8-1,2.2-1.2c2.7-1.3,8.5-3.6,12.5-5.3c-0.1,0-0.2-0.1-0.4-0.2c-0.1,0-0.2-0.1-0.4-0.2
				c-3.4-1.6-14-5.9-14-5.9l0,0c-5.3-2.3-10.8-4.3-16.4-6.2l0,0c-1,4.2-10.5,31.8-12,35.6l-1.2-25.7c0.4-0.6,0.7-1.3,1-1.9l4-7.8
				c-2.8,2.3-7,3.8-11.6,3.8c-4.6,0-8.6-1.4-11.5-3.6l3.9,7.7c0.3,0.7,0.6,1.4,1,1.9l-1.2,25.7c-1.5-3.8-11-31.4-12-35.6l0,0
				c-5.6,2-11.1,3.9-16.4,6.2l0,0c0,0-10.6,4.3-14,5.9c-0.1,0-0.2,0.1-0.4,0.2c-0.3,0.2-0.5,0.2-0.6,0.3l0,0c-1.8,1-3.2,2.6-4.1,4.5
				l0,0c0,0,0,0,0,0c-0.3,0.7-0.6,1.4-0.7,2.2c-1.4,4.3-4.6,13.9-5.9,19.2c-0.2,0.5-0.3,1.1-0.4,1.7l0,0l0,0c-0.1,0.5-0.1,1-0.1,1.6
				c0,5.7,4.6,10.2,10.2,10.2h9.8c14,0,28,0,41.9,0c0.2,0,0.4,0,0.5,0c0.2,0,0.4,0,0.5,0c6.7,0,13.3,0,20,0
				c1.7-6.1,4.5-14.7,6.2-19.9C157.6,268.4,158.1,267,158.4,266.3z"/>
			<path class="st1" d="M105.1,207.9c2.8,9.1,7.2,14.9,11.5,18.5c6.7,5.8,13.2,6.4,13.3,6.4c0.2,0,0.4,0,0.5,0c0.2,0,0.4,0,0.5,0
				c0.1,0,6.6-0.6,13.2-6.3c4.3-3.7,8.7-9.5,11.6-18.6c0.2,0,5.9,2.9,7.3-12.1c0.6-7.1-5.3-5.7-5.9-5.7c0-1.8,0.4-8.4,0.4-9.8
				c0-14.6-11.9-26.5-26.5-26.5l0,0h0h0l0,0l0,0c-0.2,0-0.3,0-0.5,0s-0.3,0-0.5,0l0,0l0,0h0h0l0,0l0,0c-14.6,0-26.5,11.9-26.5,26.5
				c0,1.5,0.4,8.1,0.4,9.8c-0.7,0-6.6-1.4-5.9,5.7C99.2,210.9,105,207.9,105.1,207.9z"/>
			<path class="st1" d="M393.3,269c-0.1-1-0.2-1.9-0.3-2.9c0,0-0.5-3.1-0.7-3.6c-1.2-5.4-4.6-9.3-9.1-12.5c-0.9-0.6-1.7-1.1-2.6-1.5
				c-1.2-0.6-18.9-6.5-19.4-6.6c0.1,0.6,0.2,1.3,0.2,2c2.5,1.7,9.8,8,6.5,19.7c0,0-5.3-6.2-10.6-7c-5.1,8.9-13.7,20.1-18.4,23
				c-4.7-2.9-13.3-14.1-18.4-23c-5.3,0.8-10.6,7-10.6,7c-3.3-11.7,4-18,6.5-19.7c0-0.7,0.1-1.4,0.2-2c-0.5,0.2-18.2,6-19.4,6.6
				c-0.9,0.5-1.8,1-2.6,1.5c-1.8,1.2-3.4,2.5-4.7,4c1.1,0.5,2,0.9,2.7,1.2c0.3,0.1,1.2,0.5,1.9,1l0,0c1.9,1.1,3.7,2.8,5.7,5.3
				c2,2.5,2.6,3.7,3,4.5c0.5,1.1,0.9,2.3,1.2,3.5c1.7,5.2,4.5,13.8,6.2,19.9c9.4,0,18.9,0,28.3,0c13.7,0,27.4,0,41.1,0
				c4.1,0,7.6-1.2,10.5-4.3c2.2-2.4,2.9-5.3,3.1-8.4c0-0.5,0.1-2.9,0.1-2.9S393.3,269.1,393.3,269z"/>
			<path class="st1" d="M306.6,213.2c0.4,1.5,0.7,3,0.7,4.3c0,0.5,0,0.9-0.1,1.4c-0.4,1.3-3.1,5.7-3.6,6.4
				c4.8,5.2,11.2,6.4,17.5,7.7c1.9,0.4,3.8,0.6,5.8,0.9c0.7,0.1,1.3,0.2,2,0.4l-3.2,9.3c0,0-0.1,13.7,13.1,22h0.1
				c13.2-8.3,13.1-22,13.1-22l-3.2-9.3c0.7-0.1,1.3-0.2,2-0.4c2-0.2,3.9-0.5,5.8-0.9c6.3-1.3,12.7-2.5,17.5-7.7
				c-0.5-0.7-3.2-5.1-3.6-6.4c-0.1-0.5-0.1-0.9-0.1-1.4c0-1.4,0.2-2.8,0.7-4.3c0.4-1.4,0.9-2.9,1.3-4.4c2.2-4.8,3.3-10,3.3-15.6
				c0-20.6-16.4-37.4-36.8-37.8l0,0h0h0l0,0c-20.4,0.4-36.8,17.2-36.8,37.8c0,5.5,1.2,10.8,3.3,15.6
				C305.7,210.3,306.2,211.7,306.6,213.2z"/>
		</g>
	</g>
</g>
</svg>
