<?xml version="1.0" encoding="utf-8"?>
<!-- Generator: Adobe Illustrator 23.0.2, SVG Export Plug-In . SVG Version: 6.00 Build 0)  -->
<svg version="1.1" id="Livello_1" xmlns="http://www.w3.org/2000/svg" xmlns:xlink="http://www.w3.org/1999/xlink" x="0px" y="0px"
	 viewBox="0 0 463 463" style="enable-background:new 0 0 463 463;" xml:space="preserve">
<style type="text/css">
	.st0{fill:#030303;}
</style>
<g>
	<g>
		<g>
			<path class="st0" d="M125.3,233.6c2.4,8.6,8.6,20.1,9.6,21.9c1.2,2.7,1.9,5.4,2.1,8.3l8.8,86.6c0.5,5.2,4.9,9.1,10.1,9.1h15.3
				c5.2,0,9.6-3.9,10.1-9.1l8.8-86.6c0.3-2.9,1-5.8,2.2-8.5c1-2.4-0.1-5.2-2.4-6.2c-2.4-1-5.2,0.1-6.2,2.4c-1.6,3.6-2.6,7.4-3,11.4
				l-8.8,86.6c-0.1,0.3-0.3,0.6-0.6,0.6H156c-0.3,0-0.6-0.3-0.6-0.6l-8.9-86.7c-0.4-3.9-1.4-7.7-3-11.4c-0.1-0.2-0.1-0.3-0.2-0.4
				c-0.1-0.1-6.6-12-8.8-20c-2.4-8.9-3.1-28.4-1.1-31.9c1.6-1.6,2.2-2.2,3.9-3.4c4.1-3,8.9-5.5,12-7l10.6,14.5
				c0.9,1.2,2.3,1.9,3.8,1.9s2.9-0.7,3.8-1.9l12.8-17.6c1.5-2.1,1-5.1-1-6.6c-2.1-1.5-5.1-1-6.6,1l-9,12.3l-8.9-12.3
				c-1.3-1.8-3.6-2.4-5.6-1.6c-0.4,0.2-9.7,3.9-17.4,9.6c-2.2,1.6-3.2,2.6-5.1,4.4C119.8,199.4,123.5,227.2,125.3,233.6z"/>
			<path class="st0" d="M163.1,172.4c0.1,0,0.2,0,0.3,0c0.1,0,0.2,0,0.2,0c0.1,0,0.2,0,0.4,0c6.1-0.2,11.2-2.4,14.9-6.5
				c7.8-8.8,6.7-23.4,6.5-25.3c-0.8-16.2-12-21.9-21.4-21.9c-0.2,0-0.3,0-0.4,0s-0.3,0-0.4,0c-9.4,0-20.6,5.8-21.4,21.9
				c-0.2,1.8-1.3,16.5,6.5,25.3C151.9,170.1,157.1,172.3,163.1,172.4z M151.2,141.5c0-0.1,0-0.2,0-0.3c0.5-11.3,7.7-13,11.9-13h0.2
				c0.1,0,0.3,0,0.4,0h0.2c4.2,0,11.4,1.7,11.9,13c0,0.1,0,0.2,0,0.3c0.4,3.3,0.3,13.1-4.2,18.2c-1.9,2.2-4.6,3.3-8.1,3.3
				c-0.1,0-0.1,0-0.1,0l0,0c-3.5-0.1-6.2-1.1-8.1-3.3C151,154.7,150.9,144.9,151.2,141.5z"/>
			<path class="st0" d="M273,249.1c-2.4,1-3.5,3.9-2.4,6.2c1.2,2.7,1.9,5.5,2.2,8.5l8.8,86.6c0.5,5.2,4.9,9.1,10.1,9.1H307
				c5.2,0,9.6-3.9,10.1-9.1l8.8-86.6c0.3-2.9,1-5.6,2.1-8.3c0.9-1.7,7.3-13.3,9.6-21.9c1.7-6.4,5.5-34.2-1.2-40.9
				c-1.8-1.8-2.9-2.8-5.1-4.4c-7.7-5.7-17-9.5-17.4-9.6c-2-0.8-4.3-0.2-5.6,1.6l-9,12.3l-9-12.3c-1.5-2.1-4.5-2.6-6.6-1
				c-2.1,1.5-2.6,4.5-1,6.6l12.8,17.6c0.9,1.2,2.3,1.9,3.8,1.9c1.5,0,2.9-0.7,3.8-1.9l10.6-14.5c3.1,1.5,7.8,3.9,12,7
				c1.6,1.2,2.2,1.8,3.9,3.4c2,3.5,1.3,22.9-1.1,31.9c-2.2,8-8.8,19.9-8.8,20c-0.1,0.1-0.2,0.3-0.2,0.4c-1.6,3.6-2.6,7.4-3,11.4
				l-8.8,86.6c-0.1,0.3-0.3,0.6-0.6,0.6h-15.3c-0.3,0-0.6-0.3-0.6-0.6l-8.8-86.6c-0.4-3.9-1.4-7.7-3-11.4
				C278.2,249.1,275.4,248,273,249.1z"/>
			<path class="st0" d="M298.9,172.4c0.1,0,0.2,0,0.4,0c0.1,0,0.2,0,0.2,0c0.1,0,0.2,0,0.3,0c6.1-0.1,11.2-2.4,14.9-6.5
				c7.8-8.8,6.7-23.4,6.5-25.3c-0.8-16.2-12-21.9-21.4-21.9c-0.2,0-0.3,0-0.4,0s-0.3,0-0.4,0c-9.4,0-20.6,5.8-21.4,21.9
				c-0.2,1.8-1.3,16.5,6.5,25.3C287.7,170.1,292.8,172.3,298.9,172.4z M287,141.5c0-0.1,0-0.2,0-0.3c0.5-11.3,7.7-13,11.9-13h0.2
				c0.1,0,0.3,0,0.4,0h0.2c4.2,0,11.4,1.7,11.9,13c0,0.1,0,0.2,0,0.3c0.4,3.3,0.3,13.1-4.2,18.2c-1.9,2.2-4.6,3.2-8.1,3.3l0,0
				c-0.1,0-0.1,0-0.1,0c-3.5-0.1-6.2-1.1-8.1-3.3C286.7,154.7,286.6,144.9,287,141.5z"/>
			<path class="st0" d="M192.2,182.2c-7.1,7.1-3.1,36.5-1.2,43.3c2.5,9.2,9.2,21.5,10.2,23.3c1.3,2.9,2,5.9,2.4,8.9l9.4,92.3
				c0.5,5.4,5,9.4,10.5,9.4h16.3c5.4,0,9.9-4.1,10.5-9.4l9.4-92.3c0.3-3.1,1.1-6.1,2.4-8.9c1-1.8,7.7-14.1,10.2-23.3
				c1.8-6.8,5.9-36.2-1.2-43.3c-1.9-1.9-3-3-5.3-4.7c-8.2-6.1-18.1-10-18.5-10.3c-2-0.8-4.3-0.2-5.6,1.6l-10,13.5l-9.8-13.5
				c-1.3-1.8-3.6-2.4-5.6-1.6c-0.4,0.2-10.3,4.2-18.5,10.3C195.2,179.2,194.1,180.2,192.2,182.2z M199,188.8
				c1.7-1.7,2.5-2.4,4.2-3.7c4.5-3.3,9.7-6,13.1-7.6l11.4,15.7c0.9,1.2,2.3,1.9,3.8,1.9c1.5,0,2.9-0.7,3.8-1.9l11.4-15.7
				c3.3,1.6,8.5,4.2,13.1,7.6c1.7,1.3,2.5,1.9,4.2,3.7c2.2,3.6,1.5,24.5-1.2,34.2c-2.4,8.6-9.4,21.2-9.5,21.3
				c-0.1,0.1-0.2,0.3-0.2,0.4c-1.7,3.8-2.8,7.8-3.2,12l-9.4,92.3c-0.1,0.5-0.5,0.9-1,0.9h-16.3c-0.5,0-0.9-0.4-1-0.9l-9.4-92.3
				c-0.4-4.1-1.5-8.2-3.2-12c-0.1-0.2-0.1-0.3-0.2-0.4c-0.1-0.1-7.1-12.8-9.5-21.4C197.5,213.3,196.8,192.3,199,188.8z"/>
			<path class="st0" d="M231,160c0.1,0,0.3,0,0.4,0c0.1,0,0.2,0,0.3,0c0.1,0,0.2,0,0.3,0c6.5-0.1,11.7-2.4,15.6-6.9
				c8.3-9.3,7-24.8,6.9-26.7c-0.8-17-12.6-23-22.5-23c-0.2,0-0.3,0-0.5,0c-0.1,0-0.3,0-0.5,0c-9.8,0-21.7,6-22.5,23
				c-0.2,1.9-1.4,17.4,6.9,26.7C219.3,157.6,224.6,159.9,231,160z M218,127.4c0-0.1,0-0.2,0-0.3c0.6-12.8,9.3-14.1,13-14.1h0.3
				c0.1,0,0.3,0,0.4,0h0.3c3.7,0,12.4,1.4,13,14.1c0,0.1,0,0.2,0,0.3c0.4,3.6,0.3,14.2-4.5,19.6c-2.1,2.4-5.1,3.6-8.9,3.6
				c-0.1,0-0.1,0-0.2,0c-3.8-0.1-6.7-1.2-8.9-3.6C217.6,141.5,217.6,131,218,127.4z"/>
		</g>
	</g>
	<g>
		<path class="st0" d="M231.5,436.6c-54.8,0-106.3-21.3-145-60.1s-60.1-90.2-60.1-145s21.3-106.3,60.1-145
			c38.7-38.7,90.2-60.1,145-60.1s106.3,21.3,145,60.1c38.7,38.7,60.1,90.2,60.1,145s-21.3,106.3-60.1,145S286.3,436.6,231.5,436.6z
			 M231.5,35.9c-52.2,0-101.4,20.3-138.3,57.3c-36.9,36.9-57.3,86.1-57.3,138.3s20.3,101.4,57.3,138.3
			c36.9,36.9,86.1,57.3,138.3,57.3s101.4-20.3,138.3-57.3c36.9-36.9,57.3-86.1,57.3-138.3s-20.3-101.4-57.3-138.3
			C332.9,56.2,283.7,35.9,231.5,35.9z"/>
	</g>
</g>
</svg>
